<?xml version="1.0" standalone="no"?>
<!DOCTYPE svg PUBLIC "-//W3C//DTD SVG 1.1//EN" "http://www.w3.org/Graphics/SVG/1.1/DTD/svg11.dtd" >
<svg xmlns="http://www.w3.org/2000/svg" xmlns:xlink="http://www.w3.org/1999/xlink" version="1.1">
<metadata>
Created by FontForge 20170731 at Fri Dec  3 12:44:46 2021
 By Aleksey,,,
Copyright (c) 2016 by BrightHead Studio. All rights reserved.
</metadata>
<defs>
<font id="StudioSansDEMO" horiz-adv-x="3076" >
  <font-face 
    font-family="Studio Sans DEMO"
    font-weight="400"
    font-stretch="normal"
    units-per-em="2048"
    panose-1="2 11 5 0 0 0 0 2 0 4"
    ascent="1638"
    descent="-410"
    x-height="1040"
    cap-height="1434"
    bbox="-41 -430 2974 1800"
    underline-thickness="81"
    underline-position="-285"
    unicode-range="U+000D-FB05"
  />
<missing-glyph horiz-adv-x="481" 
 />
    <glyph glyph-name="f_f" unicode="ff" horiz-adv-x="1212" 
d="M1186 1434v-142q-51 21 -111 21q-42 0 -67 -24t-25 -68v-181h203v-151h-203v-889h-186v889h-408v-889h-186v889h-176v151h176v146q0 140 59 204t187 64q75 0 143 -20v-142q-51 21 -111 21q-42 0 -67 -24t-25 -68v-181h408v146q0 141 58.5 204.5t186.5 63.5q76 0 144 -20z
" />
    <glyph glyph-name="f_i" unicode="fi" horiz-adv-x="1091" 
d="M389 1040h559v-1040h-186v889h-373v-889h-186v889h-176v151h176v146q0 140 59 204t187 64q75 0 143 -20v-142q-51 21 -111 21q-42 0 -67 -24t-25 -68v-181zM731 1317q0 48 35.5 82.5t87.5 34.5q51 0 87 -34.5t36 -82.5q0 -49 -36 -83t-87 -34q-52 0 -87.5 33.5
t-35.5 83.5z" />
    <glyph glyph-name="f_l" unicode="fl" horiz-adv-x="1144" 
d="M956 1425v-1218q0 -78 68 -78q35 0 80 23v-134q-66 -28 -141 -28q-193 0 -193 233v1061q-89 29 -192 29q-87 0 -138 -41.5t-51 -110.5v-121h203v-151h-203v-889h-186v889h-176v151h176v93q0 165 90 243t285 78q171 0 378 -29z" />
    <glyph glyph-name="f_f_i" unicode="ffi" horiz-adv-x="1685" 
d="M983 1040h559v-1040h-186v889h-373v-889h-186v889h-408v-889h-186v889h-176v151h176v146q0 140 59 204t187 64q75 0 143 -20v-142q-51 21 -111 21q-42 0 -67 -24t-25 -68v-181h408v146q0 141 58.5 204.5t186.5 63.5q76 0 144 -20v-142q-51 21 -111 21q-42 0 -67 -24
t-25 -68v-181zM1325 1317q0 48 35.5 82.5t87.5 34.5q51 0 87 -34.5t36 -82.5q0 -49 -36 -83t-87 -34q-52 0 -87.5 33.5t-35.5 83.5z" />
    <glyph glyph-name="f_f_l" unicode="ffl" horiz-adv-x="1738" 
d="M389 1040h408v93q0 165 89.5 243t284.5 78q172 0 379 -29v-1218q0 -78 68 -78q35 0 80 23v-134q-66 -28 -142 -28q-192 0 -192 233v1061q-89 29 -193 29q-87 0 -137.5 -41.5t-50.5 -110.5v-121h203v-151h-203v-889h-186v889h-408v-889h-186v889h-176v151h176v146
q0 140 59 204t187 64q75 0 143 -20v-142q-51 21 -111 21q-42 0 -67 -24t-25 -68v-181z" />
    <glyph glyph-name=".notdef" horiz-adv-x="481" 
 />
    <glyph glyph-name=".null" horiz-adv-x="0" 
 />
    <glyph glyph-name="nonmarkingreturn" horiz-adv-x="682" 
 />
    <glyph glyph-name="_0" horiz-adv-x="1024" 
 />
    <glyph glyph-name="_0" horiz-adv-x="1024" 
 />
    <glyph glyph-name="_13" unicode="&#xd;" horiz-adv-x="1024" 
 />
    <glyph glyph-name="space" unicode=" " horiz-adv-x="481" 
 />
    <glyph glyph-name="exclam" unicode="!" horiz-adv-x="679" 
d="M215 1434h250l-64 -1102h-125zM219 98q0 52 35 87.5t86 35.5q52 0 87.5 -35.5t35.5 -87.5q0 -51 -35 -84.5t-88 -33.5q-51 0 -86 33.5t-35 84.5z" />
    <glyph glyph-name="quotedbl" unicode="&#x22;" horiz-adv-x="638" 
d="M276 1434l-36 -473h-101l-37 473h174zM537 1434l-37 -473h-97l-36 473h170z" />
    <glyph glyph-name="numbersign" unicode="#" horiz-adv-x="1351" 
d="M750 0l61 393h-377l-61 -393h-146l62 393h-248v123h268l64 402h-269v122h287l64 394h145l-63 -394h376l64 394h145l-63 -394h252v-122h-271l-63 -402h270v-123h-291l-61 -393h-145zM518 918l-63 -402h376l64 402h-377z" />
    <glyph glyph-name="dollar" unicode="$" horiz-adv-x="1228" 
d="M553 1454v152h111v-152q148 -10 252 -68.5t182 -166.5l-160 -117q-55 83 -119 127.5t-155 54.5v-455q58 -14 100.5 -26t96.5 -32t92 -42.5t77 -56.5t63 -73.5t39 -94.5t15 -119q0 -104 -40 -182t-109.5 -124t-152.5 -70t-181 -29v-183h-111v183q-311 23 -471 253l149 107
q112 -170 322 -193v523q-82 18 -140 36t-122 51t-103 74.5t-64.5 106t-25.5 147.5q0 91 34 161t96.5 113.5t143.5 66.5t181 28zM944 385q0 56 -24 100.5t-68.5 74t-87 48t-100.5 35.5v-496q56 4 103 18.5t88.5 41t65 72.5t23.5 106zM301 1085q0 -45 15 -80.5t36 -58
t57.5 -41t66.5 -28t77 -21.5v430q-116 -10 -184 -59t-68 -142z" />
    <glyph glyph-name="percent" unicode="%" 
d="M561 436h-219v604h219q139 0 215 -75.5t76 -227.5q0 -142 -77.5 -221.5t-213.5 -79.5zM428 958v-440h133q40 0 73 10t62.5 33t46.5 68t17 108q0 69 -16.5 115.5t-47 68t-62 29.5t-73.5 8h-133zM1374 518v-82h-426v604h426v-82h-330v-159h287v-82h-287v-199h330zM1542 944
v-508h-86v604h152l153 -493h11l157 493h146v-604h-86v508h-9l-165 -508h-97l-168 508h-8zM2253 739q0 -110 55.5 -173.5t142.5 -63.5t143 63.5t56 173.5t-56 173t-143 63t-142.5 -63t-55.5 -173zM102 1262h2872v-1047h-2872v1047zM2904 285v907h-2734v-907h2734zM2740 739
q0 -150 -74 -233.5t-215 -83.5t-214.5 83.5t-73.5 233.5t73.5 233t214.5 83t215 -83t74 -233z" />
    <glyph glyph-name="ampersand" unicode="&#x26;" horiz-adv-x="1390" 
d="M1057 786h194q0 -291 -112 -497l241 -289h-241l-111 135q-73 -79 -163.5 -117t-223.5 -38q-232 0 -359.5 111t-127.5 312q0 147 83.5 259.5t202.5 173.5l-39 45q-33 39 -49.5 61.5t-39 60.5t-32.5 79t-10 89q0 131 94.5 207t243.5 76q124 0 198.5 -45.5t133.5 -142.5
l-168 -90q-31 56 -70 83t-94 27q-58 0 -96.5 -30t-38.5 -87q0 -51 18 -89t56 -83l457 -546q30 70 41.5 145.5t11.5 189.5zM356 395q0 -118 76.5 -183t208.5 -65q158 0 270 129q-49 59 -170.5 202.5t-191.5 228.5q-193 -119 -193 -312z" />
    <glyph glyph-name="quotesingle" unicode="'" horiz-adv-x="374" 
d="M272 1434l-36 -473h-97l-37 473h170z" />
    <glyph glyph-name="parenleft" unicode="(" horiz-adv-x="751" 
d="M319 512q0 -489 263 -922h-133q-148 224 -226 448t-78 474t78 474t226 448h133q-263 -433 -263 -922z" />
    <glyph glyph-name="parenright" unicode=")" horiz-adv-x="751" 
d="M432 512q0 491 -262 922h133q148 -224 225.5 -447.5t77.5 -474.5t-77.5 -474.5t-225.5 -447.5h-133q262 431 262 922z" />
    <glyph glyph-name="asterisk" unicode="*" 
d="M561 436h-219v604h219q139 0 215 -75.5t76 -227.5q0 -142 -77.5 -221.5t-213.5 -79.5zM428 958v-440h133q40 0 73 10t62.5 33t46.5 68t17 108q0 69 -16.5 115.5t-47 68t-62 29.5t-73.5 8h-133zM1374 518v-82h-426v604h426v-82h-330v-159h287v-82h-287v-199h330zM1542 944
v-508h-86v604h152l153 -493h11l157 493h146v-604h-86v508h-9l-165 -508h-97l-168 508h-8zM2253 739q0 -110 55.5 -173.5t142.5 -63.5t143 63.5t56 173.5t-56 173t-143 63t-142.5 -63t-55.5 -173zM102 1262h2872v-1047h-2872v1047zM2904 285v907h-2734v-907h2734zM2740 739
q0 -150 -74 -233.5t-215 -83.5t-214.5 83.5t-73.5 233.5t73.5 233t214.5 83t215 -83t74 -233z" />
    <glyph glyph-name="plus" unicode="+" 
d="M561 436h-219v604h219q139 0 215 -75.5t76 -227.5q0 -142 -77.5 -221.5t-213.5 -79.5zM428 958v-440h133q40 0 73 10t62.5 33t46.5 68t17 108q0 69 -16.5 115.5t-47 68t-62 29.5t-73.5 8h-133zM1374 518v-82h-426v604h426v-82h-330v-159h287v-82h-287v-199h330zM1542 944
v-508h-86v604h152l153 -493h11l157 493h146v-604h-86v508h-9l-165 -508h-97l-168 508h-8zM2253 739q0 -110 55.5 -173.5t142.5 -63.5t143 63.5t56 173.5t-56 173t-143 63t-142.5 -63t-55.5 -173zM102 1262h2872v-1047h-2872v1047zM2904 285v907h-2734v-907h2734zM2740 739
q0 -150 -74 -233.5t-215 -83.5t-214.5 83.5t-73.5 233.5t73.5 233t214.5 83t215 -83t74 -233z" />
    <glyph glyph-name="comma" unicode="," horiz-adv-x="614" 
d="M184 98q0 52 36 87.5t87 35.5q53 0 88 -35.5t35 -87.5q0 -26 -10 -53l-144 -330h-71l55 273q-34 14 -55 43t-21 67z" />
    <glyph glyph-name="hyphen" unicode="-" horiz-adv-x="847" 
d="M154 653h540v-149h-540v149z" />
    <glyph glyph-name="period" unicode="." horiz-adv-x="612" 
d="M184 98q0 52 35 87.5t86 35.5q53 0 88 -35.5t35 -87.5q0 -51 -35 -84.5t-88 -33.5q-51 0 -86 33.5t-35 84.5z" />
    <glyph glyph-name="slash" unicode="/" horiz-adv-x="856" 
d="M0 -410l731 1844h125l-731 -1844h-125z" />
    <glyph glyph-name="zero" unicode="0" horiz-adv-x="1228" 
d="M614 1286q-67 0 -122.5 -28.5t-101.5 -91.5t-71.5 -177t-25.5 -272t25.5 -272t71.5 -177.5t101.5 -92t122.5 -28.5q53 0 98 17t87 58.5t71 105t46.5 163t17.5 226.5t-17.5 226t-46.5 163t-71 105t-87 58t-98 17zM614 -20q-85 0 -159 22.5t-142.5 76.5t-117 136.5
t-77 210.5t-28.5 291t28.5 291t77 210.5t117 136.5t142.5 76.5t159 22.5t159 -22.5t142.5 -76.5t117 -136.5t77.5 -210.5t29 -291t-29 -291t-77.5 -210.5t-117 -136.5t-142.5 -76.5t-159 -22.5z" />
    <glyph glyph-name="one" unicode="1" horiz-adv-x="1228" 
d="M1106 0h-983v168h401v872h-391v150h258q60 0 102 42.5t42 108.5v93h192v-1266h379v-168z" />
    <glyph glyph-name="two" unicode="2" horiz-adv-x="1228" 
d="M315 1018l-180 74q69 188 192.5 275t307.5 87q196 0 317 -111.5t121 -310.5q0 -105 -40.5 -209.5t-101.5 -188t-154.5 -172t-175.5 -151t-189 -135.5v-8h682v-168h-959v176q88 58 147 98.5t143 103.5t140 114.5t119 120.5t100 132t61.5 138t24.5 149q0 112 -59.5 183
t-175.5 71q-119 0 -193.5 -62t-126.5 -206z" />
    <glyph glyph-name="three" unicode="3" horiz-adv-x="1228" 
d="M1059 1278l-365 -340v-8q202 -25 317 -146.5t115 -326.5q0 -229 -137.5 -353t-378.5 -124q-188 0 -309 80.5t-199 240.5l168 88q58 -128 139 -185t201 -57q59 0 111 15t99.5 48t75.5 96.5t28 150.5q0 86 -29 149.5t-77.5 97t-101.5 49t-112 15.5h-149v164l344 325v9h-639
v168h899v-156z" />
    <glyph glyph-name="four" unicode="4" horiz-adv-x="1228" 
d="M729 336h-645v156l657 942h191v-930h213v-168h-213v-336h-203v336zM303 504h426v608h-8l-418 -600v-8z" />
    <glyph glyph-name="five" unicode="5" horiz-adv-x="1228" 
d="M430 1266l-70 -385l9 -4q112 84 239 84q238 0 377 -133.5t139 -364.5q0 -230 -138 -356.5t-378 -126.5q-190 0 -307.5 80t-196.5 243l166 88q58 -128 139 -186t199 -58q47 0 89.5 9t84.5 32t72 58t49 90.5t19 126.5q0 87 -28 153.5t-74.5 103.5t-100 55t-111.5 18
q-73 0 -150 -32t-130 -95l-183 69l119 699h778v-168h-612z" />
    <glyph glyph-name="six" unicode="6" horiz-adv-x="1228" 
d="M1106 479q0 -124 -40 -221.5t-110 -157t-158.5 -90t-191.5 -30.5q-135 0 -230 47.5t-149.5 139t-79 211.5t-24.5 279q0 179 25 316t69 227.5t109 148t140 81.5t167 24q77 0 136 -11t117 -40.5t104.5 -87.5t80.5 -144l-174 -81q-24 62 -53.5 102t-64.5 60t-68.5 27
t-77.5 7q-147 0 -226 -118t-85 -341h10q54 66 131.5 108t167.5 42q223 0 349 -137.5t126 -360.5zM903 475q0 151 -72 242.5t-200 91.5q-90 0 -176.5 -62t-132.5 -145q0 -107 17.5 -189t44.5 -131t65.5 -80.5t76.5 -43t80 -11.5q146 0 221.5 87t75.5 241z" />
    <glyph glyph-name="seven" unicode="7" horiz-adv-x="1228" 
d="M637 0h-221q0 721 475 1257v9h-580l-41 -209h-157v377h1003v-168q-255 -241 -367 -554.5t-112 -711.5z" />
    <glyph glyph-name="eight" unicode="8" horiz-adv-x="1228" 
d="M1065 1083q0 -101 -54 -186t-130 -137v-10q235 -117 235 -359q0 -191 -130 -301t-372 -110t-371.5 110t-129.5 301q0 242 241 365v10q-77 45 -133.5 132t-56.5 185q0 175 122.5 273t327.5 98q207 0 329 -98t122 -273zM600 674l-76 22q-99 -41 -154 -118t-55 -187
q0 -126 80.5 -185t218.5 -59q136 0 217.5 59.5t81.5 184.5q0 62 -22 108.5t-68 78.5t-96 52.5t-127 43.5zM627 842l86 -25q67 38 108 108.5t41 157.5q0 90 -68 146.5t-180 56.5q-113 0 -180 -56.5t-67 -146.5q0 -84 74 -146.5t186 -94.5z" />
    <glyph glyph-name="nine" unicode="9" horiz-adv-x="1228" 
d="M592 147q99 0 170 61.5t107 161t44 230.5q-56 -59 -136 -98t-171 -39q-74 0 -143 17.5t-132.5 56.5t-110.5 95.5t-75 140t-28 183.5q0 99 28 182.5t75 141t110 97.5t133 58.5t143 18.5q110 0 196.5 -34t144 -94t95 -146.5t54 -186t16.5 -217.5q0 -176 -26.5 -313
t-72.5 -227t-112.5 -148.5t-142.5 -83t-166 -24.5q-75 0 -137 12.5t-123.5 43t-112 89.5t-88.5 145l166 82q35 -80 86 -127.5t99.5 -62.5t109.5 -15zM606 631q106 0 186 61.5t123 155.5q-2 103 -22 182.5t-49.5 127t-70.5 77t-81 40.5t-86 11q-123 0 -205 -91.5t-82 -238.5
t81.5 -236t205.5 -89z" />
    <glyph glyph-name="colon" unicode=":" horiz-adv-x="612" 
d="M184 98q0 52 35 87.5t86 35.5q53 0 88 -35.5t35 -87.5q0 -51 -35 -84.5t-88 -33.5q-51 0 -86 33.5t-35 84.5zM184 938q0 52 35 87.5t86 35.5q53 0 88 -35.5t35 -87.5q0 -51 -35 -85t-88 -34q-51 0 -86 34t-35 85z" />
    <glyph glyph-name="semicolon" unicode=";" 
d="M561 436h-219v604h219q139 0 215 -75.5t76 -227.5q0 -142 -77.5 -221.5t-213.5 -79.5zM428 958v-440h133q40 0 73 10t62.5 33t46.5 68t17 108q0 69 -16.5 115.5t-47 68t-62 29.5t-73.5 8h-133zM1374 518v-82h-426v604h426v-82h-330v-159h287v-82h-287v-199h330zM1542 944
v-508h-86v604h152l153 -493h11l157 493h146v-604h-86v508h-9l-165 -508h-97l-168 508h-8zM2253 739q0 -110 55.5 -173.5t142.5 -63.5t143 63.5t56 173.5t-56 173t-143 63t-142.5 -63t-55.5 -173zM102 1262h2872v-1047h-2872v1047zM2904 285v907h-2734v-907h2734zM2740 739
q0 -150 -74 -233.5t-215 -83.5t-214.5 83.5t-73.5 233.5t73.5 233t214.5 83t215 -83t74 -233z" />
    <glyph glyph-name="less" unicode="&#x3c;" 
d="M561 436h-219v604h219q139 0 215 -75.5t76 -227.5q0 -142 -77.5 -221.5t-213.5 -79.5zM428 958v-440h133q40 0 73 10t62.5 33t46.5 68t17 108q0 69 -16.5 115.5t-47 68t-62 29.5t-73.5 8h-133zM1374 518v-82h-426v604h426v-82h-330v-159h287v-82h-287v-199h330zM1542 944
v-508h-86v604h152l153 -493h11l157 493h146v-604h-86v508h-9l-165 -508h-97l-168 508h-8zM2253 739q0 -110 55.5 -173.5t142.5 -63.5t143 63.5t56 173.5t-56 173t-143 63t-142.5 -63t-55.5 -173zM102 1262h2872v-1047h-2872v1047zM2904 285v907h-2734v-907h2734zM2740 739
q0 -150 -74 -233.5t-215 -83.5t-214.5 83.5t-73.5 233.5t73.5 233t214.5 83t215 -83t74 -233z" />
    <glyph glyph-name="equal" unicode="=" 
d="M561 436h-219v604h219q139 0 215 -75.5t76 -227.5q0 -142 -77.5 -221.5t-213.5 -79.5zM428 958v-440h133q40 0 73 10t62.5 33t46.5 68t17 108q0 69 -16.5 115.5t-47 68t-62 29.5t-73.5 8h-133zM1374 518v-82h-426v604h426v-82h-330v-159h287v-82h-287v-199h330zM1542 944
v-508h-86v604h152l153 -493h11l157 493h146v-604h-86v508h-9l-165 -508h-97l-168 508h-8zM2253 739q0 -110 55.5 -173.5t142.5 -63.5t143 63.5t56 173.5t-56 173t-143 63t-142.5 -63t-55.5 -173zM102 1262h2872v-1047h-2872v1047zM2904 285v907h-2734v-907h2734zM2740 739
q0 -150 -74 -233.5t-215 -83.5t-214.5 83.5t-73.5 233.5t73.5 233t214.5 83t215 -83t74 -233z" />
    <glyph glyph-name="greater" unicode="&#x3e;" 
d="M561 436h-219v604h219q139 0 215 -75.5t76 -227.5q0 -142 -77.5 -221.5t-213.5 -79.5zM428 958v-440h133q40 0 73 10t62.5 33t46.5 68t17 108q0 69 -16.5 115.5t-47 68t-62 29.5t-73.5 8h-133zM1374 518v-82h-426v604h426v-82h-330v-159h287v-82h-287v-199h330zM1542 944
v-508h-86v604h152l153 -493h11l157 493h146v-604h-86v508h-9l-165 -508h-97l-168 508h-8zM2253 739q0 -110 55.5 -173.5t142.5 -63.5t143 63.5t56 173.5t-56 173t-143 63t-142.5 -63t-55.5 -173zM102 1262h2872v-1047h-2872v1047zM2904 285v907h-2734v-907h2734zM2740 739
q0 -150 -74 -233.5t-215 -83.5t-214.5 83.5t-73.5 233.5t73.5 233t214.5 83t215 -83t74 -233z" />
    <glyph glyph-name="question" unicode="?" horiz-adv-x="1093" 
d="M272 1079l-159 95q67 129 182 204.5t264 75.5q210 0 321 -100.5t111 -274.5q0 -113 -54 -196t-153 -168l-34 -31q-60 -53 -86.5 -101t-26.5 -139v-94h-174v96q0 122 35.5 200.5t107.5 139.5l49 41q142 116 142 250q0 209 -238 209q-90 0 -164.5 -55t-122.5 -152zM428 98
q0 52 35 87.5t86 35.5q53 0 88 -35.5t35 -87.5q0 -51 -35 -84.5t-88 -33.5q-51 0 -86 33.5t-35 84.5z" />
    <glyph glyph-name="at" unicode="@" horiz-adv-x="1781" 
d="M877 240q142 0 217 112v353q-86 96 -217 96q-110 0 -178 -76.5t-68 -204.5q0 -129 68 -204.5t178 -75.5zM1511 520q0 171 -78 315.5t-220.5 231t-319.5 86.5q-178 0 -321.5 -86.5t-221.5 -231t-78 -315.5q0 -170 78 -313.5t221.5 -229.5t321.5 -86q213 0 381 129l78 -108
q-189 -143 -459 -143q-168 0 -313 59t-244.5 160.5t-156 239t-56.5 292.5t56.5 293t156 240t244.5 161.5t313 59.5t312.5 -59.5t243 -161.5t154.5 -240t56 -293q0 -107 -27.5 -188t-75.5 -128.5t-106 -71t-125 -23.5q-58 0 -110.5 27.5t-77.5 76.5q-47 -46 -118 -75
t-142 -29q-198 0 -304 108.5t-106 302.5q0 193 106.5 302.5t303.5 109.5q66 0 130.5 -21t110.5 -55l25 64h106v-558q0 -66 25.5 -97.5t60.5 -31.5q67 0 121.5 73.5t54.5 213.5z" />
    <glyph glyph-name="A" unicode="A" horiz-adv-x="1292" 
d="M938 399h-580l-145 -399h-213l549 1434h196l547 -1434h-211zM872 565l-223 645h-8l-219 -645h450z" />
    <glyph glyph-name="B" unicode="B" horiz-adv-x="1411" 
d="M1030 758q111 -31 186.5 -122.5t75.5 -221.5q0 -65 -14 -121.5t-50.5 -111.5t-93.5 -94t-150 -63t-214 -24h-596v1434h596q101 0 180.5 -24t129 -62t82 -90t45 -103.5t12.5 -107.5q0 -105 -54 -175.5t-135 -105.5v-8zM377 662v-494h393q320 0 320 246q0 134 -83.5 191
t-236.5 57h-393zM1016 1047q0 29 -6.5 57t-23.5 58t-44 52.5t-71 37t-101 14.5h-393v-437h393q246 0 246 218z" />
    <glyph glyph-name="C" unicode="C" horiz-adv-x="1413" 
d="M774 1454q382 0 561 -324l-157 -104q-133 260 -404 260q-76 0 -143 -16.5t-130 -57.5t-107.5 -104t-71.5 -163t-27 -228t27 -228t71.5 -163t107.5 -104.5t130 -58t143 -16.5q271 0 404 267l155 -111q-176 -323 -559 -323q-325 0 -503.5 191.5t-178.5 545.5t178.5 545.5
t503.5 191.5z" />
    <glyph glyph-name="D" unicode="D" horiz-adv-x="1462" 
d="M377 168h321q76 0 141.5 15t127.5 53.5t105.5 98.5t70 157.5t26.5 224.5t-26.5 224.5t-70 157.5t-106 98.5t-128 53.5t-142.5 15h-319v-1098zM698 0h-524v1434h524q324 0 499 -182.5t175 -534.5t-175 -534.5t-499 -182.5z" />
    <glyph glyph-name="E" unicode="E" horiz-adv-x="1230" 
d="M1077 662h-700v-494h805v-168h-1008v1434h1008v-168h-805v-437h700v-167z" />
    <glyph glyph-name="F" unicode="F" horiz-adv-x="1138" 
d="M1012 621h-635v-621h-203v1434h938v-168h-735v-475h635v-170z" />
    <glyph glyph-name="G" unicode="G" horiz-adv-x="1495" 
d="M774 147q193 0 314 118t124 331h-397v168h567v-764h-129l-41 168h-8q-149 -188 -430 -188q-325 0 -503.5 191.5t-178.5 545.5t178.5 545.5t503.5 191.5q382 0 561 -324l-157 -104q-133 260 -404 260q-76 0 -143 -16.5t-130 -57.5t-107.5 -104t-71.5 -163t-27 -228
t27 -228t71.5 -163t107.5 -104.5t130 -58t143 -16.5z" />
    <glyph glyph-name="H" unicode="H" horiz-adv-x="1468" 
d="M377 662v-662h-203v1434h203v-605h715v605h202v-1434h-202v662h-715z" />
    <glyph glyph-name="I" unicode="I" horiz-adv-x="548" 
d="M375 1434v-1434h-201v1434h201z" />
    <glyph glyph-name="J" unicode="J" horiz-adv-x="1019" 
d="M47 285l160 73q31 -99 88.5 -155t159.5 -56q56 0 97 22t63 53.5t35 76t16.5 78.5t3.5 72v985h202v-996q0 -66 -9.5 -124.5t-37 -122t-72 -108.5t-121 -74t-177.5 -29q-327 0 -408 305z" />
    <glyph glyph-name="K" unicode="K" horiz-adv-x="1333" 
d="M377 575v-575h-203v1434h203v-633l674 633h270l-643 -592l663 -842h-260l-546 719z" />
    <glyph glyph-name="L" unicode="L" horiz-adv-x="1083" 
d="M1083 0h-909v1434h203v-1266h706v-168z" />
    <glyph glyph-name="M" unicode="M" horiz-adv-x="1820" 
d="M1436 1180l-443 -1180h-159l-449 1180h-8v-1180h-203v1434h291l440 -1184h8l443 1184h291v-1434h-203v1180h-8z" />
    <glyph glyph-name="N" unicode="N" horiz-adv-x="1515" 
d="M1341 0h-213l-743 1114h-8v-1114h-203v1434h213l743 -1108h9v1108h202v-1434z" />
    <glyph glyph-name="O" unicode="O" horiz-adv-x="1576" 
d="M1485 717q0 -351 -185.5 -544t-511.5 -193q-324 0 -510 193t-186 544t186 544t510 193q326 0 511.5 -193t185.5 -544zM1282 717q0 92 -15 170t-41 135.5t-63 103t-79.5 75t-92.5 49t-100 28t-103 8.5q-76 0 -144 -16.5t-133 -57.5t-112 -104t-75.5 -163.5t-28.5 -227.5
t28.5 -227.5t75.5 -163.5t112 -104.5t133 -58t144 -16.5t144 16.5t133.5 58t112.5 104.5t75.5 163.5t28.5 227.5z" />
    <glyph glyph-name="P" unicode="P" horiz-adv-x="1271" 
d="M713 551h-336v-551h-203v1434h539q38 0 78 -4.5t89.5 -17t94 -32.5t87.5 -55t74.5 -79.5t50.5 -110t19 -144.5q0 -109 -36.5 -192t-90 -128.5t-125 -74t-128 -37t-113.5 -8.5zM377 719h319q39 0 77 6t81.5 24.5t75.5 47.5t53 79t21 115q0 64 -21 114.5t-53 80t-75 48.5
t-81.5 25.5t-77.5 6.5h-319v-547z" />
    <glyph glyph-name="Q" unicode="Q" horiz-adv-x="1576" 
d="M1485 717q0 -414 -256 -606q93 -115 215 -150l-98 -149q-73 25 -142.5 88.5t-103.5 136.5q-139 -57 -312 -57q-324 0 -510 193t-186 544t186 544t510 193q326 0 511.5 -193t185.5 -544zM1282 717q0 92 -15 170t-41 135.5t-63 103t-79.5 75t-92.5 49t-100 28t-103 8.5
q-76 0 -144 -16.5t-133 -57.5t-112 -104t-75.5 -163.5t-28.5 -227.5t28.5 -227.5t75.5 -163.5t112 -104.5t133 -58t144 -16.5t144 16.5t133.5 58t112.5 104.5t75.5 163.5t28.5 227.5z" />
    <glyph glyph-name="R" unicode="R" horiz-adv-x="1355" 
d="M1018 1014q0 64 -21.5 111.5t-53.5 73.5t-76.5 42t-81.5 20.5t-78 4.5h-330v-502h330q41 0 78 4.5t81.5 20t76.5 41.5t53.5 73.5t21.5 110.5zM913 618l351 -618h-226l-342 596h-319v-596h-203v1434h549q41 0 78.5 -2.5t89.5 -13t95.5 -27.5t88.5 -49t76 -75t50.5 -108
t19.5 -145q0 -75 -18.5 -136.5t-47.5 -103.5t-70.5 -74.5t-83 -51t-88.5 -30.5z" />
    <glyph glyph-name="S" unicode="S" horiz-adv-x="1300" 
d="M639 1286q-301 0 -301 -196q0 -37 10 -68t24.5 -53t42 -41t49 -30.5t60.5 -24t62 -18t67 -15.5q203 -45 292 -83q204 -86 247 -260q12 -50 12 -108q0 -88 -31.5 -158.5t-84 -116.5t-124.5 -77t-148.5 -44t-160.5 -13q-191 0 -328.5 77.5t-234.5 237.5l150 106
q59 -98 129 -156t136 -78t148 -20q64 0 122 12t110 38.5t83 75.5t31 116q0 32 -9 60t-21.5 49.5t-37 42t-43 33.5t-53 27.5t-54.5 22t-60 18t-55.5 14t-55.5 12.5q-60 13 -104.5 25t-97 31t-90 40.5t-74.5 53t-60 70t-37 90t-14 112.5q0 97 38 168.5t107.5 113.5t158.5 62
t200 20q219 0 352 -70.5t217 -236.5l-178 -94q-63 133 -150.5 183t-240.5 50z" />
    <glyph glyph-name="T" unicode="T" horiz-adv-x="1140" 
d="M469 1266h-457v168h1116v-168h-456v-1266h-203v1266z" />
    <glyph glyph-name="U" unicode="U" horiz-adv-x="1411" 
d="M705 147q89 0 155 27.5t104 69.5t60.5 105.5t29.5 122t7 132.5v830h203v-830q0 -65 -3.5 -117.5t-17 -119.5t-36.5 -118.5t-65.5 -104t-100 -87t-143.5 -56t-193 -21.5t-193 21.5t-143.5 56t-99.5 87t-65 104t-36.5 119t-17 119.5t-3.5 117v830h203v-830q0 -74 7 -132.5
t29.5 -122t60 -105.5t103.5 -69.5t155 -27.5z" />
    <glyph glyph-name="V" unicode="V" horiz-adv-x="1228" 
d="M504 0l-504 1434h207l403 -1211h23l387 1211h209l-494 -1434h-231z" />
    <glyph glyph-name="W" unicode="W" horiz-adv-x="1843" 
d="M815 1434h229l291 -1176h13l274 1176h221l-366 -1434h-244l-299 1206h-8l-299 -1206h-244l-383 1434h221l291 -1176h12z" />
    <glyph glyph-name="X" unicode="X" horiz-adv-x="1214" 
d="M981 0l-367 590h-10l-371 -590h-233l483 743l-475 691h238l358 -547h8l357 547h235l-473 -691l483 -743h-233z" />
    <glyph glyph-name="Y" unicode="Y" horiz-adv-x="1181" 
d="M-41 1434h231l396 -652h8l395 652h234l-531 -830v-604h-203v604z" />
    <glyph glyph-name="Z" unicode="Z" horiz-adv-x="1196" 
d="M111 1434h1007v-168l-835 -1090v-8h860v-168h-1090v168l834 1089v9h-776v168z" />
    <glyph glyph-name="bracketleft" unicode="[" horiz-adv-x="737" 
d="M217 1434h412v-138h-236v-1568h236v-138h-412v1844z" />
    <glyph glyph-name="backslash" unicode="\" horiz-adv-x="856" 
d="M125 1434l731 -1844h-125l-731 1844h125z" />
    <glyph glyph-name="bracketright" unicode="]" horiz-adv-x="737" 
d="M109 1434h411v-1844h-411v138h235v1568h-235v138z" />
    <glyph glyph-name="asciicircum" unicode="^" 
d="M561 436h-219v604h219q139 0 215 -75.5t76 -227.5q0 -142 -77.5 -221.5t-213.5 -79.5zM428 958v-440h133q40 0 73 10t62.5 33t46.5 68t17 108q0 69 -16.5 115.5t-47 68t-62 29.5t-73.5 8h-133zM1374 518v-82h-426v604h426v-82h-330v-159h287v-82h-287v-199h330zM1542 944
v-508h-86v604h152l153 -493h11l157 493h146v-604h-86v508h-9l-165 -508h-97l-168 508h-8zM2253 739q0 -110 55.5 -173.5t142.5 -63.5t143 63.5t56 173.5t-56 173t-143 63t-142.5 -63t-55.5 -173zM102 1262h2872v-1047h-2872v1047zM2904 285v907h-2734v-907h2734zM2740 739
q0 -150 -74 -233.5t-215 -83.5t-214.5 83.5t-73.5 233.5t73.5 233t214.5 83t215 -83t74 -233z" />
    <glyph glyph-name="underscore" unicode="_" 
d="M561 436h-219v604h219q139 0 215 -75.5t76 -227.5q0 -142 -77.5 -221.5t-213.5 -79.5zM428 958v-440h133q40 0 73 10t62.5 33t46.5 68t17 108q0 69 -16.5 115.5t-47 68t-62 29.5t-73.5 8h-133zM1374 518v-82h-426v604h426v-82h-330v-159h287v-82h-287v-199h330zM1542 944
v-508h-86v604h152l153 -493h11l157 493h146v-604h-86v508h-9l-165 -508h-97l-168 508h-8zM2253 739q0 -110 55.5 -173.5t142.5 -63.5t143 63.5t56 173.5t-56 173t-143 63t-142.5 -63t-55.5 -173zM102 1262h2872v-1047h-2872v1047zM2904 285v907h-2734v-907h2734zM2740 739
q0 -150 -74 -233.5t-215 -83.5t-214.5 83.5t-73.5 233.5t73.5 233t214.5 83t215 -83t74 -233z" />
    <glyph glyph-name="grave" unicode="`" 
d="M561 436h-219v604h219q139 0 215 -75.5t76 -227.5q0 -142 -77.5 -221.5t-213.5 -79.5zM428 958v-440h133q40 0 73 10t62.5 33t46.5 68t17 108q0 69 -16.5 115.5t-47 68t-62 29.5t-73.5 8h-133zM1374 518v-82h-426v604h426v-82h-330v-159h287v-82h-287v-199h330zM1542 944
v-508h-86v604h152l153 -493h11l157 493h146v-604h-86v508h-9l-165 -508h-97l-168 508h-8zM2253 739q0 -110 55.5 -173.5t142.5 -63.5t143 63.5t56 173.5t-56 173t-143 63t-142.5 -63t-55.5 -173zM102 1262h2872v-1047h-2872v1047zM2904 285v907h-2734v-907h2734zM2740 739
q0 -150 -74 -233.5t-215 -83.5t-214.5 83.5t-73.5 233.5t73.5 233t214.5 83t215 -83t74 -233z" />
    <glyph glyph-name="a" unicode="a" horiz-adv-x="1128" 
d="M504 131q149 0 260 121v211q-118 33 -250 33q-105 0 -178.5 -44t-73.5 -135q0 -186 242 -186zM494 -20q-95 0 -169 19.5t-120 51t-76 76.5t-41.5 91t-11.5 99q0 113 61.5 188.5t163.5 108.5t240 33q91 0 223 -26v98q0 47 -16.5 83t-40.5 55.5t-56.5 32t-58 16t-51.5 3.5
q-97 0 -158.5 -38t-103.5 -121l-156 75q32 59 66 99.5t82.5 73t115 48t154.5 15.5q99 0 174.5 -24t118.5 -60t70.5 -85t36.5 -92t9 -89v-533q0 -47 47 -47q16 0 32.5 5.5t24.5 11.5l9 6v-136q-71 -28 -129 -28q-49 0 -93.5 24t-62.5 66h-8q-127 -100 -276 -100z" />
    <glyph glyph-name="b" unicode="b" horiz-adv-x="1179" 
d="M598 909q-86 0 -154 -46.5t-110 -119.5v-469q42 -60 115.5 -101.5t148.5 -41.5q151 0 229 101.5t78 287.5q0 185 -78.5 287t-228.5 102zM285 0h-138v1434h187v-486h8q48 50 118 81.5t146 31.5q126 0 221 -41t152 -115t85 -170.5t28 -214.5t-28 -214t-85.5 -170.5
t-154.5 -115t-226 -40.5q-71 0 -145 31.5t-119 78.5h-8z" />
    <glyph glyph-name="c" unicode="c" horiz-adv-x="1073" 
d="M590 909q-153 0 -234.5 -102t-81.5 -287t81.5 -287t234.5 -102q100 0 161 40.5t105 129.5l143 -80q-59 -124 -157 -182.5t-252 -58.5q-129 0 -227 40.5t-157.5 114.5t-88.5 170.5t-29 214.5t29 214.5t88.5 170.5t157.5 115t227 41q154 0 252 -59t157 -183l-143 -80
q-44 89 -105 129.5t-161 40.5z" />
    <glyph glyph-name="d" unicode="d" horiz-adv-x="1179" 
d="M582 909q-150 0 -229 -102t-79 -287q0 -186 78 -287.5t230 -101.5q75 0 148.5 41.5t115.5 101.5v469q-42 73 -110 119.5t-154 46.5zM1032 0h-137l-41 90h-8q-45 -47 -119 -78.5t-145 -31.5q-129 0 -226 40.5t-154.5 115t-85.5 170.5t-28 214t27.5 214.5t84.5 170.5
t152 115t221 41q76 0 148.5 -33t116.5 -80h8v486h186v-1434z" />
    <glyph glyph-name="e" unicode="e" horiz-adv-x="1155" 
d="M592 909q-137 0 -219 -75t-99 -216h607q-6 141 -79 216t-210 75zM1067 469h-793q10 -160 102.5 -249t237.5 -89q200 0 283 170l143 -80q-115 -241 -426 -241q-130 0 -231 41t-165 114t-97 170.5t-33 214.5q0 118 29 214.5t88 170.5t157.5 115t229.5 41q130 0 224.5 -41.5
t148 -117t78 -170t24.5 -212.5v-51z" />
    <glyph glyph-name="f" unicode="f" horiz-adv-x="630" 
d="M604 1434v-140q-69 19 -117 19q-43 0 -70.5 -24.5t-27.5 -67.5v-181h215v-151h-215v-889h-186v889h-176v151h176v146q0 140 61.5 204t190.5 64q67 0 149 -20z" />
    <glyph glyph-name="g" unicode="g" horiz-adv-x="1179" 
d="M846 274v451q-40 81 -108 132.5t-156 51.5q-308 0 -308 -362q0 -187 78.5 -291t229.5 -104q79 0 149 33t115 89zM166 -238l121 103q96 -144 274 -144q81 0 139.5 29t88.5 78.5t43.5 102t13.5 112.5v63h-8q-50 -47 -119.5 -76.5t-147.5 -29.5q-129 0 -224 41.5
t-150.5 117.5t-82 172.5t-26.5 215.5q0 239 116.5 376.5t356.5 137.5q93 0 167 -36t118 -95h8l41 110h137v-987q0 -71 -12.5 -135t-45.5 -129t-84 -112.5t-135.5 -77t-193.5 -29.5q-258 0 -395 192z" />
    <glyph glyph-name="h" unicode="h" horiz-adv-x="1144" 
d="M600 909q-87 0 -155.5 -47t-110.5 -119v-743h-187v1434h187v-486h8q110 113 266 113q95 0 168 -27t113.5 -67.5t66 -94.5t33.5 -99t8 -91v-682h-186v633q0 57 -10 103.5t-33 87t-65.5 63t-102.5 22.5z" />
    <glyph glyph-name="i" unicode="i" horiz-adv-x="473" 
d="M143 1040h187v-1040h-187v1040zM113 1317q0 48 35.5 82.5t87.5 34.5q51 0 86.5 -34.5t35.5 -82.5q0 -49 -35.5 -83t-86.5 -34q-52 0 -87.5 33.5t-35.5 83.5z" />
    <glyph glyph-name="j" unicode="j" horiz-adv-x="473" 
d="M143 -207v1247h187v-1214q0 -137 -54.5 -196.5t-164.5 -59.5q-77 0 -146 27v145q50 -31 107 -31q71 0 71 82zM113 1317q0 48 35.5 82.5t87.5 34.5q51 0 86.5 -34.5t35.5 -82.5q0 -49 -35.5 -83t-86.5 -34q-52 0 -87.5 33.5t-35.5 83.5z" />
    <glyph glyph-name="k" unicode="k" horiz-adv-x="1040" 
d="M582 627l458 -627h-217l-368 514l-121 -113v-401h-187v1434h187v-832h8l455 438h225z" />
    <glyph glyph-name="l" unicode="l" horiz-adv-x="522" 
d="M334 1434v-1229q0 -74 67 -74q35 0 80 23v-136q-66 -28 -141 -28q-105 0 -149 52.5t-44 158.5v1233h187z" />
    <glyph glyph-name="m" unicode="m" horiz-adv-x="1693" 
d="M582 909q-130 0 -248 -153v-756h-187v1040h138l41 -110h8q48 56 114 93.5t140 37.5q110 0 177.5 -38.5t113.5 -113.5q121 152 311 152q356 0 356 -371v-690h-186v672q0 237 -178 237q-147 0 -244 -135v-774h-186v729q0 77 -44 128.5t-126 51.5z" />
    <glyph glyph-name="n" unicode="n" horiz-adv-x="1140" 
d="M610 1061q90 0 159 -24t110.5 -62.5t68 -92.5t36 -107t9.5 -113v-662h-186v645q0 128 -47.5 196t-157.5 68q-86 0 -155 -52t-113 -132v-725h-187v1040h146l41 -110h8q52 60 123 95.5t145 35.5z" />
    <glyph glyph-name="o" unicode="o" horiz-adv-x="1189" 
d="M915 520q0 184 -83 286.5t-236 102.5t-237.5 -102.5t-84.5 -286.5t84.5 -286.5t237.5 -102.5t236 102.5t83 286.5zM1102 520q0 -118 -29 -214.5t-88 -170.5t-158 -114.5t-231 -40.5q-133 0 -232.5 40.5t-159 115t-88 170.5t-28.5 214t28.5 214.5t88 170.5t159 115
t232.5 41q132 0 231 -41t158 -115t88 -170.5t29 -214.5z" />
    <glyph glyph-name="p" unicode="p" horiz-adv-x="1183" 
d="M600 909q-79 0 -151.5 -46t-114.5 -115v-482q44 -59 116.5 -97t149.5 -38q152 0 230.5 101.5t78.5 287.5t-78.5 287.5t-230.5 101.5zM600 -20q-161 0 -258 94h-8v-484h-187v1450h138l41 -108h8q49 57 122 93t158 36q104 0 186 -27t137 -74.5t91 -116.5t52 -148.5
t16 -174.5q0 -118 -28.5 -214.5t-86.5 -170.5t-155 -114.5t-226 -40.5z" />
    <glyph glyph-name="q" unicode="q" horiz-adv-x="1183" 
d="M584 909q-152 0 -231 -102t-79 -287t79 -287t231 -102q77 0 149.5 38t116.5 97v500q-41 64 -112.5 103.5t-153.5 39.5zM584 -20q-129 0 -226 40.5t-155 114.5t-86.5 170.5t-28.5 214.5t27.5 214.5t84.5 170.5t152 115t221 41q174 0 277 -111h8l41 90h137v-1450h-186v484
h-8q-97 -94 -258 -94z" />
    <glyph glyph-name="r" unicode="r" horiz-adv-x="755" 
d="M729 893h-14q-116 0 -215 -59.5t-166 -157.5v-676h-187v1040h138l41 -196h8q62 83 165.5 150t211.5 67h18v-168z" />
    <glyph glyph-name="s" unicode="s" horiz-adv-x="980" 
d="M485 909q-200 0 -200 -123q0 -35 14 -60.5t41 -41.5t51 -24.5t60 -16.5l131 -31q83 -19 138.5 -42t100.5 -59.5t66.5 -92.5t21.5 -133q0 -141 -104 -223t-320 -82q-304 0 -413 237l161 80q33 -76 96.5 -121t155.5 -45q116 0 177 41t61 113q0 116 -193 164l-112 26
q-59 14 -96.5 26t-84.5 36t-74 54.5t-46 80t-19 114.5q0 133 99.5 204t287.5 71q302 0 408 -232l-166 -79q-66 159 -242 159z" />
    <glyph glyph-name="t" unicode="t" horiz-adv-x="655" 
d="M27 1040h67q59 0 94 34t35 93v199h176v-326h215v-151h-215v-664q0 -46 29.5 -70t71.5 -24q50 0 114 25v-138q-86 -28 -157 -28q-56 0 -97.5 10t-76 35t-52.5 73.5t-18 120.5v660h-186v151z" />
    <glyph glyph-name="u" unicode="u" horiz-adv-x="1175" 
d="M891 0l-41 109h-8q-125 -129 -305 -129q-100 0 -176 29.5t-122 82.5t-69 121.5t-23 151.5v675h187v-663q0 -115 57 -180.5t164 -65.5q82 0 162.5 48t124.5 118v743h186v-1040h-137z" />
    <glyph glyph-name="v" unicode="v" horiz-adv-x="974" 
d="M975 1040l-383 -1040h-209l-383 1040h203l280 -831h9l280 831h203z" />
    <glyph glyph-name="w" unicode="w" horiz-adv-x="1458" 
d="M637 1040h184l213 -813h8l220 813h196l-315 -1040h-199l-211 813h-8l-211 -813h-199l-315 1040h197l219 -813h8z" />
    <glyph glyph-name="x" unicode="x" horiz-adv-x="995" 
d="M502 666l252 374h213l-357 -497l385 -543h-217l-276 418h-8l-277 -418h-217l385 543l-356 497h213l252 -374h8z" />
    <glyph glyph-name="y" unicode="y" horiz-adv-x="997" 
d="M442 0h-36l-392 1040h203l301 -823h17l262 823h200l-501 -1450h-197z" />
    <glyph glyph-name="z" unicode="z" horiz-adv-x="946" 
d="M53 152l600 729v8h-563v151h774v-151l-602 -729v-8h631v-152h-840v152z" />
    <glyph glyph-name="braceleft" unicode="{" horiz-adv-x="847" 
d="M520 283v-353q0 -116 47.5 -166.5t177.5 -50.5v-123q-216 0 -308.5 94t-92.5 265v323q0 102 -36 151.5t-132 49.5h-22v135h22q96 0 132 51t36 156v260q0 171 92.5 265t308.5 94v-123q-130 0 -177.5 -50.5t-47.5 -166.5v-283q0 -101 -42 -170.5t-116 -89.5v-8
q74 -20 116 -89.5t42 -170.5z" />
    <glyph glyph-name="bar" unicode="|" 
d="M561 436h-219v604h219q139 0 215 -75.5t76 -227.5q0 -142 -77.5 -221.5t-213.5 -79.5zM428 958v-440h133q40 0 73 10t62.5 33t46.5 68t17 108q0 69 -16.5 115.5t-47 68t-62 29.5t-73.5 8h-133zM1374 518v-82h-426v604h426v-82h-330v-159h287v-82h-287v-199h330zM1542 944
v-508h-86v604h152l153 -493h11l157 493h146v-604h-86v508h-9l-165 -508h-97l-168 508h-8zM2253 739q0 -110 55.5 -173.5t142.5 -63.5t143 63.5t56 173.5t-56 173t-143 63t-142.5 -63t-55.5 -173zM102 1262h2872v-1047h-2872v1047zM2904 285v907h-2734v-907h2734zM2740 739
q0 -150 -74 -233.5t-215 -83.5t-214.5 83.5t-73.5 233.5t73.5 233t214.5 83t215 -83t74 -233z" />
    <glyph glyph-name="braceright" unicode="}" horiz-adv-x="847" 
d="M328 -70v353q0 101 42 170.5t115 89.5v8q-73 20 -115 89.5t-42 170.5v283q0 116 -48 166.5t-178 50.5v123q216 0 309 -94t93 -265v-260q0 -105 36 -156t132 -51h22v-135h-22q-96 0 -132 -49.5t-36 -151.5v-323q0 -171 -93 -265t-309 -94v123q130 0 178 50.5t48 166.5z
" />
    <glyph glyph-name="asciitilde" unicode="~" 
d="M561 436h-219v604h219q139 0 215 -75.5t76 -227.5q0 -142 -77.5 -221.5t-213.5 -79.5zM428 958v-440h133q40 0 73 10t62.5 33t46.5 68t17 108q0 69 -16.5 115.5t-47 68t-62 29.5t-73.5 8h-133zM1374 518v-82h-426v604h426v-82h-330v-159h287v-82h-287v-199h330zM1542 944
v-508h-86v604h152l153 -493h11l157 493h146v-604h-86v508h-9l-165 -508h-97l-168 508h-8zM2253 739q0 -110 55.5 -173.5t142.5 -63.5t143 63.5t56 173.5t-56 173t-143 63t-142.5 -63t-55.5 -173zM102 1262h2872v-1047h-2872v1047zM2904 285v907h-2734v-907h2734zM2740 739
q0 -150 -74 -233.5t-215 -83.5t-214.5 83.5t-73.5 233.5t73.5 233t214.5 83t215 -83t74 -233z" />
    <glyph glyph-name="uni00A0" unicode="&#xa0;" horiz-adv-x="481" 
 />
    <glyph glyph-name="exclamdown" unicode="&#xa1;" 
d="M561 436h-219v604h219q139 0 215 -75.5t76 -227.5q0 -142 -77.5 -221.5t-213.5 -79.5zM428 958v-440h133q40 0 73 10t62.5 33t46.5 68t17 108q0 69 -16.5 115.5t-47 68t-62 29.5t-73.5 8h-133zM1374 518v-82h-426v604h426v-82h-330v-159h287v-82h-287v-199h330zM1542 944
v-508h-86v604h152l153 -493h11l157 493h146v-604h-86v508h-9l-165 -508h-97l-168 508h-8zM2253 739q0 -110 55.5 -173.5t142.5 -63.5t143 63.5t56 173.5t-56 173t-143 63t-142.5 -63t-55.5 -173zM102 1262h2872v-1047h-2872v1047zM2904 285v907h-2734v-907h2734zM2740 739
q0 -150 -74 -233.5t-215 -83.5t-214.5 83.5t-73.5 233.5t73.5 233t214.5 83t215 -83t74 -233z" />
    <glyph glyph-name="cent" unicode="&#xa2;" horiz-adv-x="1228" 
d="M584 1061v174h106v-174q291 -9 404 -242l-144 -90q-82 169 -260 178v-776q175 12 254 174l150 -84q-111 -232 -404 -241v-187h-106v187q-112 10 -198 55.5t-138.5 119t-78.5 165.5t-26 200q0 225 108.5 371t332.5 170zM330 520q0 -160 66 -263t188 -126v774
q-125 -26 -189.5 -126t-64.5 -259z" />
    <glyph glyph-name="sterling" unicode="&#xa3;" horiz-adv-x="1228" 
d="M1008 739v-123h-549v-448h661v-168h-1011v168h147v448h-147v123h147v234q0 481 455 481q131 0 233.5 -57t163.5 -152l-166 -117q-41 78 -102.5 118t-128.5 40q-252 0 -252 -325v-222h549z" />
    <glyph glyph-name="currency" unicode="&#xa4;" 
d="M561 436h-219v604h219q139 0 215 -75.5t76 -227.5q0 -142 -77.5 -221.5t-213.5 -79.5zM428 958v-440h133q40 0 73 10t62.5 33t46.5 68t17 108q0 69 -16.5 115.5t-47 68t-62 29.5t-73.5 8h-133zM1374 518v-82h-426v604h426v-82h-330v-159h287v-82h-287v-199h330zM1542 944
v-508h-86v604h152l153 -493h11l157 493h146v-604h-86v508h-9l-165 -508h-97l-168 508h-8zM2253 739q0 -110 55.5 -173.5t142.5 -63.5t143 63.5t56 173.5t-56 173t-143 63t-142.5 -63t-55.5 -173zM102 1262h2872v-1047h-2872v1047zM2904 285v907h-2734v-907h2734zM2740 739
q0 -150 -74 -233.5t-215 -83.5t-214.5 83.5t-73.5 233.5t73.5 233t214.5 83t215 -83t74 -233z" />
    <glyph glyph-name="yen" unicode="&#xa5;" horiz-adv-x="1228" 
d="M0 1434h231l379 -652h8l377 652h234l-432 -695h286v-123h-358l-8 -12v-133h366v-123h-366v-348h-203v348h-369v123h369v133l-8 12h-361v123h287z" />
    <glyph glyph-name="brokenbar" unicode="&#xa6;" 
d="M561 436h-219v604h219q139 0 215 -75.5t76 -227.5q0 -142 -77.5 -221.5t-213.5 -79.5zM428 958v-440h133q40 0 73 10t62.5 33t46.5 68t17 108q0 69 -16.5 115.5t-47 68t-62 29.5t-73.5 8h-133zM1374 518v-82h-426v604h426v-82h-330v-159h287v-82h-287v-199h330zM1542 944
v-508h-86v604h152l153 -493h11l157 493h146v-604h-86v508h-9l-165 -508h-97l-168 508h-8zM2253 739q0 -110 55.5 -173.5t142.5 -63.5t143 63.5t56 173.5t-56 173t-143 63t-142.5 -63t-55.5 -173zM102 1262h2872v-1047h-2872v1047zM2904 285v907h-2734v-907h2734zM2740 739
q0 -150 -74 -233.5t-215 -83.5t-214.5 83.5t-73.5 233.5t73.5 233t214.5 83t215 -83t74 -233z" />
    <glyph glyph-name="section" unicode="&#xa7;" 
d="M561 436h-219v604h219q139 0 215 -75.5t76 -227.5q0 -142 -77.5 -221.5t-213.5 -79.5zM428 958v-440h133q40 0 73 10t62.5 33t46.5 68t17 108q0 69 -16.5 115.5t-47 68t-62 29.5t-73.5 8h-133zM1374 518v-82h-426v604h426v-82h-330v-159h287v-82h-287v-199h330zM1542 944
v-508h-86v604h152l153 -493h11l157 493h146v-604h-86v508h-9l-165 -508h-97l-168 508h-8zM2253 739q0 -110 55.5 -173.5t142.5 -63.5t143 63.5t56 173.5t-56 173t-143 63t-142.5 -63t-55.5 -173zM102 1262h2872v-1047h-2872v1047zM2904 285v907h-2734v-907h2734zM2740 739
q0 -150 -74 -233.5t-215 -83.5t-214.5 83.5t-73.5 233.5t73.5 233t214.5 83t215 -83t74 -233z" />
    <glyph glyph-name="dieresis" unicode="&#xa8;" 
d="M561 436h-219v604h219q139 0 215 -75.5t76 -227.5q0 -142 -77.5 -221.5t-213.5 -79.5zM428 958v-440h133q40 0 73 10t62.5 33t46.5 68t17 108q0 69 -16.5 115.5t-47 68t-62 29.5t-73.5 8h-133zM1374 518v-82h-426v604h426v-82h-330v-159h287v-82h-287v-199h330zM1542 944
v-508h-86v604h152l153 -493h11l157 493h146v-604h-86v508h-9l-165 -508h-97l-168 508h-8zM2253 739q0 -110 55.5 -173.5t142.5 -63.5t143 63.5t56 173.5t-56 173t-143 63t-142.5 -63t-55.5 -173zM102 1262h2872v-1047h-2872v1047zM2904 285v907h-2734v-907h2734zM2740 739
q0 -150 -74 -233.5t-215 -83.5t-214.5 83.5t-73.5 233.5t73.5 233t214.5 83t215 -83t74 -233z" />
    <glyph glyph-name="copyright" unicode="&#xa9;" 
d="M561 436h-219v604h219q139 0 215 -75.5t76 -227.5q0 -142 -77.5 -221.5t-213.5 -79.5zM428 958v-440h133q40 0 73 10t62.5 33t46.5 68t17 108q0 69 -16.5 115.5t-47 68t-62 29.5t-73.5 8h-133zM1374 518v-82h-426v604h426v-82h-330v-159h287v-82h-287v-199h330zM1542 944
v-508h-86v604h152l153 -493h11l157 493h146v-604h-86v508h-9l-165 -508h-97l-168 508h-8zM2253 739q0 -110 55.5 -173.5t142.5 -63.5t143 63.5t56 173.5t-56 173t-143 63t-142.5 -63t-55.5 -173zM102 1262h2872v-1047h-2872v1047zM2904 285v907h-2734v-907h2734zM2740 739
q0 -150 -74 -233.5t-215 -83.5t-214.5 83.5t-73.5 233.5t73.5 233t214.5 83t215 -83t74 -233z" />
    <glyph glyph-name="ordfeminine" unicode="&#xaa;" 
d="M561 436h-219v604h219q139 0 215 -75.5t76 -227.5q0 -142 -77.5 -221.5t-213.5 -79.5zM428 958v-440h133q40 0 73 10t62.5 33t46.5 68t17 108q0 69 -16.5 115.5t-47 68t-62 29.5t-73.5 8h-133zM1374 518v-82h-426v604h426v-82h-330v-159h287v-82h-287v-199h330zM1542 944
v-508h-86v604h152l153 -493h11l157 493h146v-604h-86v508h-9l-165 -508h-97l-168 508h-8zM2253 739q0 -110 55.5 -173.5t142.5 -63.5t143 63.5t56 173.5t-56 173t-143 63t-142.5 -63t-55.5 -173zM102 1262h2872v-1047h-2872v1047zM2904 285v907h-2734v-907h2734zM2740 739
q0 -150 -74 -233.5t-215 -83.5t-214.5 83.5t-73.5 233.5t73.5 233t214.5 83t215 -83t74 -233z" />
    <glyph glyph-name="guillemotleft" unicode="&#xab;" horiz-adv-x="980" 
d="M467 236l-340 278v86l340 279v-164l-238 -158l238 -149v-172zM827 236l-340 278v86l340 279v-164l-237 -158l237 -149v-172z" />
    <glyph glyph-name="logicalnot" unicode="&#xac;" 
d="M561 436h-219v604h219q139 0 215 -75.5t76 -227.5q0 -142 -77.5 -221.5t-213.5 -79.5zM428 958v-440h133q40 0 73 10t62.5 33t46.5 68t17 108q0 69 -16.5 115.5t-47 68t-62 29.5t-73.5 8h-133zM1374 518v-82h-426v604h426v-82h-330v-159h287v-82h-287v-199h330zM1542 944
v-508h-86v604h152l153 -493h11l157 493h146v-604h-86v508h-9l-165 -508h-97l-168 508h-8zM2253 739q0 -110 55.5 -173.5t142.5 -63.5t143 63.5t56 173.5t-56 173t-143 63t-142.5 -63t-55.5 -173zM102 1262h2872v-1047h-2872v1047zM2904 285v907h-2734v-907h2734zM2740 739
q0 -150 -74 -233.5t-215 -83.5t-214.5 83.5t-73.5 233.5t73.5 233t214.5 83t215 -83t74 -233z" />
    <glyph glyph-name="uni00AD" unicode="&#xad;" 
d="M561 436h-219v604h219q139 0 215 -75.5t76 -227.5q0 -142 -77.5 -221.5t-213.5 -79.5zM428 958v-440h133q40 0 73 10t62.5 33t46.5 68t17 108q0 69 -16.5 115.5t-47 68t-62 29.5t-73.5 8h-133zM1374 518v-82h-426v604h426v-82h-330v-159h287v-82h-287v-199h330zM1542 944
v-508h-86v604h152l153 -493h11l157 493h146v-604h-86v508h-9l-165 -508h-97l-168 508h-8zM2253 739q0 -110 55.5 -173.5t142.5 -63.5t143 63.5t56 173.5t-56 173t-143 63t-142.5 -63t-55.5 -173zM102 1262h2872v-1047h-2872v1047zM2904 285v907h-2734v-907h2734zM2740 739
q0 -150 -74 -233.5t-215 -83.5t-214.5 83.5t-73.5 233.5t73.5 233t214.5 83t215 -83t74 -233z" />
    <glyph glyph-name="registered" unicode="&#xae;" 
d="M561 436h-219v604h219q139 0 215 -75.5t76 -227.5q0 -142 -77.5 -221.5t-213.5 -79.5zM428 958v-440h133q40 0 73 10t62.5 33t46.5 68t17 108q0 69 -16.5 115.5t-47 68t-62 29.5t-73.5 8h-133zM1374 518v-82h-426v604h426v-82h-330v-159h287v-82h-287v-199h330zM1542 944
v-508h-86v604h152l153 -493h11l157 493h146v-604h-86v508h-9l-165 -508h-97l-168 508h-8zM2253 739q0 -110 55.5 -173.5t142.5 -63.5t143 63.5t56 173.5t-56 173t-143 63t-142.5 -63t-55.5 -173zM102 1262h2872v-1047h-2872v1047zM2904 285v907h-2734v-907h2734zM2740 739
q0 -150 -74 -233.5t-215 -83.5t-214.5 83.5t-73.5 233.5t73.5 233t214.5 83t215 -83t74 -233z" />
    <glyph glyph-name="macron" unicode="&#xaf;" 
d="M561 436h-219v604h219q139 0 215 -75.5t76 -227.5q0 -142 -77.5 -221.5t-213.5 -79.5zM428 958v-440h133q40 0 73 10t62.5 33t46.5 68t17 108q0 69 -16.5 115.5t-47 68t-62 29.5t-73.5 8h-133zM1374 518v-82h-426v604h426v-82h-330v-159h287v-82h-287v-199h330zM1542 944
v-508h-86v604h152l153 -493h11l157 493h146v-604h-86v508h-9l-165 -508h-97l-168 508h-8zM2253 739q0 -110 55.5 -173.5t142.5 -63.5t143 63.5t56 173.5t-56 173t-143 63t-142.5 -63t-55.5 -173zM102 1262h2872v-1047h-2872v1047zM2904 285v907h-2734v-907h2734zM2740 739
q0 -150 -74 -233.5t-215 -83.5t-214.5 83.5t-73.5 233.5t73.5 233t214.5 83t215 -83t74 -233z" />
    <glyph glyph-name="degree" unicode="&#xb0;" 
d="M561 436h-219v604h219q139 0 215 -75.5t76 -227.5q0 -142 -77.5 -221.5t-213.5 -79.5zM428 958v-440h133q40 0 73 10t62.5 33t46.5 68t17 108q0 69 -16.5 115.5t-47 68t-62 29.5t-73.5 8h-133zM1374 518v-82h-426v604h426v-82h-330v-159h287v-82h-287v-199h330zM1542 944
v-508h-86v604h152l153 -493h11l157 493h146v-604h-86v508h-9l-165 -508h-97l-168 508h-8zM2253 739q0 -110 55.5 -173.5t142.5 -63.5t143 63.5t56 173.5t-56 173t-143 63t-142.5 -63t-55.5 -173zM102 1262h2872v-1047h-2872v1047zM2904 285v907h-2734v-907h2734zM2740 739
q0 -150 -74 -233.5t-215 -83.5t-214.5 83.5t-73.5 233.5t73.5 233t214.5 83t215 -83t74 -233z" />
    <glyph glyph-name="plusminus" unicode="&#xb1;" 
d="M561 436h-219v604h219q139 0 215 -75.5t76 -227.5q0 -142 -77.5 -221.5t-213.5 -79.5zM428 958v-440h133q40 0 73 10t62.5 33t46.5 68t17 108q0 69 -16.5 115.5t-47 68t-62 29.5t-73.5 8h-133zM1374 518v-82h-426v604h426v-82h-330v-159h287v-82h-287v-199h330zM1542 944
v-508h-86v604h152l153 -493h11l157 493h146v-604h-86v508h-9l-165 -508h-97l-168 508h-8zM2253 739q0 -110 55.5 -173.5t142.5 -63.5t143 63.5t56 173.5t-56 173t-143 63t-142.5 -63t-55.5 -173zM102 1262h2872v-1047h-2872v1047zM2904 285v907h-2734v-907h2734zM2740 739
q0 -150 -74 -233.5t-215 -83.5t-214.5 83.5t-73.5 233.5t73.5 233t214.5 83t215 -83t74 -233z" />
    <glyph glyph-name="twosuperior" unicode="&#xb2;" 
d="M561 436h-219v604h219q139 0 215 -75.5t76 -227.5q0 -142 -77.5 -221.5t-213.5 -79.5zM428 958v-440h133q40 0 73 10t62.5 33t46.5 68t17 108q0 69 -16.5 115.5t-47 68t-62 29.5t-73.5 8h-133zM1374 518v-82h-426v604h426v-82h-330v-159h287v-82h-287v-199h330zM1542 944
v-508h-86v604h152l153 -493h11l157 493h146v-604h-86v508h-9l-165 -508h-97l-168 508h-8zM2253 739q0 -110 55.5 -173.5t142.5 -63.5t143 63.5t56 173.5t-56 173t-143 63t-142.5 -63t-55.5 -173zM102 1262h2872v-1047h-2872v1047zM2904 285v907h-2734v-907h2734zM2740 739
q0 -150 -74 -233.5t-215 -83.5t-214.5 83.5t-73.5 233.5t73.5 233t214.5 83t215 -83t74 -233z" />
    <glyph glyph-name="threesuperior" unicode="&#xb3;" 
d="M561 436h-219v604h219q139 0 215 -75.5t76 -227.5q0 -142 -77.5 -221.5t-213.5 -79.5zM428 958v-440h133q40 0 73 10t62.5 33t46.5 68t17 108q0 69 -16.5 115.5t-47 68t-62 29.5t-73.5 8h-133zM1374 518v-82h-426v604h426v-82h-330v-159h287v-82h-287v-199h330zM1542 944
v-508h-86v604h152l153 -493h11l157 493h146v-604h-86v508h-9l-165 -508h-97l-168 508h-8zM2253 739q0 -110 55.5 -173.5t142.5 -63.5t143 63.5t56 173.5t-56 173t-143 63t-142.5 -63t-55.5 -173zM102 1262h2872v-1047h-2872v1047zM2904 285v907h-2734v-907h2734zM2740 739
q0 -150 -74 -233.5t-215 -83.5t-214.5 83.5t-73.5 233.5t73.5 233t214.5 83t215 -83t74 -233z" />
    <glyph glyph-name="acute" unicode="&#xb4;" 
d="M561 436h-219v604h219q139 0 215 -75.5t76 -227.5q0 -142 -77.5 -221.5t-213.5 -79.5zM428 958v-440h133q40 0 73 10t62.5 33t46.5 68t17 108q0 69 -16.5 115.5t-47 68t-62 29.5t-73.5 8h-133zM1374 518v-82h-426v604h426v-82h-330v-159h287v-82h-287v-199h330zM1542 944
v-508h-86v604h152l153 -493h11l157 493h146v-604h-86v508h-9l-165 -508h-97l-168 508h-8zM2253 739q0 -110 55.5 -173.5t142.5 -63.5t143 63.5t56 173.5t-56 173t-143 63t-142.5 -63t-55.5 -173zM102 1262h2872v-1047h-2872v1047zM2904 285v907h-2734v-907h2734zM2740 739
q0 -150 -74 -233.5t-215 -83.5t-214.5 83.5t-73.5 233.5t73.5 233t214.5 83t215 -83t74 -233z" />
    <glyph glyph-name="mu" unicode="&#xb5;" 
d="M561 436h-219v604h219q139 0 215 -75.5t76 -227.5q0 -142 -77.5 -221.5t-213.5 -79.5zM428 958v-440h133q40 0 73 10t62.5 33t46.5 68t17 108q0 69 -16.5 115.5t-47 68t-62 29.5t-73.5 8h-133zM1374 518v-82h-426v604h426v-82h-330v-159h287v-82h-287v-199h330zM1542 944
v-508h-86v604h152l153 -493h11l157 493h146v-604h-86v508h-9l-165 -508h-97l-168 508h-8zM2253 739q0 -110 55.5 -173.5t142.5 -63.5t143 63.5t56 173.5t-56 173t-143 63t-142.5 -63t-55.5 -173zM102 1262h2872v-1047h-2872v1047zM2904 285v907h-2734v-907h2734zM2740 739
q0 -150 -74 -233.5t-215 -83.5t-214.5 83.5t-73.5 233.5t73.5 233t214.5 83t215 -83t74 -233z" />
    <glyph glyph-name="paragraph" unicode="&#xb6;" 
d="M561 436h-219v604h219q139 0 215 -75.5t76 -227.5q0 -142 -77.5 -221.5t-213.5 -79.5zM428 958v-440h133q40 0 73 10t62.5 33t46.5 68t17 108q0 69 -16.5 115.5t-47 68t-62 29.5t-73.5 8h-133zM1374 518v-82h-426v604h426v-82h-330v-159h287v-82h-287v-199h330zM1542 944
v-508h-86v604h152l153 -493h11l157 493h146v-604h-86v508h-9l-165 -508h-97l-168 508h-8zM2253 739q0 -110 55.5 -173.5t142.5 -63.5t143 63.5t56 173.5t-56 173t-143 63t-142.5 -63t-55.5 -173zM102 1262h2872v-1047h-2872v1047zM2904 285v907h-2734v-907h2734zM2740 739
q0 -150 -74 -233.5t-215 -83.5t-214.5 83.5t-73.5 233.5t73.5 233t214.5 83t215 -83t74 -233z" />
    <glyph glyph-name="periodcentered" unicode="&#xb7;" 
d="M561 436h-219v604h219q139 0 215 -75.5t76 -227.5q0 -142 -77.5 -221.5t-213.5 -79.5zM428 958v-440h133q40 0 73 10t62.5 33t46.5 68t17 108q0 69 -16.5 115.5t-47 68t-62 29.5t-73.5 8h-133zM1374 518v-82h-426v604h426v-82h-330v-159h287v-82h-287v-199h330zM1542 944
v-508h-86v604h152l153 -493h11l157 493h146v-604h-86v508h-9l-165 -508h-97l-168 508h-8zM2253 739q0 -110 55.5 -173.5t142.5 -63.5t143 63.5t56 173.5t-56 173t-143 63t-142.5 -63t-55.5 -173zM102 1262h2872v-1047h-2872v1047zM2904 285v907h-2734v-907h2734zM2740 739
q0 -150 -74 -233.5t-215 -83.5t-214.5 83.5t-73.5 233.5t73.5 233t214.5 83t215 -83t74 -233z" />
    <glyph glyph-name="cedilla" unicode="&#xb8;" 
d="M561 436h-219v604h219q139 0 215 -75.5t76 -227.5q0 -142 -77.5 -221.5t-213.5 -79.5zM428 958v-440h133q40 0 73 10t62.5 33t46.5 68t17 108q0 69 -16.5 115.5t-47 68t-62 29.5t-73.5 8h-133zM1374 518v-82h-426v604h426v-82h-330v-159h287v-82h-287v-199h330zM1542 944
v-508h-86v604h152l153 -493h11l157 493h146v-604h-86v508h-9l-165 -508h-97l-168 508h-8zM2253 739q0 -110 55.5 -173.5t142.5 -63.5t143 63.5t56 173.5t-56 173t-143 63t-142.5 -63t-55.5 -173zM102 1262h2872v-1047h-2872v1047zM2904 285v907h-2734v-907h2734zM2740 739
q0 -150 -74 -233.5t-215 -83.5t-214.5 83.5t-73.5 233.5t73.5 233t214.5 83t215 -83t74 -233z" />
    <glyph glyph-name="onesuperior" unicode="&#xb9;" 
d="M561 436h-219v604h219q139 0 215 -75.5t76 -227.5q0 -142 -77.5 -221.5t-213.5 -79.5zM428 958v-440h133q40 0 73 10t62.5 33t46.5 68t17 108q0 69 -16.5 115.5t-47 68t-62 29.5t-73.5 8h-133zM1374 518v-82h-426v604h426v-82h-330v-159h287v-82h-287v-199h330zM1542 944
v-508h-86v604h152l153 -493h11l157 493h146v-604h-86v508h-9l-165 -508h-97l-168 508h-8zM2253 739q0 -110 55.5 -173.5t142.5 -63.5t143 63.5t56 173.5t-56 173t-143 63t-142.5 -63t-55.5 -173zM102 1262h2872v-1047h-2872v1047zM2904 285v907h-2734v-907h2734zM2740 739
q0 -150 -74 -233.5t-215 -83.5t-214.5 83.5t-73.5 233.5t73.5 233t214.5 83t215 -83t74 -233z" />
    <glyph glyph-name="ordmasculine" unicode="&#xba;" 
d="M561 436h-219v604h219q139 0 215 -75.5t76 -227.5q0 -142 -77.5 -221.5t-213.5 -79.5zM428 958v-440h133q40 0 73 10t62.5 33t46.5 68t17 108q0 69 -16.5 115.5t-47 68t-62 29.5t-73.5 8h-133zM1374 518v-82h-426v604h426v-82h-330v-159h287v-82h-287v-199h330zM1542 944
v-508h-86v604h152l153 -493h11l157 493h146v-604h-86v508h-9l-165 -508h-97l-168 508h-8zM2253 739q0 -110 55.5 -173.5t142.5 -63.5t143 63.5t56 173.5t-56 173t-143 63t-142.5 -63t-55.5 -173zM102 1262h2872v-1047h-2872v1047zM2904 285v907h-2734v-907h2734zM2740 739
q0 -150 -74 -233.5t-215 -83.5t-214.5 83.5t-73.5 233.5t73.5 233t214.5 83t215 -83t74 -233z" />
    <glyph glyph-name="guillemotright" unicode="&#xbb;" horiz-adv-x="980" 
d="M854 514l-340 -278v172l238 149l-238 158v164l340 -279v-86zM494 514l-340 -278v172l237 149l-237 158v164l340 -279v-86z" />
    <glyph glyph-name="onequarter" unicode="&#xbc;" 
d="M561 436h-219v604h219q139 0 215 -75.5t76 -227.5q0 -142 -77.5 -221.5t-213.5 -79.5zM428 958v-440h133q40 0 73 10t62.5 33t46.5 68t17 108q0 69 -16.5 115.5t-47 68t-62 29.5t-73.5 8h-133zM1374 518v-82h-426v604h426v-82h-330v-159h287v-82h-287v-199h330zM1542 944
v-508h-86v604h152l153 -493h11l157 493h146v-604h-86v508h-9l-165 -508h-97l-168 508h-8zM2253 739q0 -110 55.5 -173.5t142.5 -63.5t143 63.5t56 173.5t-56 173t-143 63t-142.5 -63t-55.5 -173zM102 1262h2872v-1047h-2872v1047zM2904 285v907h-2734v-907h2734zM2740 739
q0 -150 -74 -233.5t-215 -83.5t-214.5 83.5t-73.5 233.5t73.5 233t214.5 83t215 -83t74 -233z" />
    <glyph glyph-name="onehalf" unicode="&#xbd;" 
d="M561 436h-219v604h219q139 0 215 -75.5t76 -227.5q0 -142 -77.5 -221.5t-213.5 -79.5zM428 958v-440h133q40 0 73 10t62.5 33t46.5 68t17 108q0 69 -16.5 115.5t-47 68t-62 29.5t-73.5 8h-133zM1374 518v-82h-426v604h426v-82h-330v-159h287v-82h-287v-199h330zM1542 944
v-508h-86v604h152l153 -493h11l157 493h146v-604h-86v508h-9l-165 -508h-97l-168 508h-8zM2253 739q0 -110 55.5 -173.5t142.5 -63.5t143 63.5t56 173.5t-56 173t-143 63t-142.5 -63t-55.5 -173zM102 1262h2872v-1047h-2872v1047zM2904 285v907h-2734v-907h2734zM2740 739
q0 -150 -74 -233.5t-215 -83.5t-214.5 83.5t-73.5 233.5t73.5 233t214.5 83t215 -83t74 -233z" />
    <glyph glyph-name="threequarters" unicode="&#xbe;" 
d="M561 436h-219v604h219q139 0 215 -75.5t76 -227.5q0 -142 -77.5 -221.5t-213.5 -79.5zM428 958v-440h133q40 0 73 10t62.5 33t46.5 68t17 108q0 69 -16.5 115.5t-47 68t-62 29.5t-73.5 8h-133zM1374 518v-82h-426v604h426v-82h-330v-159h287v-82h-287v-199h330zM1542 944
v-508h-86v604h152l153 -493h11l157 493h146v-604h-86v508h-9l-165 -508h-97l-168 508h-8zM2253 739q0 -110 55.5 -173.5t142.5 -63.5t143 63.5t56 173.5t-56 173t-143 63t-142.5 -63t-55.5 -173zM102 1262h2872v-1047h-2872v1047zM2904 285v907h-2734v-907h2734zM2740 739
q0 -150 -74 -233.5t-215 -83.5t-214.5 83.5t-73.5 233.5t73.5 233t214.5 83t215 -83t74 -233z" />
    <glyph glyph-name="questiondown" unicode="&#xbf;" 
d="M561 436h-219v604h219q139 0 215 -75.5t76 -227.5q0 -142 -77.5 -221.5t-213.5 -79.5zM428 958v-440h133q40 0 73 10t62.5 33t46.5 68t17 108q0 69 -16.5 115.5t-47 68t-62 29.5t-73.5 8h-133zM1374 518v-82h-426v604h426v-82h-330v-159h287v-82h-287v-199h330zM1542 944
v-508h-86v604h152l153 -493h11l157 493h146v-604h-86v508h-9l-165 -508h-97l-168 508h-8zM2253 739q0 -110 55.5 -173.5t142.5 -63.5t143 63.5t56 173.5t-56 173t-143 63t-142.5 -63t-55.5 -173zM102 1262h2872v-1047h-2872v1047zM2904 285v907h-2734v-907h2734zM2740 739
q0 -150 -74 -233.5t-215 -83.5t-214.5 83.5t-73.5 233.5t73.5 233t214.5 83t215 -83t74 -233z" />
    <glyph glyph-name="Agrave" unicode="&#xc0;" 
d="M561 436h-219v604h219q139 0 215 -75.5t76 -227.5q0 -142 -77.5 -221.5t-213.5 -79.5zM428 958v-440h133q40 0 73 10t62.5 33t46.5 68t17 108q0 69 -16.5 115.5t-47 68t-62 29.5t-73.5 8h-133zM1374 518v-82h-426v604h426v-82h-330v-159h287v-82h-287v-199h330zM1542 944
v-508h-86v604h152l153 -493h11l157 493h146v-604h-86v508h-9l-165 -508h-97l-168 508h-8zM2253 739q0 -110 55.5 -173.5t142.5 -63.5t143 63.5t56 173.5t-56 173t-143 63t-142.5 -63t-55.5 -173zM102 1262h2872v-1047h-2872v1047zM2904 285v907h-2734v-907h2734zM2740 739
q0 -150 -74 -233.5t-215 -83.5t-214.5 83.5t-73.5 233.5t73.5 233t214.5 83t215 -83t74 -233z" />
    <glyph glyph-name="Aacute" unicode="&#xc1;" 
d="M561 436h-219v604h219q139 0 215 -75.5t76 -227.5q0 -142 -77.5 -221.5t-213.5 -79.5zM428 958v-440h133q40 0 73 10t62.5 33t46.5 68t17 108q0 69 -16.5 115.5t-47 68t-62 29.5t-73.5 8h-133zM1374 518v-82h-426v604h426v-82h-330v-159h287v-82h-287v-199h330zM1542 944
v-508h-86v604h152l153 -493h11l157 493h146v-604h-86v508h-9l-165 -508h-97l-168 508h-8zM2253 739q0 -110 55.5 -173.5t142.5 -63.5t143 63.5t56 173.5t-56 173t-143 63t-142.5 -63t-55.5 -173zM102 1262h2872v-1047h-2872v1047zM2904 285v907h-2734v-907h2734zM2740 739
q0 -150 -74 -233.5t-215 -83.5t-214.5 83.5t-73.5 233.5t73.5 233t214.5 83t215 -83t74 -233z" />
    <glyph glyph-name="Acircumflex" unicode="&#xc2;" 
d="M561 436h-219v604h219q139 0 215 -75.5t76 -227.5q0 -142 -77.5 -221.5t-213.5 -79.5zM428 958v-440h133q40 0 73 10t62.5 33t46.5 68t17 108q0 69 -16.5 115.5t-47 68t-62 29.5t-73.5 8h-133zM1374 518v-82h-426v604h426v-82h-330v-159h287v-82h-287v-199h330zM1542 944
v-508h-86v604h152l153 -493h11l157 493h146v-604h-86v508h-9l-165 -508h-97l-168 508h-8zM2253 739q0 -110 55.5 -173.5t142.5 -63.5t143 63.5t56 173.5t-56 173t-143 63t-142.5 -63t-55.5 -173zM102 1262h2872v-1047h-2872v1047zM2904 285v907h-2734v-907h2734zM2740 739
q0 -150 -74 -233.5t-215 -83.5t-214.5 83.5t-73.5 233.5t73.5 233t214.5 83t215 -83t74 -233z" />
    <glyph glyph-name="Atilde" unicode="&#xc3;" 
d="M561 436h-219v604h219q139 0 215 -75.5t76 -227.5q0 -142 -77.5 -221.5t-213.5 -79.5zM428 958v-440h133q40 0 73 10t62.5 33t46.5 68t17 108q0 69 -16.5 115.5t-47 68t-62 29.5t-73.5 8h-133zM1374 518v-82h-426v604h426v-82h-330v-159h287v-82h-287v-199h330zM1542 944
v-508h-86v604h152l153 -493h11l157 493h146v-604h-86v508h-9l-165 -508h-97l-168 508h-8zM2253 739q0 -110 55.5 -173.5t142.5 -63.5t143 63.5t56 173.5t-56 173t-143 63t-142.5 -63t-55.5 -173zM102 1262h2872v-1047h-2872v1047zM2904 285v907h-2734v-907h2734zM2740 739
q0 -150 -74 -233.5t-215 -83.5t-214.5 83.5t-73.5 233.5t73.5 233t214.5 83t215 -83t74 -233z" />
    <glyph glyph-name="Adieresis" unicode="&#xc4;" 
d="M561 436h-219v604h219q139 0 215 -75.5t76 -227.5q0 -142 -77.5 -221.5t-213.5 -79.5zM428 958v-440h133q40 0 73 10t62.5 33t46.5 68t17 108q0 69 -16.5 115.5t-47 68t-62 29.5t-73.5 8h-133zM1374 518v-82h-426v604h426v-82h-330v-159h287v-82h-287v-199h330zM1542 944
v-508h-86v604h152l153 -493h11l157 493h146v-604h-86v508h-9l-165 -508h-97l-168 508h-8zM2253 739q0 -110 55.5 -173.5t142.5 -63.5t143 63.5t56 173.5t-56 173t-143 63t-142.5 -63t-55.5 -173zM102 1262h2872v-1047h-2872v1047zM2904 285v907h-2734v-907h2734zM2740 739
q0 -150 -74 -233.5t-215 -83.5t-214.5 83.5t-73.5 233.5t73.5 233t214.5 83t215 -83t74 -233z" />
    <glyph glyph-name="Aring" unicode="&#xc5;" 
d="M561 436h-219v604h219q139 0 215 -75.5t76 -227.5q0 -142 -77.5 -221.5t-213.5 -79.5zM428 958v-440h133q40 0 73 10t62.5 33t46.5 68t17 108q0 69 -16.5 115.5t-47 68t-62 29.5t-73.5 8h-133zM1374 518v-82h-426v604h426v-82h-330v-159h287v-82h-287v-199h330zM1542 944
v-508h-86v604h152l153 -493h11l157 493h146v-604h-86v508h-9l-165 -508h-97l-168 508h-8zM2253 739q0 -110 55.5 -173.5t142.5 -63.5t143 63.5t56 173.5t-56 173t-143 63t-142.5 -63t-55.5 -173zM102 1262h2872v-1047h-2872v1047zM2904 285v907h-2734v-907h2734zM2740 739
q0 -150 -74 -233.5t-215 -83.5t-214.5 83.5t-73.5 233.5t73.5 233t214.5 83t215 -83t74 -233z" />
    <glyph glyph-name="AE" unicode="&#xc6;" 
d="M561 436h-219v604h219q139 0 215 -75.5t76 -227.5q0 -142 -77.5 -221.5t-213.5 -79.5zM428 958v-440h133q40 0 73 10t62.5 33t46.5 68t17 108q0 69 -16.5 115.5t-47 68t-62 29.5t-73.5 8h-133zM1374 518v-82h-426v604h426v-82h-330v-159h287v-82h-287v-199h330zM1542 944
v-508h-86v604h152l153 -493h11l157 493h146v-604h-86v508h-9l-165 -508h-97l-168 508h-8zM2253 739q0 -110 55.5 -173.5t142.5 -63.5t143 63.5t56 173.5t-56 173t-143 63t-142.5 -63t-55.5 -173zM102 1262h2872v-1047h-2872v1047zM2904 285v907h-2734v-907h2734zM2740 739
q0 -150 -74 -233.5t-215 -83.5t-214.5 83.5t-73.5 233.5t73.5 233t214.5 83t215 -83t74 -233z" />
    <glyph glyph-name="Ccedilla" unicode="&#xc7;" 
d="M561 436h-219v604h219q139 0 215 -75.5t76 -227.5q0 -142 -77.5 -221.5t-213.5 -79.5zM428 958v-440h133q40 0 73 10t62.5 33t46.5 68t17 108q0 69 -16.5 115.5t-47 68t-62 29.5t-73.5 8h-133zM1374 518v-82h-426v604h426v-82h-330v-159h287v-82h-287v-199h330zM1542 944
v-508h-86v604h152l153 -493h11l157 493h146v-604h-86v508h-9l-165 -508h-97l-168 508h-8zM2253 739q0 -110 55.5 -173.5t142.5 -63.5t143 63.5t56 173.5t-56 173t-143 63t-142.5 -63t-55.5 -173zM102 1262h2872v-1047h-2872v1047zM2904 285v907h-2734v-907h2734zM2740 739
q0 -150 -74 -233.5t-215 -83.5t-214.5 83.5t-73.5 233.5t73.5 233t214.5 83t215 -83t74 -233z" />
    <glyph glyph-name="Egrave" unicode="&#xc8;" 
d="M561 436h-219v604h219q139 0 215 -75.5t76 -227.5q0 -142 -77.5 -221.5t-213.5 -79.5zM428 958v-440h133q40 0 73 10t62.5 33t46.5 68t17 108q0 69 -16.5 115.5t-47 68t-62 29.5t-73.5 8h-133zM1374 518v-82h-426v604h426v-82h-330v-159h287v-82h-287v-199h330zM1542 944
v-508h-86v604h152l153 -493h11l157 493h146v-604h-86v508h-9l-165 -508h-97l-168 508h-8zM2253 739q0 -110 55.5 -173.5t142.5 -63.5t143 63.5t56 173.5t-56 173t-143 63t-142.5 -63t-55.5 -173zM102 1262h2872v-1047h-2872v1047zM2904 285v907h-2734v-907h2734zM2740 739
q0 -150 -74 -233.5t-215 -83.5t-214.5 83.5t-73.5 233.5t73.5 233t214.5 83t215 -83t74 -233z" />
    <glyph glyph-name="Eacute" unicode="&#xc9;" 
d="M561 436h-219v604h219q139 0 215 -75.5t76 -227.5q0 -142 -77.5 -221.5t-213.5 -79.5zM428 958v-440h133q40 0 73 10t62.5 33t46.5 68t17 108q0 69 -16.5 115.5t-47 68t-62 29.5t-73.5 8h-133zM1374 518v-82h-426v604h426v-82h-330v-159h287v-82h-287v-199h330zM1542 944
v-508h-86v604h152l153 -493h11l157 493h146v-604h-86v508h-9l-165 -508h-97l-168 508h-8zM2253 739q0 -110 55.5 -173.5t142.5 -63.5t143 63.5t56 173.5t-56 173t-143 63t-142.5 -63t-55.5 -173zM102 1262h2872v-1047h-2872v1047zM2904 285v907h-2734v-907h2734zM2740 739
q0 -150 -74 -233.5t-215 -83.5t-214.5 83.5t-73.5 233.5t73.5 233t214.5 83t215 -83t74 -233z" />
    <glyph glyph-name="Ecircumflex" unicode="&#xca;" 
d="M561 436h-219v604h219q139 0 215 -75.5t76 -227.5q0 -142 -77.5 -221.5t-213.5 -79.5zM428 958v-440h133q40 0 73 10t62.5 33t46.5 68t17 108q0 69 -16.5 115.5t-47 68t-62 29.5t-73.5 8h-133zM1374 518v-82h-426v604h426v-82h-330v-159h287v-82h-287v-199h330zM1542 944
v-508h-86v604h152l153 -493h11l157 493h146v-604h-86v508h-9l-165 -508h-97l-168 508h-8zM2253 739q0 -110 55.5 -173.5t142.5 -63.5t143 63.5t56 173.5t-56 173t-143 63t-142.5 -63t-55.5 -173zM102 1262h2872v-1047h-2872v1047zM2904 285v907h-2734v-907h2734zM2740 739
q0 -150 -74 -233.5t-215 -83.5t-214.5 83.5t-73.5 233.5t73.5 233t214.5 83t215 -83t74 -233z" />
    <glyph glyph-name="Edieresis" unicode="&#xcb;" 
d="M561 436h-219v604h219q139 0 215 -75.5t76 -227.5q0 -142 -77.5 -221.5t-213.5 -79.5zM428 958v-440h133q40 0 73 10t62.5 33t46.5 68t17 108q0 69 -16.5 115.5t-47 68t-62 29.5t-73.5 8h-133zM1374 518v-82h-426v604h426v-82h-330v-159h287v-82h-287v-199h330zM1542 944
v-508h-86v604h152l153 -493h11l157 493h146v-604h-86v508h-9l-165 -508h-97l-168 508h-8zM2253 739q0 -110 55.5 -173.5t142.5 -63.5t143 63.5t56 173.5t-56 173t-143 63t-142.5 -63t-55.5 -173zM102 1262h2872v-1047h-2872v1047zM2904 285v907h-2734v-907h2734zM2740 739
q0 -150 -74 -233.5t-215 -83.5t-214.5 83.5t-73.5 233.5t73.5 233t214.5 83t215 -83t74 -233z" />
    <glyph glyph-name="Igrave" unicode="&#xcc;" 
d="M561 436h-219v604h219q139 0 215 -75.5t76 -227.5q0 -142 -77.5 -221.5t-213.5 -79.5zM428 958v-440h133q40 0 73 10t62.5 33t46.5 68t17 108q0 69 -16.5 115.5t-47 68t-62 29.5t-73.5 8h-133zM1374 518v-82h-426v604h426v-82h-330v-159h287v-82h-287v-199h330zM1542 944
v-508h-86v604h152l153 -493h11l157 493h146v-604h-86v508h-9l-165 -508h-97l-168 508h-8zM2253 739q0 -110 55.5 -173.5t142.5 -63.5t143 63.5t56 173.5t-56 173t-143 63t-142.5 -63t-55.5 -173zM102 1262h2872v-1047h-2872v1047zM2904 285v907h-2734v-907h2734zM2740 739
q0 -150 -74 -233.5t-215 -83.5t-214.5 83.5t-73.5 233.5t73.5 233t214.5 83t215 -83t74 -233z" />
    <glyph glyph-name="Iacute" unicode="&#xcd;" 
d="M561 436h-219v604h219q139 0 215 -75.5t76 -227.5q0 -142 -77.5 -221.5t-213.5 -79.5zM428 958v-440h133q40 0 73 10t62.5 33t46.5 68t17 108q0 69 -16.5 115.5t-47 68t-62 29.5t-73.5 8h-133zM1374 518v-82h-426v604h426v-82h-330v-159h287v-82h-287v-199h330zM1542 944
v-508h-86v604h152l153 -493h11l157 493h146v-604h-86v508h-9l-165 -508h-97l-168 508h-8zM2253 739q0 -110 55.5 -173.5t142.5 -63.5t143 63.5t56 173.5t-56 173t-143 63t-142.5 -63t-55.5 -173zM102 1262h2872v-1047h-2872v1047zM2904 285v907h-2734v-907h2734zM2740 739
q0 -150 -74 -233.5t-215 -83.5t-214.5 83.5t-73.5 233.5t73.5 233t214.5 83t215 -83t74 -233z" />
    <glyph glyph-name="Icircumflex" unicode="&#xce;" 
d="M561 436h-219v604h219q139 0 215 -75.5t76 -227.5q0 -142 -77.5 -221.5t-213.5 -79.5zM428 958v-440h133q40 0 73 10t62.5 33t46.5 68t17 108q0 69 -16.5 115.5t-47 68t-62 29.5t-73.5 8h-133zM1374 518v-82h-426v604h426v-82h-330v-159h287v-82h-287v-199h330zM1542 944
v-508h-86v604h152l153 -493h11l157 493h146v-604h-86v508h-9l-165 -508h-97l-168 508h-8zM2253 739q0 -110 55.5 -173.5t142.5 -63.5t143 63.5t56 173.5t-56 173t-143 63t-142.5 -63t-55.5 -173zM102 1262h2872v-1047h-2872v1047zM2904 285v907h-2734v-907h2734zM2740 739
q0 -150 -74 -233.5t-215 -83.5t-214.5 83.5t-73.5 233.5t73.5 233t214.5 83t215 -83t74 -233z" />
    <glyph glyph-name="Idieresis" unicode="&#xcf;" 
d="M561 436h-219v604h219q139 0 215 -75.5t76 -227.5q0 -142 -77.5 -221.5t-213.5 -79.5zM428 958v-440h133q40 0 73 10t62.5 33t46.5 68t17 108q0 69 -16.5 115.5t-47 68t-62 29.5t-73.5 8h-133zM1374 518v-82h-426v604h426v-82h-330v-159h287v-82h-287v-199h330zM1542 944
v-508h-86v604h152l153 -493h11l157 493h146v-604h-86v508h-9l-165 -508h-97l-168 508h-8zM2253 739q0 -110 55.5 -173.5t142.5 -63.5t143 63.5t56 173.5t-56 173t-143 63t-142.5 -63t-55.5 -173zM102 1262h2872v-1047h-2872v1047zM2904 285v907h-2734v-907h2734zM2740 739
q0 -150 -74 -233.5t-215 -83.5t-214.5 83.5t-73.5 233.5t73.5 233t214.5 83t215 -83t74 -233z" />
    <glyph glyph-name="Eth" unicode="&#xd0;" 
d="M561 436h-219v604h219q139 0 215 -75.5t76 -227.5q0 -142 -77.5 -221.5t-213.5 -79.5zM428 958v-440h133q40 0 73 10t62.5 33t46.5 68t17 108q0 69 -16.5 115.5t-47 68t-62 29.5t-73.5 8h-133zM1374 518v-82h-426v604h426v-82h-330v-159h287v-82h-287v-199h330zM1542 944
v-508h-86v604h152l153 -493h11l157 493h146v-604h-86v508h-9l-165 -508h-97l-168 508h-8zM2253 739q0 -110 55.5 -173.5t142.5 -63.5t143 63.5t56 173.5t-56 173t-143 63t-142.5 -63t-55.5 -173zM102 1262h2872v-1047h-2872v1047zM2904 285v907h-2734v-907h2734zM2740 739
q0 -150 -74 -233.5t-215 -83.5t-214.5 83.5t-73.5 233.5t73.5 233t214.5 83t215 -83t74 -233z" />
    <glyph glyph-name="Ntilde" unicode="&#xd1;" 
d="M561 436h-219v604h219q139 0 215 -75.5t76 -227.5q0 -142 -77.5 -221.5t-213.5 -79.5zM428 958v-440h133q40 0 73 10t62.5 33t46.5 68t17 108q0 69 -16.5 115.5t-47 68t-62 29.5t-73.5 8h-133zM1374 518v-82h-426v604h426v-82h-330v-159h287v-82h-287v-199h330zM1542 944
v-508h-86v604h152l153 -493h11l157 493h146v-604h-86v508h-9l-165 -508h-97l-168 508h-8zM2253 739q0 -110 55.5 -173.5t142.5 -63.5t143 63.5t56 173.5t-56 173t-143 63t-142.5 -63t-55.5 -173zM102 1262h2872v-1047h-2872v1047zM2904 285v907h-2734v-907h2734zM2740 739
q0 -150 -74 -233.5t-215 -83.5t-214.5 83.5t-73.5 233.5t73.5 233t214.5 83t215 -83t74 -233z" />
    <glyph glyph-name="Ograve" unicode="&#xd2;" 
d="M561 436h-219v604h219q139 0 215 -75.5t76 -227.5q0 -142 -77.5 -221.5t-213.5 -79.5zM428 958v-440h133q40 0 73 10t62.5 33t46.5 68t17 108q0 69 -16.5 115.5t-47 68t-62 29.5t-73.5 8h-133zM1374 518v-82h-426v604h426v-82h-330v-159h287v-82h-287v-199h330zM1542 944
v-508h-86v604h152l153 -493h11l157 493h146v-604h-86v508h-9l-165 -508h-97l-168 508h-8zM2253 739q0 -110 55.5 -173.5t142.5 -63.5t143 63.5t56 173.5t-56 173t-143 63t-142.5 -63t-55.5 -173zM102 1262h2872v-1047h-2872v1047zM2904 285v907h-2734v-907h2734zM2740 739
q0 -150 -74 -233.5t-215 -83.5t-214.5 83.5t-73.5 233.5t73.5 233t214.5 83t215 -83t74 -233z" />
    <glyph glyph-name="Oacute" unicode="&#xd3;" 
d="M561 436h-219v604h219q139 0 215 -75.5t76 -227.5q0 -142 -77.5 -221.5t-213.5 -79.5zM428 958v-440h133q40 0 73 10t62.5 33t46.5 68t17 108q0 69 -16.5 115.5t-47 68t-62 29.5t-73.5 8h-133zM1374 518v-82h-426v604h426v-82h-330v-159h287v-82h-287v-199h330zM1542 944
v-508h-86v604h152l153 -493h11l157 493h146v-604h-86v508h-9l-165 -508h-97l-168 508h-8zM2253 739q0 -110 55.5 -173.5t142.5 -63.5t143 63.5t56 173.5t-56 173t-143 63t-142.5 -63t-55.5 -173zM102 1262h2872v-1047h-2872v1047zM2904 285v907h-2734v-907h2734zM2740 739
q0 -150 -74 -233.5t-215 -83.5t-214.5 83.5t-73.5 233.5t73.5 233t214.5 83t215 -83t74 -233z" />
    <glyph glyph-name="Ocircumflex" unicode="&#xd4;" 
d="M561 436h-219v604h219q139 0 215 -75.5t76 -227.5q0 -142 -77.5 -221.5t-213.5 -79.5zM428 958v-440h133q40 0 73 10t62.5 33t46.5 68t17 108q0 69 -16.5 115.5t-47 68t-62 29.5t-73.5 8h-133zM1374 518v-82h-426v604h426v-82h-330v-159h287v-82h-287v-199h330zM1542 944
v-508h-86v604h152l153 -493h11l157 493h146v-604h-86v508h-9l-165 -508h-97l-168 508h-8zM2253 739q0 -110 55.5 -173.5t142.5 -63.5t143 63.5t56 173.5t-56 173t-143 63t-142.5 -63t-55.5 -173zM102 1262h2872v-1047h-2872v1047zM2904 285v907h-2734v-907h2734zM2740 739
q0 -150 -74 -233.5t-215 -83.5t-214.5 83.5t-73.5 233.5t73.5 233t214.5 83t215 -83t74 -233z" />
    <glyph glyph-name="Otilde" unicode="&#xd5;" 
d="M561 436h-219v604h219q139 0 215 -75.5t76 -227.5q0 -142 -77.5 -221.5t-213.5 -79.5zM428 958v-440h133q40 0 73 10t62.5 33t46.5 68t17 108q0 69 -16.5 115.5t-47 68t-62 29.5t-73.5 8h-133zM1374 518v-82h-426v604h426v-82h-330v-159h287v-82h-287v-199h330zM1542 944
v-508h-86v604h152l153 -493h11l157 493h146v-604h-86v508h-9l-165 -508h-97l-168 508h-8zM2253 739q0 -110 55.5 -173.5t142.5 -63.5t143 63.5t56 173.5t-56 173t-143 63t-142.5 -63t-55.5 -173zM102 1262h2872v-1047h-2872v1047zM2904 285v907h-2734v-907h2734zM2740 739
q0 -150 -74 -233.5t-215 -83.5t-214.5 83.5t-73.5 233.5t73.5 233t214.5 83t215 -83t74 -233z" />
    <glyph glyph-name="Odieresis" unicode="&#xd6;" 
d="M561 436h-219v604h219q139 0 215 -75.5t76 -227.5q0 -142 -77.5 -221.5t-213.5 -79.5zM428 958v-440h133q40 0 73 10t62.5 33t46.5 68t17 108q0 69 -16.5 115.5t-47 68t-62 29.5t-73.5 8h-133zM1374 518v-82h-426v604h426v-82h-330v-159h287v-82h-287v-199h330zM1542 944
v-508h-86v604h152l153 -493h11l157 493h146v-604h-86v508h-9l-165 -508h-97l-168 508h-8zM2253 739q0 -110 55.5 -173.5t142.5 -63.5t143 63.5t56 173.5t-56 173t-143 63t-142.5 -63t-55.5 -173zM102 1262h2872v-1047h-2872v1047zM2904 285v907h-2734v-907h2734zM2740 739
q0 -150 -74 -233.5t-215 -83.5t-214.5 83.5t-73.5 233.5t73.5 233t214.5 83t215 -83t74 -233z" />
    <glyph glyph-name="multiply" unicode="&#xd7;" 
d="M561 436h-219v604h219q139 0 215 -75.5t76 -227.5q0 -142 -77.5 -221.5t-213.5 -79.5zM428 958v-440h133q40 0 73 10t62.5 33t46.5 68t17 108q0 69 -16.5 115.5t-47 68t-62 29.5t-73.5 8h-133zM1374 518v-82h-426v604h426v-82h-330v-159h287v-82h-287v-199h330zM1542 944
v-508h-86v604h152l153 -493h11l157 493h146v-604h-86v508h-9l-165 -508h-97l-168 508h-8zM2253 739q0 -110 55.5 -173.5t142.5 -63.5t143 63.5t56 173.5t-56 173t-143 63t-142.5 -63t-55.5 -173zM102 1262h2872v-1047h-2872v1047zM2904 285v907h-2734v-907h2734zM2740 739
q0 -150 -74 -233.5t-215 -83.5t-214.5 83.5t-73.5 233.5t73.5 233t214.5 83t215 -83t74 -233z" />
    <glyph glyph-name="Oslash" unicode="&#xd8;" 
d="M561 436h-219v604h219q139 0 215 -75.5t76 -227.5q0 -142 -77.5 -221.5t-213.5 -79.5zM428 958v-440h133q40 0 73 10t62.5 33t46.5 68t17 108q0 69 -16.5 115.5t-47 68t-62 29.5t-73.5 8h-133zM1374 518v-82h-426v604h426v-82h-330v-159h287v-82h-287v-199h330zM1542 944
v-508h-86v604h152l153 -493h11l157 493h146v-604h-86v508h-9l-165 -508h-97l-168 508h-8zM2253 739q0 -110 55.5 -173.5t142.5 -63.5t143 63.5t56 173.5t-56 173t-143 63t-142.5 -63t-55.5 -173zM102 1262h2872v-1047h-2872v1047zM2904 285v907h-2734v-907h2734zM2740 739
q0 -150 -74 -233.5t-215 -83.5t-214.5 83.5t-73.5 233.5t73.5 233t214.5 83t215 -83t74 -233z" />
    <glyph glyph-name="Ugrave" unicode="&#xd9;" 
d="M561 436h-219v604h219q139 0 215 -75.5t76 -227.5q0 -142 -77.5 -221.5t-213.5 -79.5zM428 958v-440h133q40 0 73 10t62.5 33t46.5 68t17 108q0 69 -16.5 115.5t-47 68t-62 29.5t-73.5 8h-133zM1374 518v-82h-426v604h426v-82h-330v-159h287v-82h-287v-199h330zM1542 944
v-508h-86v604h152l153 -493h11l157 493h146v-604h-86v508h-9l-165 -508h-97l-168 508h-8zM2253 739q0 -110 55.5 -173.5t142.5 -63.5t143 63.5t56 173.5t-56 173t-143 63t-142.5 -63t-55.5 -173zM102 1262h2872v-1047h-2872v1047zM2904 285v907h-2734v-907h2734zM2740 739
q0 -150 -74 -233.5t-215 -83.5t-214.5 83.5t-73.5 233.5t73.5 233t214.5 83t215 -83t74 -233z" />
    <glyph glyph-name="Uacute" unicode="&#xda;" 
d="M561 436h-219v604h219q139 0 215 -75.5t76 -227.5q0 -142 -77.5 -221.5t-213.5 -79.5zM428 958v-440h133q40 0 73 10t62.5 33t46.5 68t17 108q0 69 -16.5 115.5t-47 68t-62 29.5t-73.5 8h-133zM1374 518v-82h-426v604h426v-82h-330v-159h287v-82h-287v-199h330zM1542 944
v-508h-86v604h152l153 -493h11l157 493h146v-604h-86v508h-9l-165 -508h-97l-168 508h-8zM2253 739q0 -110 55.5 -173.5t142.5 -63.5t143 63.5t56 173.5t-56 173t-143 63t-142.5 -63t-55.5 -173zM102 1262h2872v-1047h-2872v1047zM2904 285v907h-2734v-907h2734zM2740 739
q0 -150 -74 -233.5t-215 -83.5t-214.5 83.5t-73.5 233.5t73.5 233t214.5 83t215 -83t74 -233z" />
    <glyph glyph-name="Ucircumflex" unicode="&#xdb;" 
d="M561 436h-219v604h219q139 0 215 -75.5t76 -227.5q0 -142 -77.5 -221.5t-213.5 -79.5zM428 958v-440h133q40 0 73 10t62.5 33t46.5 68t17 108q0 69 -16.5 115.5t-47 68t-62 29.5t-73.5 8h-133zM1374 518v-82h-426v604h426v-82h-330v-159h287v-82h-287v-199h330zM1542 944
v-508h-86v604h152l153 -493h11l157 493h146v-604h-86v508h-9l-165 -508h-97l-168 508h-8zM2253 739q0 -110 55.5 -173.5t142.5 -63.5t143 63.5t56 173.5t-56 173t-143 63t-142.5 -63t-55.5 -173zM102 1262h2872v-1047h-2872v1047zM2904 285v907h-2734v-907h2734zM2740 739
q0 -150 -74 -233.5t-215 -83.5t-214.5 83.5t-73.5 233.5t73.5 233t214.5 83t215 -83t74 -233z" />
    <glyph glyph-name="Udieresis" unicode="&#xdc;" 
d="M561 436h-219v604h219q139 0 215 -75.5t76 -227.5q0 -142 -77.5 -221.5t-213.5 -79.5zM428 958v-440h133q40 0 73 10t62.5 33t46.5 68t17 108q0 69 -16.5 115.5t-47 68t-62 29.5t-73.5 8h-133zM1374 518v-82h-426v604h426v-82h-330v-159h287v-82h-287v-199h330zM1542 944
v-508h-86v604h152l153 -493h11l157 493h146v-604h-86v508h-9l-165 -508h-97l-168 508h-8zM2253 739q0 -110 55.5 -173.5t142.5 -63.5t143 63.5t56 173.5t-56 173t-143 63t-142.5 -63t-55.5 -173zM102 1262h2872v-1047h-2872v1047zM2904 285v907h-2734v-907h2734zM2740 739
q0 -150 -74 -233.5t-215 -83.5t-214.5 83.5t-73.5 233.5t73.5 233t214.5 83t215 -83t74 -233z" />
    <glyph glyph-name="Yacute" unicode="&#xdd;" 
d="M561 436h-219v604h219q139 0 215 -75.5t76 -227.5q0 -142 -77.5 -221.5t-213.5 -79.5zM428 958v-440h133q40 0 73 10t62.5 33t46.5 68t17 108q0 69 -16.5 115.5t-47 68t-62 29.5t-73.5 8h-133zM1374 518v-82h-426v604h426v-82h-330v-159h287v-82h-287v-199h330zM1542 944
v-508h-86v604h152l153 -493h11l157 493h146v-604h-86v508h-9l-165 -508h-97l-168 508h-8zM2253 739q0 -110 55.5 -173.5t142.5 -63.5t143 63.5t56 173.5t-56 173t-143 63t-142.5 -63t-55.5 -173zM102 1262h2872v-1047h-2872v1047zM2904 285v907h-2734v-907h2734zM2740 739
q0 -150 -74 -233.5t-215 -83.5t-214.5 83.5t-73.5 233.5t73.5 233t214.5 83t215 -83t74 -233z" />
    <glyph glyph-name="Thorn" unicode="&#xde;" 
d="M561 436h-219v604h219q139 0 215 -75.5t76 -227.5q0 -142 -77.5 -221.5t-213.5 -79.5zM428 958v-440h133q40 0 73 10t62.5 33t46.5 68t17 108q0 69 -16.5 115.5t-47 68t-62 29.5t-73.5 8h-133zM1374 518v-82h-426v604h426v-82h-330v-159h287v-82h-287v-199h330zM1542 944
v-508h-86v604h152l153 -493h11l157 493h146v-604h-86v508h-9l-165 -508h-97l-168 508h-8zM2253 739q0 -110 55.5 -173.5t142.5 -63.5t143 63.5t56 173.5t-56 173t-143 63t-142.5 -63t-55.5 -173zM102 1262h2872v-1047h-2872v1047zM2904 285v907h-2734v-907h2734zM2740 739
q0 -150 -74 -233.5t-215 -83.5t-214.5 83.5t-73.5 233.5t73.5 233t214.5 83t215 -83t74 -233z" />
    <glyph glyph-name="germandbls" unicode="&#xdf;" 
d="M561 436h-219v604h219q139 0 215 -75.5t76 -227.5q0 -142 -77.5 -221.5t-213.5 -79.5zM428 958v-440h133q40 0 73 10t62.5 33t46.5 68t17 108q0 69 -16.5 115.5t-47 68t-62 29.5t-73.5 8h-133zM1374 518v-82h-426v604h426v-82h-330v-159h287v-82h-287v-199h330zM1542 944
v-508h-86v604h152l153 -493h11l157 493h146v-604h-86v508h-9l-165 -508h-97l-168 508h-8zM2253 739q0 -110 55.5 -173.5t142.5 -63.5t143 63.5t56 173.5t-56 173t-143 63t-142.5 -63t-55.5 -173zM102 1262h2872v-1047h-2872v1047zM2904 285v907h-2734v-907h2734zM2740 739
q0 -150 -74 -233.5t-215 -83.5t-214.5 83.5t-73.5 233.5t73.5 233t214.5 83t215 -83t74 -233z" />
    <glyph glyph-name="agrave" unicode="&#xe0;" 
d="M561 436h-219v604h219q139 0 215 -75.5t76 -227.5q0 -142 -77.5 -221.5t-213.5 -79.5zM428 958v-440h133q40 0 73 10t62.5 33t46.5 68t17 108q0 69 -16.5 115.5t-47 68t-62 29.5t-73.5 8h-133zM1374 518v-82h-426v604h426v-82h-330v-159h287v-82h-287v-199h330zM1542 944
v-508h-86v604h152l153 -493h11l157 493h146v-604h-86v508h-9l-165 -508h-97l-168 508h-8zM2253 739q0 -110 55.5 -173.5t142.5 -63.5t143 63.5t56 173.5t-56 173t-143 63t-142.5 -63t-55.5 -173zM102 1262h2872v-1047h-2872v1047zM2904 285v907h-2734v-907h2734zM2740 739
q0 -150 -74 -233.5t-215 -83.5t-214.5 83.5t-73.5 233.5t73.5 233t214.5 83t215 -83t74 -233z" />
    <glyph glyph-name="aacute" unicode="&#xe1;" 
d="M561 436h-219v604h219q139 0 215 -75.5t76 -227.5q0 -142 -77.5 -221.5t-213.5 -79.5zM428 958v-440h133q40 0 73 10t62.5 33t46.5 68t17 108q0 69 -16.5 115.5t-47 68t-62 29.5t-73.5 8h-133zM1374 518v-82h-426v604h426v-82h-330v-159h287v-82h-287v-199h330zM1542 944
v-508h-86v604h152l153 -493h11l157 493h146v-604h-86v508h-9l-165 -508h-97l-168 508h-8zM2253 739q0 -110 55.5 -173.5t142.5 -63.5t143 63.5t56 173.5t-56 173t-143 63t-142.5 -63t-55.5 -173zM102 1262h2872v-1047h-2872v1047zM2904 285v907h-2734v-907h2734zM2740 739
q0 -150 -74 -233.5t-215 -83.5t-214.5 83.5t-73.5 233.5t73.5 233t214.5 83t215 -83t74 -233z" />
    <glyph glyph-name="acircumflex" unicode="&#xe2;" 
d="M561 436h-219v604h219q139 0 215 -75.5t76 -227.5q0 -142 -77.5 -221.5t-213.5 -79.5zM428 958v-440h133q40 0 73 10t62.5 33t46.5 68t17 108q0 69 -16.5 115.5t-47 68t-62 29.5t-73.5 8h-133zM1374 518v-82h-426v604h426v-82h-330v-159h287v-82h-287v-199h330zM1542 944
v-508h-86v604h152l153 -493h11l157 493h146v-604h-86v508h-9l-165 -508h-97l-168 508h-8zM2253 739q0 -110 55.5 -173.5t142.5 -63.5t143 63.5t56 173.5t-56 173t-143 63t-142.5 -63t-55.5 -173zM102 1262h2872v-1047h-2872v1047zM2904 285v907h-2734v-907h2734zM2740 739
q0 -150 -74 -233.5t-215 -83.5t-214.5 83.5t-73.5 233.5t73.5 233t214.5 83t215 -83t74 -233z" />
    <glyph glyph-name="atilde" unicode="&#xe3;" 
d="M561 436h-219v604h219q139 0 215 -75.5t76 -227.5q0 -142 -77.5 -221.5t-213.5 -79.5zM428 958v-440h133q40 0 73 10t62.5 33t46.5 68t17 108q0 69 -16.5 115.5t-47 68t-62 29.5t-73.5 8h-133zM1374 518v-82h-426v604h426v-82h-330v-159h287v-82h-287v-199h330zM1542 944
v-508h-86v604h152l153 -493h11l157 493h146v-604h-86v508h-9l-165 -508h-97l-168 508h-8zM2253 739q0 -110 55.5 -173.5t142.5 -63.5t143 63.5t56 173.5t-56 173t-143 63t-142.5 -63t-55.5 -173zM102 1262h2872v-1047h-2872v1047zM2904 285v907h-2734v-907h2734zM2740 739
q0 -150 -74 -233.5t-215 -83.5t-214.5 83.5t-73.5 233.5t73.5 233t214.5 83t215 -83t74 -233z" />
    <glyph glyph-name="adieresis" unicode="&#xe4;" 
d="M561 436h-219v604h219q139 0 215 -75.5t76 -227.5q0 -142 -77.5 -221.5t-213.5 -79.5zM428 958v-440h133q40 0 73 10t62.5 33t46.5 68t17 108q0 69 -16.5 115.5t-47 68t-62 29.5t-73.5 8h-133zM1374 518v-82h-426v604h426v-82h-330v-159h287v-82h-287v-199h330zM1542 944
v-508h-86v604h152l153 -493h11l157 493h146v-604h-86v508h-9l-165 -508h-97l-168 508h-8zM2253 739q0 -110 55.5 -173.5t142.5 -63.5t143 63.5t56 173.5t-56 173t-143 63t-142.5 -63t-55.5 -173zM102 1262h2872v-1047h-2872v1047zM2904 285v907h-2734v-907h2734zM2740 739
q0 -150 -74 -233.5t-215 -83.5t-214.5 83.5t-73.5 233.5t73.5 233t214.5 83t215 -83t74 -233z" />
    <glyph glyph-name="aring" unicode="&#xe5;" 
d="M561 436h-219v604h219q139 0 215 -75.5t76 -227.5q0 -142 -77.5 -221.5t-213.5 -79.5zM428 958v-440h133q40 0 73 10t62.5 33t46.5 68t17 108q0 69 -16.5 115.5t-47 68t-62 29.5t-73.5 8h-133zM1374 518v-82h-426v604h426v-82h-330v-159h287v-82h-287v-199h330zM1542 944
v-508h-86v604h152l153 -493h11l157 493h146v-604h-86v508h-9l-165 -508h-97l-168 508h-8zM2253 739q0 -110 55.5 -173.5t142.5 -63.5t143 63.5t56 173.5t-56 173t-143 63t-142.5 -63t-55.5 -173zM102 1262h2872v-1047h-2872v1047zM2904 285v907h-2734v-907h2734zM2740 739
q0 -150 -74 -233.5t-215 -83.5t-214.5 83.5t-73.5 233.5t73.5 233t214.5 83t215 -83t74 -233z" />
    <glyph glyph-name="ae" unicode="&#xe6;" 
d="M561 436h-219v604h219q139 0 215 -75.5t76 -227.5q0 -142 -77.5 -221.5t-213.5 -79.5zM428 958v-440h133q40 0 73 10t62.5 33t46.5 68t17 108q0 69 -16.5 115.5t-47 68t-62 29.5t-73.5 8h-133zM1374 518v-82h-426v604h426v-82h-330v-159h287v-82h-287v-199h330zM1542 944
v-508h-86v604h152l153 -493h11l157 493h146v-604h-86v508h-9l-165 -508h-97l-168 508h-8zM2253 739q0 -110 55.5 -173.5t142.5 -63.5t143 63.5t56 173.5t-56 173t-143 63t-142.5 -63t-55.5 -173zM102 1262h2872v-1047h-2872v1047zM2904 285v907h-2734v-907h2734zM2740 739
q0 -150 -74 -233.5t-215 -83.5t-214.5 83.5t-73.5 233.5t73.5 233t214.5 83t215 -83t74 -233z" />
    <glyph glyph-name="ccedilla" unicode="&#xe7;" 
d="M561 436h-219v604h219q139 0 215 -75.5t76 -227.5q0 -142 -77.5 -221.5t-213.5 -79.5zM428 958v-440h133q40 0 73 10t62.5 33t46.5 68t17 108q0 69 -16.5 115.5t-47 68t-62 29.5t-73.5 8h-133zM1374 518v-82h-426v604h426v-82h-330v-159h287v-82h-287v-199h330zM1542 944
v-508h-86v604h152l153 -493h11l157 493h146v-604h-86v508h-9l-165 -508h-97l-168 508h-8zM2253 739q0 -110 55.5 -173.5t142.5 -63.5t143 63.5t56 173.5t-56 173t-143 63t-142.5 -63t-55.5 -173zM102 1262h2872v-1047h-2872v1047zM2904 285v907h-2734v-907h2734zM2740 739
q0 -150 -74 -233.5t-215 -83.5t-214.5 83.5t-73.5 233.5t73.5 233t214.5 83t215 -83t74 -233z" />
    <glyph glyph-name="egrave" unicode="&#xe8;" 
d="M561 436h-219v604h219q139 0 215 -75.5t76 -227.5q0 -142 -77.5 -221.5t-213.5 -79.5zM428 958v-440h133q40 0 73 10t62.5 33t46.5 68t17 108q0 69 -16.5 115.5t-47 68t-62 29.5t-73.5 8h-133zM1374 518v-82h-426v604h426v-82h-330v-159h287v-82h-287v-199h330zM1542 944
v-508h-86v604h152l153 -493h11l157 493h146v-604h-86v508h-9l-165 -508h-97l-168 508h-8zM2253 739q0 -110 55.5 -173.5t142.5 -63.5t143 63.5t56 173.5t-56 173t-143 63t-142.5 -63t-55.5 -173zM102 1262h2872v-1047h-2872v1047zM2904 285v907h-2734v-907h2734zM2740 739
q0 -150 -74 -233.5t-215 -83.5t-214.5 83.5t-73.5 233.5t73.5 233t214.5 83t215 -83t74 -233z" />
    <glyph glyph-name="eacute" unicode="&#xe9;" 
d="M561 436h-219v604h219q139 0 215 -75.5t76 -227.5q0 -142 -77.5 -221.5t-213.5 -79.5zM428 958v-440h133q40 0 73 10t62.5 33t46.5 68t17 108q0 69 -16.5 115.5t-47 68t-62 29.5t-73.5 8h-133zM1374 518v-82h-426v604h426v-82h-330v-159h287v-82h-287v-199h330zM1542 944
v-508h-86v604h152l153 -493h11l157 493h146v-604h-86v508h-9l-165 -508h-97l-168 508h-8zM2253 739q0 -110 55.5 -173.5t142.5 -63.5t143 63.5t56 173.5t-56 173t-143 63t-142.5 -63t-55.5 -173zM102 1262h2872v-1047h-2872v1047zM2904 285v907h-2734v-907h2734zM2740 739
q0 -150 -74 -233.5t-215 -83.5t-214.5 83.5t-73.5 233.5t73.5 233t214.5 83t215 -83t74 -233z" />
    <glyph glyph-name="ecircumflex" unicode="&#xea;" 
d="M561 436h-219v604h219q139 0 215 -75.5t76 -227.5q0 -142 -77.5 -221.5t-213.5 -79.5zM428 958v-440h133q40 0 73 10t62.5 33t46.5 68t17 108q0 69 -16.5 115.5t-47 68t-62 29.5t-73.5 8h-133zM1374 518v-82h-426v604h426v-82h-330v-159h287v-82h-287v-199h330zM1542 944
v-508h-86v604h152l153 -493h11l157 493h146v-604h-86v508h-9l-165 -508h-97l-168 508h-8zM2253 739q0 -110 55.5 -173.5t142.5 -63.5t143 63.5t56 173.5t-56 173t-143 63t-142.5 -63t-55.5 -173zM102 1262h2872v-1047h-2872v1047zM2904 285v907h-2734v-907h2734zM2740 739
q0 -150 -74 -233.5t-215 -83.5t-214.5 83.5t-73.5 233.5t73.5 233t214.5 83t215 -83t74 -233z" />
    <glyph glyph-name="edieresis" unicode="&#xeb;" 
d="M561 436h-219v604h219q139 0 215 -75.5t76 -227.5q0 -142 -77.5 -221.5t-213.5 -79.5zM428 958v-440h133q40 0 73 10t62.5 33t46.5 68t17 108q0 69 -16.5 115.5t-47 68t-62 29.5t-73.5 8h-133zM1374 518v-82h-426v604h426v-82h-330v-159h287v-82h-287v-199h330zM1542 944
v-508h-86v604h152l153 -493h11l157 493h146v-604h-86v508h-9l-165 -508h-97l-168 508h-8zM2253 739q0 -110 55.5 -173.5t142.5 -63.5t143 63.5t56 173.5t-56 173t-143 63t-142.5 -63t-55.5 -173zM102 1262h2872v-1047h-2872v1047zM2904 285v907h-2734v-907h2734zM2740 739
q0 -150 -74 -233.5t-215 -83.5t-214.5 83.5t-73.5 233.5t73.5 233t214.5 83t215 -83t74 -233z" />
    <glyph glyph-name="igrave" unicode="&#xec;" 
d="M561 436h-219v604h219q139 0 215 -75.5t76 -227.5q0 -142 -77.5 -221.5t-213.5 -79.5zM428 958v-440h133q40 0 73 10t62.5 33t46.5 68t17 108q0 69 -16.5 115.5t-47 68t-62 29.5t-73.5 8h-133zM1374 518v-82h-426v604h426v-82h-330v-159h287v-82h-287v-199h330zM1542 944
v-508h-86v604h152l153 -493h11l157 493h146v-604h-86v508h-9l-165 -508h-97l-168 508h-8zM2253 739q0 -110 55.5 -173.5t142.5 -63.5t143 63.5t56 173.5t-56 173t-143 63t-142.5 -63t-55.5 -173zM102 1262h2872v-1047h-2872v1047zM2904 285v907h-2734v-907h2734zM2740 739
q0 -150 -74 -233.5t-215 -83.5t-214.5 83.5t-73.5 233.5t73.5 233t214.5 83t215 -83t74 -233z" />
    <glyph glyph-name="iacute" unicode="&#xed;" 
d="M561 436h-219v604h219q139 0 215 -75.5t76 -227.5q0 -142 -77.5 -221.5t-213.5 -79.5zM428 958v-440h133q40 0 73 10t62.5 33t46.5 68t17 108q0 69 -16.5 115.5t-47 68t-62 29.5t-73.5 8h-133zM1374 518v-82h-426v604h426v-82h-330v-159h287v-82h-287v-199h330zM1542 944
v-508h-86v604h152l153 -493h11l157 493h146v-604h-86v508h-9l-165 -508h-97l-168 508h-8zM2253 739q0 -110 55.5 -173.5t142.5 -63.5t143 63.5t56 173.5t-56 173t-143 63t-142.5 -63t-55.5 -173zM102 1262h2872v-1047h-2872v1047zM2904 285v907h-2734v-907h2734zM2740 739
q0 -150 -74 -233.5t-215 -83.5t-214.5 83.5t-73.5 233.5t73.5 233t214.5 83t215 -83t74 -233z" />
    <glyph glyph-name="icircumflex" unicode="&#xee;" 
d="M561 436h-219v604h219q139 0 215 -75.5t76 -227.5q0 -142 -77.5 -221.5t-213.5 -79.5zM428 958v-440h133q40 0 73 10t62.5 33t46.5 68t17 108q0 69 -16.5 115.5t-47 68t-62 29.5t-73.5 8h-133zM1374 518v-82h-426v604h426v-82h-330v-159h287v-82h-287v-199h330zM1542 944
v-508h-86v604h152l153 -493h11l157 493h146v-604h-86v508h-9l-165 -508h-97l-168 508h-8zM2253 739q0 -110 55.5 -173.5t142.5 -63.5t143 63.5t56 173.5t-56 173t-143 63t-142.5 -63t-55.5 -173zM102 1262h2872v-1047h-2872v1047zM2904 285v907h-2734v-907h2734zM2740 739
q0 -150 -74 -233.5t-215 -83.5t-214.5 83.5t-73.5 233.5t73.5 233t214.5 83t215 -83t74 -233z" />
    <glyph glyph-name="idieresis" unicode="&#xef;" 
d="M561 436h-219v604h219q139 0 215 -75.5t76 -227.5q0 -142 -77.5 -221.5t-213.5 -79.5zM428 958v-440h133q40 0 73 10t62.5 33t46.5 68t17 108q0 69 -16.5 115.5t-47 68t-62 29.5t-73.5 8h-133zM1374 518v-82h-426v604h426v-82h-330v-159h287v-82h-287v-199h330zM1542 944
v-508h-86v604h152l153 -493h11l157 493h146v-604h-86v508h-9l-165 -508h-97l-168 508h-8zM2253 739q0 -110 55.5 -173.5t142.5 -63.5t143 63.5t56 173.5t-56 173t-143 63t-142.5 -63t-55.5 -173zM102 1262h2872v-1047h-2872v1047zM2904 285v907h-2734v-907h2734zM2740 739
q0 -150 -74 -233.5t-215 -83.5t-214.5 83.5t-73.5 233.5t73.5 233t214.5 83t215 -83t74 -233z" />
    <glyph glyph-name="eth" unicode="&#xf0;" 
d="M561 436h-219v604h219q139 0 215 -75.5t76 -227.5q0 -142 -77.5 -221.5t-213.5 -79.5zM428 958v-440h133q40 0 73 10t62.5 33t46.5 68t17 108q0 69 -16.5 115.5t-47 68t-62 29.5t-73.5 8h-133zM1374 518v-82h-426v604h426v-82h-330v-159h287v-82h-287v-199h330zM1542 944
v-508h-86v604h152l153 -493h11l157 493h146v-604h-86v508h-9l-165 -508h-97l-168 508h-8zM2253 739q0 -110 55.5 -173.5t142.5 -63.5t143 63.5t56 173.5t-56 173t-143 63t-142.5 -63t-55.5 -173zM102 1262h2872v-1047h-2872v1047zM2904 285v907h-2734v-907h2734zM2740 739
q0 -150 -74 -233.5t-215 -83.5t-214.5 83.5t-73.5 233.5t73.5 233t214.5 83t215 -83t74 -233z" />
    <glyph glyph-name="ntilde" unicode="&#xf1;" 
d="M561 436h-219v604h219q139 0 215 -75.5t76 -227.5q0 -142 -77.5 -221.5t-213.5 -79.5zM428 958v-440h133q40 0 73 10t62.5 33t46.5 68t17 108q0 69 -16.5 115.5t-47 68t-62 29.5t-73.5 8h-133zM1374 518v-82h-426v604h426v-82h-330v-159h287v-82h-287v-199h330zM1542 944
v-508h-86v604h152l153 -493h11l157 493h146v-604h-86v508h-9l-165 -508h-97l-168 508h-8zM2253 739q0 -110 55.5 -173.5t142.5 -63.5t143 63.5t56 173.5t-56 173t-143 63t-142.5 -63t-55.5 -173zM102 1262h2872v-1047h-2872v1047zM2904 285v907h-2734v-907h2734zM2740 739
q0 -150 -74 -233.5t-215 -83.5t-214.5 83.5t-73.5 233.5t73.5 233t214.5 83t215 -83t74 -233z" />
    <glyph glyph-name="ograve" unicode="&#xf2;" 
d="M561 436h-219v604h219q139 0 215 -75.5t76 -227.5q0 -142 -77.5 -221.5t-213.5 -79.5zM428 958v-440h133q40 0 73 10t62.5 33t46.5 68t17 108q0 69 -16.5 115.5t-47 68t-62 29.5t-73.5 8h-133zM1374 518v-82h-426v604h426v-82h-330v-159h287v-82h-287v-199h330zM1542 944
v-508h-86v604h152l153 -493h11l157 493h146v-604h-86v508h-9l-165 -508h-97l-168 508h-8zM2253 739q0 -110 55.5 -173.5t142.5 -63.5t143 63.5t56 173.5t-56 173t-143 63t-142.5 -63t-55.5 -173zM102 1262h2872v-1047h-2872v1047zM2904 285v907h-2734v-907h2734zM2740 739
q0 -150 -74 -233.5t-215 -83.5t-214.5 83.5t-73.5 233.5t73.5 233t214.5 83t215 -83t74 -233z" />
    <glyph glyph-name="oacute" unicode="&#xf3;" 
d="M561 436h-219v604h219q139 0 215 -75.5t76 -227.5q0 -142 -77.5 -221.5t-213.5 -79.5zM428 958v-440h133q40 0 73 10t62.5 33t46.5 68t17 108q0 69 -16.5 115.5t-47 68t-62 29.5t-73.5 8h-133zM1374 518v-82h-426v604h426v-82h-330v-159h287v-82h-287v-199h330zM1542 944
v-508h-86v604h152l153 -493h11l157 493h146v-604h-86v508h-9l-165 -508h-97l-168 508h-8zM2253 739q0 -110 55.5 -173.5t142.5 -63.5t143 63.5t56 173.5t-56 173t-143 63t-142.5 -63t-55.5 -173zM102 1262h2872v-1047h-2872v1047zM2904 285v907h-2734v-907h2734zM2740 739
q0 -150 -74 -233.5t-215 -83.5t-214.5 83.5t-73.5 233.5t73.5 233t214.5 83t215 -83t74 -233z" />
    <glyph glyph-name="ocircumflex" unicode="&#xf4;" 
d="M561 436h-219v604h219q139 0 215 -75.5t76 -227.5q0 -142 -77.5 -221.5t-213.5 -79.5zM428 958v-440h133q40 0 73 10t62.5 33t46.5 68t17 108q0 69 -16.5 115.5t-47 68t-62 29.5t-73.5 8h-133zM1374 518v-82h-426v604h426v-82h-330v-159h287v-82h-287v-199h330zM1542 944
v-508h-86v604h152l153 -493h11l157 493h146v-604h-86v508h-9l-165 -508h-97l-168 508h-8zM2253 739q0 -110 55.5 -173.5t142.5 -63.5t143 63.5t56 173.5t-56 173t-143 63t-142.5 -63t-55.5 -173zM102 1262h2872v-1047h-2872v1047zM2904 285v907h-2734v-907h2734zM2740 739
q0 -150 -74 -233.5t-215 -83.5t-214.5 83.5t-73.5 233.5t73.5 233t214.5 83t215 -83t74 -233z" />
    <glyph glyph-name="otilde" unicode="&#xf5;" 
d="M561 436h-219v604h219q139 0 215 -75.5t76 -227.5q0 -142 -77.5 -221.5t-213.5 -79.5zM428 958v-440h133q40 0 73 10t62.5 33t46.5 68t17 108q0 69 -16.5 115.5t-47 68t-62 29.5t-73.5 8h-133zM1374 518v-82h-426v604h426v-82h-330v-159h287v-82h-287v-199h330zM1542 944
v-508h-86v604h152l153 -493h11l157 493h146v-604h-86v508h-9l-165 -508h-97l-168 508h-8zM2253 739q0 -110 55.5 -173.5t142.5 -63.5t143 63.5t56 173.5t-56 173t-143 63t-142.5 -63t-55.5 -173zM102 1262h2872v-1047h-2872v1047zM2904 285v907h-2734v-907h2734zM2740 739
q0 -150 -74 -233.5t-215 -83.5t-214.5 83.5t-73.5 233.5t73.5 233t214.5 83t215 -83t74 -233z" />
    <glyph glyph-name="odieresis" unicode="&#xf6;" 
d="M561 436h-219v604h219q139 0 215 -75.5t76 -227.5q0 -142 -77.5 -221.5t-213.5 -79.5zM428 958v-440h133q40 0 73 10t62.5 33t46.5 68t17 108q0 69 -16.5 115.5t-47 68t-62 29.5t-73.5 8h-133zM1374 518v-82h-426v604h426v-82h-330v-159h287v-82h-287v-199h330zM1542 944
v-508h-86v604h152l153 -493h11l157 493h146v-604h-86v508h-9l-165 -508h-97l-168 508h-8zM2253 739q0 -110 55.5 -173.5t142.5 -63.5t143 63.5t56 173.5t-56 173t-143 63t-142.5 -63t-55.5 -173zM102 1262h2872v-1047h-2872v1047zM2904 285v907h-2734v-907h2734zM2740 739
q0 -150 -74 -233.5t-215 -83.5t-214.5 83.5t-73.5 233.5t73.5 233t214.5 83t215 -83t74 -233z" />
    <glyph glyph-name="divide" unicode="&#xf7;" 
d="M561 436h-219v604h219q139 0 215 -75.5t76 -227.5q0 -142 -77.5 -221.5t-213.5 -79.5zM428 958v-440h133q40 0 73 10t62.5 33t46.5 68t17 108q0 69 -16.5 115.5t-47 68t-62 29.5t-73.5 8h-133zM1374 518v-82h-426v604h426v-82h-330v-159h287v-82h-287v-199h330zM1542 944
v-508h-86v604h152l153 -493h11l157 493h146v-604h-86v508h-9l-165 -508h-97l-168 508h-8zM2253 739q0 -110 55.5 -173.5t142.5 -63.5t143 63.5t56 173.5t-56 173t-143 63t-142.5 -63t-55.5 -173zM102 1262h2872v-1047h-2872v1047zM2904 285v907h-2734v-907h2734zM2740 739
q0 -150 -74 -233.5t-215 -83.5t-214.5 83.5t-73.5 233.5t73.5 233t214.5 83t215 -83t74 -233z" />
    <glyph glyph-name="oslash" unicode="&#xf8;" 
d="M561 436h-219v604h219q139 0 215 -75.5t76 -227.5q0 -142 -77.5 -221.5t-213.5 -79.5zM428 958v-440h133q40 0 73 10t62.5 33t46.5 68t17 108q0 69 -16.5 115.5t-47 68t-62 29.5t-73.5 8h-133zM1374 518v-82h-426v604h426v-82h-330v-159h287v-82h-287v-199h330zM1542 944
v-508h-86v604h152l153 -493h11l157 493h146v-604h-86v508h-9l-165 -508h-97l-168 508h-8zM2253 739q0 -110 55.5 -173.5t142.5 -63.5t143 63.5t56 173.5t-56 173t-143 63t-142.5 -63t-55.5 -173zM102 1262h2872v-1047h-2872v1047zM2904 285v907h-2734v-907h2734zM2740 739
q0 -150 -74 -233.5t-215 -83.5t-214.5 83.5t-73.5 233.5t73.5 233t214.5 83t215 -83t74 -233z" />
    <glyph glyph-name="ugrave" unicode="&#xf9;" 
d="M561 436h-219v604h219q139 0 215 -75.5t76 -227.5q0 -142 -77.5 -221.5t-213.5 -79.5zM428 958v-440h133q40 0 73 10t62.5 33t46.5 68t17 108q0 69 -16.5 115.5t-47 68t-62 29.5t-73.5 8h-133zM1374 518v-82h-426v604h426v-82h-330v-159h287v-82h-287v-199h330zM1542 944
v-508h-86v604h152l153 -493h11l157 493h146v-604h-86v508h-9l-165 -508h-97l-168 508h-8zM2253 739q0 -110 55.5 -173.5t142.5 -63.5t143 63.5t56 173.5t-56 173t-143 63t-142.5 -63t-55.5 -173zM102 1262h2872v-1047h-2872v1047zM2904 285v907h-2734v-907h2734zM2740 739
q0 -150 -74 -233.5t-215 -83.5t-214.5 83.5t-73.5 233.5t73.5 233t214.5 83t215 -83t74 -233z" />
    <glyph glyph-name="uacute" unicode="&#xfa;" 
d="M561 436h-219v604h219q139 0 215 -75.5t76 -227.5q0 -142 -77.5 -221.5t-213.5 -79.5zM428 958v-440h133q40 0 73 10t62.5 33t46.5 68t17 108q0 69 -16.5 115.5t-47 68t-62 29.5t-73.5 8h-133zM1374 518v-82h-426v604h426v-82h-330v-159h287v-82h-287v-199h330zM1542 944
v-508h-86v604h152l153 -493h11l157 493h146v-604h-86v508h-9l-165 -508h-97l-168 508h-8zM2253 739q0 -110 55.5 -173.5t142.5 -63.5t143 63.5t56 173.5t-56 173t-143 63t-142.5 -63t-55.5 -173zM102 1262h2872v-1047h-2872v1047zM2904 285v907h-2734v-907h2734zM2740 739
q0 -150 -74 -233.5t-215 -83.5t-214.5 83.5t-73.5 233.5t73.5 233t214.5 83t215 -83t74 -233z" />
    <glyph glyph-name="ucircumflex" unicode="&#xfb;" 
d="M561 436h-219v604h219q139 0 215 -75.5t76 -227.5q0 -142 -77.5 -221.5t-213.5 -79.5zM428 958v-440h133q40 0 73 10t62.5 33t46.5 68t17 108q0 69 -16.5 115.5t-47 68t-62 29.5t-73.5 8h-133zM1374 518v-82h-426v604h426v-82h-330v-159h287v-82h-287v-199h330zM1542 944
v-508h-86v604h152l153 -493h11l157 493h146v-604h-86v508h-9l-165 -508h-97l-168 508h-8zM2253 739q0 -110 55.5 -173.5t142.5 -63.5t143 63.5t56 173.5t-56 173t-143 63t-142.5 -63t-55.5 -173zM102 1262h2872v-1047h-2872v1047zM2904 285v907h-2734v-907h2734zM2740 739
q0 -150 -74 -233.5t-215 -83.5t-214.5 83.5t-73.5 233.5t73.5 233t214.5 83t215 -83t74 -233z" />
    <glyph glyph-name="udieresis" unicode="&#xfc;" 
d="M561 436h-219v604h219q139 0 215 -75.5t76 -227.5q0 -142 -77.5 -221.5t-213.5 -79.5zM428 958v-440h133q40 0 73 10t62.5 33t46.5 68t17 108q0 69 -16.5 115.5t-47 68t-62 29.5t-73.5 8h-133zM1374 518v-82h-426v604h426v-82h-330v-159h287v-82h-287v-199h330zM1542 944
v-508h-86v604h152l153 -493h11l157 493h146v-604h-86v508h-9l-165 -508h-97l-168 508h-8zM2253 739q0 -110 55.5 -173.5t142.5 -63.5t143 63.5t56 173.5t-56 173t-143 63t-142.5 -63t-55.5 -173zM102 1262h2872v-1047h-2872v1047zM2904 285v907h-2734v-907h2734zM2740 739
q0 -150 -74 -233.5t-215 -83.5t-214.5 83.5t-73.5 233.5t73.5 233t214.5 83t215 -83t74 -233z" />
    <glyph glyph-name="yacute" unicode="&#xfd;" 
d="M561 436h-219v604h219q139 0 215 -75.5t76 -227.5q0 -142 -77.5 -221.5t-213.5 -79.5zM428 958v-440h133q40 0 73 10t62.5 33t46.5 68t17 108q0 69 -16.5 115.5t-47 68t-62 29.5t-73.5 8h-133zM1374 518v-82h-426v604h426v-82h-330v-159h287v-82h-287v-199h330zM1542 944
v-508h-86v604h152l153 -493h11l157 493h146v-604h-86v508h-9l-165 -508h-97l-168 508h-8zM2253 739q0 -110 55.5 -173.5t142.5 -63.5t143 63.5t56 173.5t-56 173t-143 63t-142.5 -63t-55.5 -173zM102 1262h2872v-1047h-2872v1047zM2904 285v907h-2734v-907h2734zM2740 739
q0 -150 -74 -233.5t-215 -83.5t-214.5 83.5t-73.5 233.5t73.5 233t214.5 83t215 -83t74 -233z" />
    <glyph glyph-name="thorn" unicode="&#xfe;" 
d="M561 436h-219v604h219q139 0 215 -75.5t76 -227.5q0 -142 -77.5 -221.5t-213.5 -79.5zM428 958v-440h133q40 0 73 10t62.5 33t46.5 68t17 108q0 69 -16.5 115.5t-47 68t-62 29.5t-73.5 8h-133zM1374 518v-82h-426v604h426v-82h-330v-159h287v-82h-287v-199h330zM1542 944
v-508h-86v604h152l153 -493h11l157 493h146v-604h-86v508h-9l-165 -508h-97l-168 508h-8zM2253 739q0 -110 55.5 -173.5t142.5 -63.5t143 63.5t56 173.5t-56 173t-143 63t-142.5 -63t-55.5 -173zM102 1262h2872v-1047h-2872v1047zM2904 285v907h-2734v-907h2734zM2740 739
q0 -150 -74 -233.5t-215 -83.5t-214.5 83.5t-73.5 233.5t73.5 233t214.5 83t215 -83t74 -233z" />
    <glyph glyph-name="ydieresis" unicode="&#xff;" 
d="M561 436h-219v604h219q139 0 215 -75.5t76 -227.5q0 -142 -77.5 -221.5t-213.5 -79.5zM428 958v-440h133q40 0 73 10t62.5 33t46.5 68t17 108q0 69 -16.5 115.5t-47 68t-62 29.5t-73.5 8h-133zM1374 518v-82h-426v604h426v-82h-330v-159h287v-82h-287v-199h330zM1542 944
v-508h-86v604h152l153 -493h11l157 493h146v-604h-86v508h-9l-165 -508h-97l-168 508h-8zM2253 739q0 -110 55.5 -173.5t142.5 -63.5t143 63.5t56 173.5t-56 173t-143 63t-142.5 -63t-55.5 -173zM102 1262h2872v-1047h-2872v1047zM2904 285v907h-2734v-907h2734zM2740 739
q0 -150 -74 -233.5t-215 -83.5t-214.5 83.5t-73.5 233.5t73.5 233t214.5 83t215 -83t74 -233z" />
    <glyph glyph-name="Amacron" unicode="&#x100;" 
d="M561 436h-219v604h219q139 0 215 -75.5t76 -227.5q0 -142 -77.5 -221.5t-213.5 -79.5zM428 958v-440h133q40 0 73 10t62.5 33t46.5 68t17 108q0 69 -16.5 115.5t-47 68t-62 29.5t-73.5 8h-133zM1374 518v-82h-426v604h426v-82h-330v-159h287v-82h-287v-199h330zM1542 944
v-508h-86v604h152l153 -493h11l157 493h146v-604h-86v508h-9l-165 -508h-97l-168 508h-8zM2253 739q0 -110 55.5 -173.5t142.5 -63.5t143 63.5t56 173.5t-56 173t-143 63t-142.5 -63t-55.5 -173zM102 1262h2872v-1047h-2872v1047zM2904 285v907h-2734v-907h2734zM2740 739
q0 -150 -74 -233.5t-215 -83.5t-214.5 83.5t-73.5 233.5t73.5 233t214.5 83t215 -83t74 -233z" />
    <glyph glyph-name="amacron" unicode="&#x101;" 
d="M561 436h-219v604h219q139 0 215 -75.5t76 -227.5q0 -142 -77.5 -221.5t-213.5 -79.5zM428 958v-440h133q40 0 73 10t62.5 33t46.5 68t17 108q0 69 -16.5 115.5t-47 68t-62 29.5t-73.5 8h-133zM1374 518v-82h-426v604h426v-82h-330v-159h287v-82h-287v-199h330zM1542 944
v-508h-86v604h152l153 -493h11l157 493h146v-604h-86v508h-9l-165 -508h-97l-168 508h-8zM2253 739q0 -110 55.5 -173.5t142.5 -63.5t143 63.5t56 173.5t-56 173t-143 63t-142.5 -63t-55.5 -173zM102 1262h2872v-1047h-2872v1047zM2904 285v907h-2734v-907h2734zM2740 739
q0 -150 -74 -233.5t-215 -83.5t-214.5 83.5t-73.5 233.5t73.5 233t214.5 83t215 -83t74 -233z" />
    <glyph glyph-name="Abreve" unicode="&#x102;" 
d="M561 436h-219v604h219q139 0 215 -75.5t76 -227.5q0 -142 -77.5 -221.5t-213.5 -79.5zM428 958v-440h133q40 0 73 10t62.5 33t46.5 68t17 108q0 69 -16.5 115.5t-47 68t-62 29.5t-73.5 8h-133zM1374 518v-82h-426v604h426v-82h-330v-159h287v-82h-287v-199h330zM1542 944
v-508h-86v604h152l153 -493h11l157 493h146v-604h-86v508h-9l-165 -508h-97l-168 508h-8zM2253 739q0 -110 55.5 -173.5t142.5 -63.5t143 63.5t56 173.5t-56 173t-143 63t-142.5 -63t-55.5 -173zM102 1262h2872v-1047h-2872v1047zM2904 285v907h-2734v-907h2734zM2740 739
q0 -150 -74 -233.5t-215 -83.5t-214.5 83.5t-73.5 233.5t73.5 233t214.5 83t215 -83t74 -233z" />
    <glyph glyph-name="abreve" unicode="&#x103;" 
d="M561 436h-219v604h219q139 0 215 -75.5t76 -227.5q0 -142 -77.5 -221.5t-213.5 -79.5zM428 958v-440h133q40 0 73 10t62.5 33t46.5 68t17 108q0 69 -16.5 115.5t-47 68t-62 29.5t-73.5 8h-133zM1374 518v-82h-426v604h426v-82h-330v-159h287v-82h-287v-199h330zM1542 944
v-508h-86v604h152l153 -493h11l157 493h146v-604h-86v508h-9l-165 -508h-97l-168 508h-8zM2253 739q0 -110 55.5 -173.5t142.5 -63.5t143 63.5t56 173.5t-56 173t-143 63t-142.5 -63t-55.5 -173zM102 1262h2872v-1047h-2872v1047zM2904 285v907h-2734v-907h2734zM2740 739
q0 -150 -74 -233.5t-215 -83.5t-214.5 83.5t-73.5 233.5t73.5 233t214.5 83t215 -83t74 -233z" />
    <glyph glyph-name="Aogonek" unicode="&#x104;" 
d="M561 436h-219v604h219q139 0 215 -75.5t76 -227.5q0 -142 -77.5 -221.5t-213.5 -79.5zM428 958v-440h133q40 0 73 10t62.5 33t46.5 68t17 108q0 69 -16.5 115.5t-47 68t-62 29.5t-73.5 8h-133zM1374 518v-82h-426v604h426v-82h-330v-159h287v-82h-287v-199h330zM1542 944
v-508h-86v604h152l153 -493h11l157 493h146v-604h-86v508h-9l-165 -508h-97l-168 508h-8zM2253 739q0 -110 55.5 -173.5t142.5 -63.5t143 63.5t56 173.5t-56 173t-143 63t-142.5 -63t-55.5 -173zM102 1262h2872v-1047h-2872v1047zM2904 285v907h-2734v-907h2734zM2740 739
q0 -150 -74 -233.5t-215 -83.5t-214.5 83.5t-73.5 233.5t73.5 233t214.5 83t215 -83t74 -233z" />
    <glyph glyph-name="aogonek" unicode="&#x105;" 
d="M561 436h-219v604h219q139 0 215 -75.5t76 -227.5q0 -142 -77.5 -221.5t-213.5 -79.5zM428 958v-440h133q40 0 73 10t62.5 33t46.5 68t17 108q0 69 -16.5 115.5t-47 68t-62 29.5t-73.5 8h-133zM1374 518v-82h-426v604h426v-82h-330v-159h287v-82h-287v-199h330zM1542 944
v-508h-86v604h152l153 -493h11l157 493h146v-604h-86v508h-9l-165 -508h-97l-168 508h-8zM2253 739q0 -110 55.5 -173.5t142.5 -63.5t143 63.5t56 173.5t-56 173t-143 63t-142.5 -63t-55.5 -173zM102 1262h2872v-1047h-2872v1047zM2904 285v907h-2734v-907h2734zM2740 739
q0 -150 -74 -233.5t-215 -83.5t-214.5 83.5t-73.5 233.5t73.5 233t214.5 83t215 -83t74 -233z" />
    <glyph glyph-name="Cacute" unicode="&#x106;" 
d="M561 436h-219v604h219q139 0 215 -75.5t76 -227.5q0 -142 -77.5 -221.5t-213.5 -79.5zM428 958v-440h133q40 0 73 10t62.5 33t46.5 68t17 108q0 69 -16.5 115.5t-47 68t-62 29.5t-73.5 8h-133zM1374 518v-82h-426v604h426v-82h-330v-159h287v-82h-287v-199h330zM1542 944
v-508h-86v604h152l153 -493h11l157 493h146v-604h-86v508h-9l-165 -508h-97l-168 508h-8zM2253 739q0 -110 55.5 -173.5t142.5 -63.5t143 63.5t56 173.5t-56 173t-143 63t-142.5 -63t-55.5 -173zM102 1262h2872v-1047h-2872v1047zM2904 285v907h-2734v-907h2734zM2740 739
q0 -150 -74 -233.5t-215 -83.5t-214.5 83.5t-73.5 233.5t73.5 233t214.5 83t215 -83t74 -233z" />
    <glyph glyph-name="cacute" unicode="&#x107;" 
d="M561 436h-219v604h219q139 0 215 -75.5t76 -227.5q0 -142 -77.5 -221.5t-213.5 -79.5zM428 958v-440h133q40 0 73 10t62.5 33t46.5 68t17 108q0 69 -16.5 115.5t-47 68t-62 29.5t-73.5 8h-133zM1374 518v-82h-426v604h426v-82h-330v-159h287v-82h-287v-199h330zM1542 944
v-508h-86v604h152l153 -493h11l157 493h146v-604h-86v508h-9l-165 -508h-97l-168 508h-8zM2253 739q0 -110 55.5 -173.5t142.5 -63.5t143 63.5t56 173.5t-56 173t-143 63t-142.5 -63t-55.5 -173zM102 1262h2872v-1047h-2872v1047zM2904 285v907h-2734v-907h2734zM2740 739
q0 -150 -74 -233.5t-215 -83.5t-214.5 83.5t-73.5 233.5t73.5 233t214.5 83t215 -83t74 -233z" />
    <glyph glyph-name="Ccircumflex" unicode="&#x108;" 
d="M561 436h-219v604h219q139 0 215 -75.5t76 -227.5q0 -142 -77.5 -221.5t-213.5 -79.5zM428 958v-440h133q40 0 73 10t62.5 33t46.5 68t17 108q0 69 -16.5 115.5t-47 68t-62 29.5t-73.5 8h-133zM1374 518v-82h-426v604h426v-82h-330v-159h287v-82h-287v-199h330zM1542 944
v-508h-86v604h152l153 -493h11l157 493h146v-604h-86v508h-9l-165 -508h-97l-168 508h-8zM2253 739q0 -110 55.5 -173.5t142.5 -63.5t143 63.5t56 173.5t-56 173t-143 63t-142.5 -63t-55.5 -173zM102 1262h2872v-1047h-2872v1047zM2904 285v907h-2734v-907h2734zM2740 739
q0 -150 -74 -233.5t-215 -83.5t-214.5 83.5t-73.5 233.5t73.5 233t214.5 83t215 -83t74 -233z" />
    <glyph glyph-name="ccircumflex" unicode="&#x109;" 
d="M561 436h-219v604h219q139 0 215 -75.5t76 -227.5q0 -142 -77.5 -221.5t-213.5 -79.5zM428 958v-440h133q40 0 73 10t62.5 33t46.5 68t17 108q0 69 -16.5 115.5t-47 68t-62 29.5t-73.5 8h-133zM1374 518v-82h-426v604h426v-82h-330v-159h287v-82h-287v-199h330zM1542 944
v-508h-86v604h152l153 -493h11l157 493h146v-604h-86v508h-9l-165 -508h-97l-168 508h-8zM2253 739q0 -110 55.5 -173.5t142.5 -63.5t143 63.5t56 173.5t-56 173t-143 63t-142.5 -63t-55.5 -173zM102 1262h2872v-1047h-2872v1047zM2904 285v907h-2734v-907h2734zM2740 739
q0 -150 -74 -233.5t-215 -83.5t-214.5 83.5t-73.5 233.5t73.5 233t214.5 83t215 -83t74 -233z" />
    <glyph glyph-name="Ccaron" unicode="&#x10c;" 
d="M561 436h-219v604h219q139 0 215 -75.5t76 -227.5q0 -142 -77.5 -221.5t-213.5 -79.5zM428 958v-440h133q40 0 73 10t62.5 33t46.5 68t17 108q0 69 -16.5 115.5t-47 68t-62 29.5t-73.5 8h-133zM1374 518v-82h-426v604h426v-82h-330v-159h287v-82h-287v-199h330zM1542 944
v-508h-86v604h152l153 -493h11l157 493h146v-604h-86v508h-9l-165 -508h-97l-168 508h-8zM2253 739q0 -110 55.5 -173.5t142.5 -63.5t143 63.5t56 173.5t-56 173t-143 63t-142.5 -63t-55.5 -173zM102 1262h2872v-1047h-2872v1047zM2904 285v907h-2734v-907h2734zM2740 739
q0 -150 -74 -233.5t-215 -83.5t-214.5 83.5t-73.5 233.5t73.5 233t214.5 83t215 -83t74 -233z" />
    <glyph glyph-name="ccaron" unicode="&#x10d;" 
d="M561 436h-219v604h219q139 0 215 -75.5t76 -227.5q0 -142 -77.5 -221.5t-213.5 -79.5zM428 958v-440h133q40 0 73 10t62.5 33t46.5 68t17 108q0 69 -16.5 115.5t-47 68t-62 29.5t-73.5 8h-133zM1374 518v-82h-426v604h426v-82h-330v-159h287v-82h-287v-199h330zM1542 944
v-508h-86v604h152l153 -493h11l157 493h146v-604h-86v508h-9l-165 -508h-97l-168 508h-8zM2253 739q0 -110 55.5 -173.5t142.5 -63.5t143 63.5t56 173.5t-56 173t-143 63t-142.5 -63t-55.5 -173zM102 1262h2872v-1047h-2872v1047zM2904 285v907h-2734v-907h2734zM2740 739
q0 -150 -74 -233.5t-215 -83.5t-214.5 83.5t-73.5 233.5t73.5 233t214.5 83t215 -83t74 -233z" />
    <glyph glyph-name="Dcaron" unicode="&#x10e;" 
d="M561 436h-219v604h219q139 0 215 -75.5t76 -227.5q0 -142 -77.5 -221.5t-213.5 -79.5zM428 958v-440h133q40 0 73 10t62.5 33t46.5 68t17 108q0 69 -16.5 115.5t-47 68t-62 29.5t-73.5 8h-133zM1374 518v-82h-426v604h426v-82h-330v-159h287v-82h-287v-199h330zM1542 944
v-508h-86v604h152l153 -493h11l157 493h146v-604h-86v508h-9l-165 -508h-97l-168 508h-8zM2253 739q0 -110 55.5 -173.5t142.5 -63.5t143 63.5t56 173.5t-56 173t-143 63t-142.5 -63t-55.5 -173zM102 1262h2872v-1047h-2872v1047zM2904 285v907h-2734v-907h2734zM2740 739
q0 -150 -74 -233.5t-215 -83.5t-214.5 83.5t-73.5 233.5t73.5 233t214.5 83t215 -83t74 -233z" />
    <glyph glyph-name="dcaron" unicode="&#x10f;" 
d="M561 436h-219v604h219q139 0 215 -75.5t76 -227.5q0 -142 -77.5 -221.5t-213.5 -79.5zM428 958v-440h133q40 0 73 10t62.5 33t46.5 68t17 108q0 69 -16.5 115.5t-47 68t-62 29.5t-73.5 8h-133zM1374 518v-82h-426v604h426v-82h-330v-159h287v-82h-287v-199h330zM1542 944
v-508h-86v604h152l153 -493h11l157 493h146v-604h-86v508h-9l-165 -508h-97l-168 508h-8zM2253 739q0 -110 55.5 -173.5t142.5 -63.5t143 63.5t56 173.5t-56 173t-143 63t-142.5 -63t-55.5 -173zM102 1262h2872v-1047h-2872v1047zM2904 285v907h-2734v-907h2734zM2740 739
q0 -150 -74 -233.5t-215 -83.5t-214.5 83.5t-73.5 233.5t73.5 233t214.5 83t215 -83t74 -233z" />
    <glyph glyph-name="Dcroat" unicode="&#x110;" 
d="M561 436h-219v604h219q139 0 215 -75.5t76 -227.5q0 -142 -77.5 -221.5t-213.5 -79.5zM428 958v-440h133q40 0 73 10t62.5 33t46.5 68t17 108q0 69 -16.5 115.5t-47 68t-62 29.5t-73.5 8h-133zM1374 518v-82h-426v604h426v-82h-330v-159h287v-82h-287v-199h330zM1542 944
v-508h-86v604h152l153 -493h11l157 493h146v-604h-86v508h-9l-165 -508h-97l-168 508h-8zM2253 739q0 -110 55.5 -173.5t142.5 -63.5t143 63.5t56 173.5t-56 173t-143 63t-142.5 -63t-55.5 -173zM102 1262h2872v-1047h-2872v1047zM2904 285v907h-2734v-907h2734zM2740 739
q0 -150 -74 -233.5t-215 -83.5t-214.5 83.5t-73.5 233.5t73.5 233t214.5 83t215 -83t74 -233z" />
    <glyph glyph-name="dcroat" unicode="&#x111;" 
d="M561 436h-219v604h219q139 0 215 -75.5t76 -227.5q0 -142 -77.5 -221.5t-213.5 -79.5zM428 958v-440h133q40 0 73 10t62.5 33t46.5 68t17 108q0 69 -16.5 115.5t-47 68t-62 29.5t-73.5 8h-133zM1374 518v-82h-426v604h426v-82h-330v-159h287v-82h-287v-199h330zM1542 944
v-508h-86v604h152l153 -493h11l157 493h146v-604h-86v508h-9l-165 -508h-97l-168 508h-8zM2253 739q0 -110 55.5 -173.5t142.5 -63.5t143 63.5t56 173.5t-56 173t-143 63t-142.5 -63t-55.5 -173zM102 1262h2872v-1047h-2872v1047zM2904 285v907h-2734v-907h2734zM2740 739
q0 -150 -74 -233.5t-215 -83.5t-214.5 83.5t-73.5 233.5t73.5 233t214.5 83t215 -83t74 -233z" />
    <glyph glyph-name="Emacron" unicode="&#x112;" 
d="M561 436h-219v604h219q139 0 215 -75.5t76 -227.5q0 -142 -77.5 -221.5t-213.5 -79.5zM428 958v-440h133q40 0 73 10t62.5 33t46.5 68t17 108q0 69 -16.5 115.5t-47 68t-62 29.5t-73.5 8h-133zM1374 518v-82h-426v604h426v-82h-330v-159h287v-82h-287v-199h330zM1542 944
v-508h-86v604h152l153 -493h11l157 493h146v-604h-86v508h-9l-165 -508h-97l-168 508h-8zM2253 739q0 -110 55.5 -173.5t142.5 -63.5t143 63.5t56 173.5t-56 173t-143 63t-142.5 -63t-55.5 -173zM102 1262h2872v-1047h-2872v1047zM2904 285v907h-2734v-907h2734zM2740 739
q0 -150 -74 -233.5t-215 -83.5t-214.5 83.5t-73.5 233.5t73.5 233t214.5 83t215 -83t74 -233z" />
    <glyph glyph-name="emacron" unicode="&#x113;" 
d="M561 436h-219v604h219q139 0 215 -75.5t76 -227.5q0 -142 -77.5 -221.5t-213.5 -79.5zM428 958v-440h133q40 0 73 10t62.5 33t46.5 68t17 108q0 69 -16.5 115.5t-47 68t-62 29.5t-73.5 8h-133zM1374 518v-82h-426v604h426v-82h-330v-159h287v-82h-287v-199h330zM1542 944
v-508h-86v604h152l153 -493h11l157 493h146v-604h-86v508h-9l-165 -508h-97l-168 508h-8zM2253 739q0 -110 55.5 -173.5t142.5 -63.5t143 63.5t56 173.5t-56 173t-143 63t-142.5 -63t-55.5 -173zM102 1262h2872v-1047h-2872v1047zM2904 285v907h-2734v-907h2734zM2740 739
q0 -150 -74 -233.5t-215 -83.5t-214.5 83.5t-73.5 233.5t73.5 233t214.5 83t215 -83t74 -233z" />
    <glyph glyph-name="Edotaccent" unicode="&#x116;" 
d="M561 436h-219v604h219q139 0 215 -75.5t76 -227.5q0 -142 -77.5 -221.5t-213.5 -79.5zM428 958v-440h133q40 0 73 10t62.5 33t46.5 68t17 108q0 69 -16.5 115.5t-47 68t-62 29.5t-73.5 8h-133zM1374 518v-82h-426v604h426v-82h-330v-159h287v-82h-287v-199h330zM1542 944
v-508h-86v604h152l153 -493h11l157 493h146v-604h-86v508h-9l-165 -508h-97l-168 508h-8zM2253 739q0 -110 55.5 -173.5t142.5 -63.5t143 63.5t56 173.5t-56 173t-143 63t-142.5 -63t-55.5 -173zM102 1262h2872v-1047h-2872v1047zM2904 285v907h-2734v-907h2734zM2740 739
q0 -150 -74 -233.5t-215 -83.5t-214.5 83.5t-73.5 233.5t73.5 233t214.5 83t215 -83t74 -233z" />
    <glyph glyph-name="edotaccent" unicode="&#x117;" 
d="M561 436h-219v604h219q139 0 215 -75.5t76 -227.5q0 -142 -77.5 -221.5t-213.5 -79.5zM428 958v-440h133q40 0 73 10t62.5 33t46.5 68t17 108q0 69 -16.5 115.5t-47 68t-62 29.5t-73.5 8h-133zM1374 518v-82h-426v604h426v-82h-330v-159h287v-82h-287v-199h330zM1542 944
v-508h-86v604h152l153 -493h11l157 493h146v-604h-86v508h-9l-165 -508h-97l-168 508h-8zM2253 739q0 -110 55.5 -173.5t142.5 -63.5t143 63.5t56 173.5t-56 173t-143 63t-142.5 -63t-55.5 -173zM102 1262h2872v-1047h-2872v1047zM2904 285v907h-2734v-907h2734zM2740 739
q0 -150 -74 -233.5t-215 -83.5t-214.5 83.5t-73.5 233.5t73.5 233t214.5 83t215 -83t74 -233z" />
    <glyph glyph-name="Eogonek" unicode="&#x118;" 
d="M561 436h-219v604h219q139 0 215 -75.5t76 -227.5q0 -142 -77.5 -221.5t-213.5 -79.5zM428 958v-440h133q40 0 73 10t62.5 33t46.5 68t17 108q0 69 -16.5 115.5t-47 68t-62 29.5t-73.5 8h-133zM1374 518v-82h-426v604h426v-82h-330v-159h287v-82h-287v-199h330zM1542 944
v-508h-86v604h152l153 -493h11l157 493h146v-604h-86v508h-9l-165 -508h-97l-168 508h-8zM2253 739q0 -110 55.5 -173.5t142.5 -63.5t143 63.5t56 173.5t-56 173t-143 63t-142.5 -63t-55.5 -173zM102 1262h2872v-1047h-2872v1047zM2904 285v907h-2734v-907h2734zM2740 739
q0 -150 -74 -233.5t-215 -83.5t-214.5 83.5t-73.5 233.5t73.5 233t214.5 83t215 -83t74 -233z" />
    <glyph glyph-name="eogonek" unicode="&#x119;" 
d="M561 436h-219v604h219q139 0 215 -75.5t76 -227.5q0 -142 -77.5 -221.5t-213.5 -79.5zM428 958v-440h133q40 0 73 10t62.5 33t46.5 68t17 108q0 69 -16.5 115.5t-47 68t-62 29.5t-73.5 8h-133zM1374 518v-82h-426v604h426v-82h-330v-159h287v-82h-287v-199h330zM1542 944
v-508h-86v604h152l153 -493h11l157 493h146v-604h-86v508h-9l-165 -508h-97l-168 508h-8zM2253 739q0 -110 55.5 -173.5t142.5 -63.5t143 63.5t56 173.5t-56 173t-143 63t-142.5 -63t-55.5 -173zM102 1262h2872v-1047h-2872v1047zM2904 285v907h-2734v-907h2734zM2740 739
q0 -150 -74 -233.5t-215 -83.5t-214.5 83.5t-73.5 233.5t73.5 233t214.5 83t215 -83t74 -233z" />
    <glyph glyph-name="Ecaron" unicode="&#x11a;" 
d="M561 436h-219v604h219q139 0 215 -75.5t76 -227.5q0 -142 -77.5 -221.5t-213.5 -79.5zM428 958v-440h133q40 0 73 10t62.5 33t46.5 68t17 108q0 69 -16.5 115.5t-47 68t-62 29.5t-73.5 8h-133zM1374 518v-82h-426v604h426v-82h-330v-159h287v-82h-287v-199h330zM1542 944
v-508h-86v604h152l153 -493h11l157 493h146v-604h-86v508h-9l-165 -508h-97l-168 508h-8zM2253 739q0 -110 55.5 -173.5t142.5 -63.5t143 63.5t56 173.5t-56 173t-143 63t-142.5 -63t-55.5 -173zM102 1262h2872v-1047h-2872v1047zM2904 285v907h-2734v-907h2734zM2740 739
q0 -150 -74 -233.5t-215 -83.5t-214.5 83.5t-73.5 233.5t73.5 233t214.5 83t215 -83t74 -233z" />
    <glyph glyph-name="ecaron" unicode="&#x11b;" 
d="M561 436h-219v604h219q139 0 215 -75.5t76 -227.5q0 -142 -77.5 -221.5t-213.5 -79.5zM428 958v-440h133q40 0 73 10t62.5 33t46.5 68t17 108q0 69 -16.5 115.5t-47 68t-62 29.5t-73.5 8h-133zM1374 518v-82h-426v604h426v-82h-330v-159h287v-82h-287v-199h330zM1542 944
v-508h-86v604h152l153 -493h11l157 493h146v-604h-86v508h-9l-165 -508h-97l-168 508h-8zM2253 739q0 -110 55.5 -173.5t142.5 -63.5t143 63.5t56 173.5t-56 173t-143 63t-142.5 -63t-55.5 -173zM102 1262h2872v-1047h-2872v1047zM2904 285v907h-2734v-907h2734zM2740 739
q0 -150 -74 -233.5t-215 -83.5t-214.5 83.5t-73.5 233.5t73.5 233t214.5 83t215 -83t74 -233z" />
    <glyph glyph-name="Gbreve" unicode="&#x11e;" 
d="M561 436h-219v604h219q139 0 215 -75.5t76 -227.5q0 -142 -77.5 -221.5t-213.5 -79.5zM428 958v-440h133q40 0 73 10t62.5 33t46.5 68t17 108q0 69 -16.5 115.5t-47 68t-62 29.5t-73.5 8h-133zM1374 518v-82h-426v604h426v-82h-330v-159h287v-82h-287v-199h330zM1542 944
v-508h-86v604h152l153 -493h11l157 493h146v-604h-86v508h-9l-165 -508h-97l-168 508h-8zM2253 739q0 -110 55.5 -173.5t142.5 -63.5t143 63.5t56 173.5t-56 173t-143 63t-142.5 -63t-55.5 -173zM102 1262h2872v-1047h-2872v1047zM2904 285v907h-2734v-907h2734zM2740 739
q0 -150 -74 -233.5t-215 -83.5t-214.5 83.5t-73.5 233.5t73.5 233t214.5 83t215 -83t74 -233z" />
    <glyph glyph-name="gbreve" unicode="&#x11f;" 
d="M561 436h-219v604h219q139 0 215 -75.5t76 -227.5q0 -142 -77.5 -221.5t-213.5 -79.5zM428 958v-440h133q40 0 73 10t62.5 33t46.5 68t17 108q0 69 -16.5 115.5t-47 68t-62 29.5t-73.5 8h-133zM1374 518v-82h-426v604h426v-82h-330v-159h287v-82h-287v-199h330zM1542 944
v-508h-86v604h152l153 -493h11l157 493h146v-604h-86v508h-9l-165 -508h-97l-168 508h-8zM2253 739q0 -110 55.5 -173.5t142.5 -63.5t143 63.5t56 173.5t-56 173t-143 63t-142.5 -63t-55.5 -173zM102 1262h2872v-1047h-2872v1047zM2904 285v907h-2734v-907h2734zM2740 739
q0 -150 -74 -233.5t-215 -83.5t-214.5 83.5t-73.5 233.5t73.5 233t214.5 83t215 -83t74 -233z" />
    <glyph glyph-name="Gcommaaccent" unicode="&#x122;" 
d="M561 436h-219v604h219q139 0 215 -75.5t76 -227.5q0 -142 -77.5 -221.5t-213.5 -79.5zM428 958v-440h133q40 0 73 10t62.5 33t46.5 68t17 108q0 69 -16.5 115.5t-47 68t-62 29.5t-73.5 8h-133zM1374 518v-82h-426v604h426v-82h-330v-159h287v-82h-287v-199h330zM1542 944
v-508h-86v604h152l153 -493h11l157 493h146v-604h-86v508h-9l-165 -508h-97l-168 508h-8zM2253 739q0 -110 55.5 -173.5t142.5 -63.5t143 63.5t56 173.5t-56 173t-143 63t-142.5 -63t-55.5 -173zM102 1262h2872v-1047h-2872v1047zM2904 285v907h-2734v-907h2734zM2740 739
q0 -150 -74 -233.5t-215 -83.5t-214.5 83.5t-73.5 233.5t73.5 233t214.5 83t215 -83t74 -233z" />
    <glyph glyph-name="gcommaaccent" unicode="&#x123;" 
d="M561 436h-219v604h219q139 0 215 -75.5t76 -227.5q0 -142 -77.5 -221.5t-213.5 -79.5zM428 958v-440h133q40 0 73 10t62.5 33t46.5 68t17 108q0 69 -16.5 115.5t-47 68t-62 29.5t-73.5 8h-133zM1374 518v-82h-426v604h426v-82h-330v-159h287v-82h-287v-199h330zM1542 944
v-508h-86v604h152l153 -493h11l157 493h146v-604h-86v508h-9l-165 -508h-97l-168 508h-8zM2253 739q0 -110 55.5 -173.5t142.5 -63.5t143 63.5t56 173.5t-56 173t-143 63t-142.5 -63t-55.5 -173zM102 1262h2872v-1047h-2872v1047zM2904 285v907h-2734v-907h2734zM2740 739
q0 -150 -74 -233.5t-215 -83.5t-214.5 83.5t-73.5 233.5t73.5 233t214.5 83t215 -83t74 -233z" />
    <glyph glyph-name="Imacron" unicode="&#x12a;" 
d="M561 436h-219v604h219q139 0 215 -75.5t76 -227.5q0 -142 -77.5 -221.5t-213.5 -79.5zM428 958v-440h133q40 0 73 10t62.5 33t46.5 68t17 108q0 69 -16.5 115.5t-47 68t-62 29.5t-73.5 8h-133zM1374 518v-82h-426v604h426v-82h-330v-159h287v-82h-287v-199h330zM1542 944
v-508h-86v604h152l153 -493h11l157 493h146v-604h-86v508h-9l-165 -508h-97l-168 508h-8zM2253 739q0 -110 55.5 -173.5t142.5 -63.5t143 63.5t56 173.5t-56 173t-143 63t-142.5 -63t-55.5 -173zM102 1262h2872v-1047h-2872v1047zM2904 285v907h-2734v-907h2734zM2740 739
q0 -150 -74 -233.5t-215 -83.5t-214.5 83.5t-73.5 233.5t73.5 233t214.5 83t215 -83t74 -233z" />
    <glyph glyph-name="imacron" unicode="&#x12b;" 
d="M561 436h-219v604h219q139 0 215 -75.5t76 -227.5q0 -142 -77.5 -221.5t-213.5 -79.5zM428 958v-440h133q40 0 73 10t62.5 33t46.5 68t17 108q0 69 -16.5 115.5t-47 68t-62 29.5t-73.5 8h-133zM1374 518v-82h-426v604h426v-82h-330v-159h287v-82h-287v-199h330zM1542 944
v-508h-86v604h152l153 -493h11l157 493h146v-604h-86v508h-9l-165 -508h-97l-168 508h-8zM2253 739q0 -110 55.5 -173.5t142.5 -63.5t143 63.5t56 173.5t-56 173t-143 63t-142.5 -63t-55.5 -173zM102 1262h2872v-1047h-2872v1047zM2904 285v907h-2734v-907h2734zM2740 739
q0 -150 -74 -233.5t-215 -83.5t-214.5 83.5t-73.5 233.5t73.5 233t214.5 83t215 -83t74 -233z" />
    <glyph glyph-name="Iogonek" unicode="&#x12e;" 
d="M561 436h-219v604h219q139 0 215 -75.5t76 -227.5q0 -142 -77.5 -221.5t-213.5 -79.5zM428 958v-440h133q40 0 73 10t62.5 33t46.5 68t17 108q0 69 -16.5 115.5t-47 68t-62 29.5t-73.5 8h-133zM1374 518v-82h-426v604h426v-82h-330v-159h287v-82h-287v-199h330zM1542 944
v-508h-86v604h152l153 -493h11l157 493h146v-604h-86v508h-9l-165 -508h-97l-168 508h-8zM2253 739q0 -110 55.5 -173.5t142.5 -63.5t143 63.5t56 173.5t-56 173t-143 63t-142.5 -63t-55.5 -173zM102 1262h2872v-1047h-2872v1047zM2904 285v907h-2734v-907h2734zM2740 739
q0 -150 -74 -233.5t-215 -83.5t-214.5 83.5t-73.5 233.5t73.5 233t214.5 83t215 -83t74 -233z" />
    <glyph glyph-name="iogonek" unicode="&#x12f;" 
d="M561 436h-219v604h219q139 0 215 -75.5t76 -227.5q0 -142 -77.5 -221.5t-213.5 -79.5zM428 958v-440h133q40 0 73 10t62.5 33t46.5 68t17 108q0 69 -16.5 115.5t-47 68t-62 29.5t-73.5 8h-133zM1374 518v-82h-426v604h426v-82h-330v-159h287v-82h-287v-199h330zM1542 944
v-508h-86v604h152l153 -493h11l157 493h146v-604h-86v508h-9l-165 -508h-97l-168 508h-8zM2253 739q0 -110 55.5 -173.5t142.5 -63.5t143 63.5t56 173.5t-56 173t-143 63t-142.5 -63t-55.5 -173zM102 1262h2872v-1047h-2872v1047zM2904 285v907h-2734v-907h2734zM2740 739
q0 -150 -74 -233.5t-215 -83.5t-214.5 83.5t-73.5 233.5t73.5 233t214.5 83t215 -83t74 -233z" />
    <glyph glyph-name="Idotaccent" unicode="&#x130;" 
d="M561 436h-219v604h219q139 0 215 -75.5t76 -227.5q0 -142 -77.5 -221.5t-213.5 -79.5zM428 958v-440h133q40 0 73 10t62.5 33t46.5 68t17 108q0 69 -16.5 115.5t-47 68t-62 29.5t-73.5 8h-133zM1374 518v-82h-426v604h426v-82h-330v-159h287v-82h-287v-199h330zM1542 944
v-508h-86v604h152l153 -493h11l157 493h146v-604h-86v508h-9l-165 -508h-97l-168 508h-8zM2253 739q0 -110 55.5 -173.5t142.5 -63.5t143 63.5t56 173.5t-56 173t-143 63t-142.5 -63t-55.5 -173zM102 1262h2872v-1047h-2872v1047zM2904 285v907h-2734v-907h2734zM2740 739
q0 -150 -74 -233.5t-215 -83.5t-214.5 83.5t-73.5 233.5t73.5 233t214.5 83t215 -83t74 -233z" />
    <glyph glyph-name="dotlessi" unicode="&#x131;" 
d="M561 436h-219v604h219q139 0 215 -75.5t76 -227.5q0 -142 -77.5 -221.5t-213.5 -79.5zM428 958v-440h133q40 0 73 10t62.5 33t46.5 68t17 108q0 69 -16.5 115.5t-47 68t-62 29.5t-73.5 8h-133zM1374 518v-82h-426v604h426v-82h-330v-159h287v-82h-287v-199h330zM1542 944
v-508h-86v604h152l153 -493h11l157 493h146v-604h-86v508h-9l-165 -508h-97l-168 508h-8zM2253 739q0 -110 55.5 -173.5t142.5 -63.5t143 63.5t56 173.5t-56 173t-143 63t-142.5 -63t-55.5 -173zM102 1262h2872v-1047h-2872v1047zM2904 285v907h-2734v-907h2734zM2740 739
q0 -150 -74 -233.5t-215 -83.5t-214.5 83.5t-73.5 233.5t73.5 233t214.5 83t215 -83t74 -233z" />
    <glyph glyph-name="Kcommaaccent" unicode="&#x136;" 
d="M561 436h-219v604h219q139 0 215 -75.5t76 -227.5q0 -142 -77.5 -221.5t-213.5 -79.5zM428 958v-440h133q40 0 73 10t62.5 33t46.5 68t17 108q0 69 -16.5 115.5t-47 68t-62 29.5t-73.5 8h-133zM1374 518v-82h-426v604h426v-82h-330v-159h287v-82h-287v-199h330zM1542 944
v-508h-86v604h152l153 -493h11l157 493h146v-604h-86v508h-9l-165 -508h-97l-168 508h-8zM2253 739q0 -110 55.5 -173.5t142.5 -63.5t143 63.5t56 173.5t-56 173t-143 63t-142.5 -63t-55.5 -173zM102 1262h2872v-1047h-2872v1047zM2904 285v907h-2734v-907h2734zM2740 739
q0 -150 -74 -233.5t-215 -83.5t-214.5 83.5t-73.5 233.5t73.5 233t214.5 83t215 -83t74 -233z" />
    <glyph glyph-name="kcommaaccent" unicode="&#x137;" 
d="M561 436h-219v604h219q139 0 215 -75.5t76 -227.5q0 -142 -77.5 -221.5t-213.5 -79.5zM428 958v-440h133q40 0 73 10t62.5 33t46.5 68t17 108q0 69 -16.5 115.5t-47 68t-62 29.5t-73.5 8h-133zM1374 518v-82h-426v604h426v-82h-330v-159h287v-82h-287v-199h330zM1542 944
v-508h-86v604h152l153 -493h11l157 493h146v-604h-86v508h-9l-165 -508h-97l-168 508h-8zM2253 739q0 -110 55.5 -173.5t142.5 -63.5t143 63.5t56 173.5t-56 173t-143 63t-142.5 -63t-55.5 -173zM102 1262h2872v-1047h-2872v1047zM2904 285v907h-2734v-907h2734zM2740 739
q0 -150 -74 -233.5t-215 -83.5t-214.5 83.5t-73.5 233.5t73.5 233t214.5 83t215 -83t74 -233z" />
    <glyph glyph-name="Lacute" unicode="&#x139;" 
d="M561 436h-219v604h219q139 0 215 -75.5t76 -227.5q0 -142 -77.5 -221.5t-213.5 -79.5zM428 958v-440h133q40 0 73 10t62.5 33t46.5 68t17 108q0 69 -16.5 115.5t-47 68t-62 29.5t-73.5 8h-133zM1374 518v-82h-426v604h426v-82h-330v-159h287v-82h-287v-199h330zM1542 944
v-508h-86v604h152l153 -493h11l157 493h146v-604h-86v508h-9l-165 -508h-97l-168 508h-8zM2253 739q0 -110 55.5 -173.5t142.5 -63.5t143 63.5t56 173.5t-56 173t-143 63t-142.5 -63t-55.5 -173zM102 1262h2872v-1047h-2872v1047zM2904 285v907h-2734v-907h2734zM2740 739
q0 -150 -74 -233.5t-215 -83.5t-214.5 83.5t-73.5 233.5t73.5 233t214.5 83t215 -83t74 -233z" />
    <glyph glyph-name="lacute" unicode="&#x13a;" 
d="M561 436h-219v604h219q139 0 215 -75.5t76 -227.5q0 -142 -77.5 -221.5t-213.5 -79.5zM428 958v-440h133q40 0 73 10t62.5 33t46.5 68t17 108q0 69 -16.5 115.5t-47 68t-62 29.5t-73.5 8h-133zM1374 518v-82h-426v604h426v-82h-330v-159h287v-82h-287v-199h330zM1542 944
v-508h-86v604h152l153 -493h11l157 493h146v-604h-86v508h-9l-165 -508h-97l-168 508h-8zM2253 739q0 -110 55.5 -173.5t142.5 -63.5t143 63.5t56 173.5t-56 173t-143 63t-142.5 -63t-55.5 -173zM102 1262h2872v-1047h-2872v1047zM2904 285v907h-2734v-907h2734zM2740 739
q0 -150 -74 -233.5t-215 -83.5t-214.5 83.5t-73.5 233.5t73.5 233t214.5 83t215 -83t74 -233z" />
    <glyph glyph-name="uni013B" unicode="&#x13b;" 
d="M561 436h-219v604h219q139 0 215 -75.5t76 -227.5q0 -142 -77.5 -221.5t-213.5 -79.5zM428 958v-440h133q40 0 73 10t62.5 33t46.5 68t17 108q0 69 -16.5 115.5t-47 68t-62 29.5t-73.5 8h-133zM1374 518v-82h-426v604h426v-82h-330v-159h287v-82h-287v-199h330zM1542 944
v-508h-86v604h152l153 -493h11l157 493h146v-604h-86v508h-9l-165 -508h-97l-168 508h-8zM2253 739q0 -110 55.5 -173.5t142.5 -63.5t143 63.5t56 173.5t-56 173t-143 63t-142.5 -63t-55.5 -173zM102 1262h2872v-1047h-2872v1047zM2904 285v907h-2734v-907h2734zM2740 739
q0 -150 -74 -233.5t-215 -83.5t-214.5 83.5t-73.5 233.5t73.5 233t214.5 83t215 -83t74 -233z" />
    <glyph glyph-name="uni013C" unicode="&#x13c;" 
d="M561 436h-219v604h219q139 0 215 -75.5t76 -227.5q0 -142 -77.5 -221.5t-213.5 -79.5zM428 958v-440h133q40 0 73 10t62.5 33t46.5 68t17 108q0 69 -16.5 115.5t-47 68t-62 29.5t-73.5 8h-133zM1374 518v-82h-426v604h426v-82h-330v-159h287v-82h-287v-199h330zM1542 944
v-508h-86v604h152l153 -493h11l157 493h146v-604h-86v508h-9l-165 -508h-97l-168 508h-8zM2253 739q0 -110 55.5 -173.5t142.5 -63.5t143 63.5t56 173.5t-56 173t-143 63t-142.5 -63t-55.5 -173zM102 1262h2872v-1047h-2872v1047zM2904 285v907h-2734v-907h2734zM2740 739
q0 -150 -74 -233.5t-215 -83.5t-214.5 83.5t-73.5 233.5t73.5 233t214.5 83t215 -83t74 -233z" />
    <glyph glyph-name="Lcaron" unicode="&#x13d;" 
d="M561 436h-219v604h219q139 0 215 -75.5t76 -227.5q0 -142 -77.5 -221.5t-213.5 -79.5zM428 958v-440h133q40 0 73 10t62.5 33t46.5 68t17 108q0 69 -16.5 115.5t-47 68t-62 29.5t-73.5 8h-133zM1374 518v-82h-426v604h426v-82h-330v-159h287v-82h-287v-199h330zM1542 944
v-508h-86v604h152l153 -493h11l157 493h146v-604h-86v508h-9l-165 -508h-97l-168 508h-8zM2253 739q0 -110 55.5 -173.5t142.5 -63.5t143 63.5t56 173.5t-56 173t-143 63t-142.5 -63t-55.5 -173zM102 1262h2872v-1047h-2872v1047zM2904 285v907h-2734v-907h2734zM2740 739
q0 -150 -74 -233.5t-215 -83.5t-214.5 83.5t-73.5 233.5t73.5 233t214.5 83t215 -83t74 -233z" />
    <glyph glyph-name="lcaron" unicode="&#x13e;" 
d="M561 436h-219v604h219q139 0 215 -75.5t76 -227.5q0 -142 -77.5 -221.5t-213.5 -79.5zM428 958v-440h133q40 0 73 10t62.5 33t46.5 68t17 108q0 69 -16.5 115.5t-47 68t-62 29.5t-73.5 8h-133zM1374 518v-82h-426v604h426v-82h-330v-159h287v-82h-287v-199h330zM1542 944
v-508h-86v604h152l153 -493h11l157 493h146v-604h-86v508h-9l-165 -508h-97l-168 508h-8zM2253 739q0 -110 55.5 -173.5t142.5 -63.5t143 63.5t56 173.5t-56 173t-143 63t-142.5 -63t-55.5 -173zM102 1262h2872v-1047h-2872v1047zM2904 285v907h-2734v-907h2734zM2740 739
q0 -150 -74 -233.5t-215 -83.5t-214.5 83.5t-73.5 233.5t73.5 233t214.5 83t215 -83t74 -233z" />
    <glyph glyph-name="Lslash" unicode="&#x141;" 
d="M561 436h-219v604h219q139 0 215 -75.5t76 -227.5q0 -142 -77.5 -221.5t-213.5 -79.5zM428 958v-440h133q40 0 73 10t62.5 33t46.5 68t17 108q0 69 -16.5 115.5t-47 68t-62 29.5t-73.5 8h-133zM1374 518v-82h-426v604h426v-82h-330v-159h287v-82h-287v-199h330zM1542 944
v-508h-86v604h152l153 -493h11l157 493h146v-604h-86v508h-9l-165 -508h-97l-168 508h-8zM2253 739q0 -110 55.5 -173.5t142.5 -63.5t143 63.5t56 173.5t-56 173t-143 63t-142.5 -63t-55.5 -173zM102 1262h2872v-1047h-2872v1047zM2904 285v907h-2734v-907h2734zM2740 739
q0 -150 -74 -233.5t-215 -83.5t-214.5 83.5t-73.5 233.5t73.5 233t214.5 83t215 -83t74 -233z" />
    <glyph glyph-name="lslash" unicode="&#x142;" 
d="M561 436h-219v604h219q139 0 215 -75.5t76 -227.5q0 -142 -77.5 -221.5t-213.5 -79.5zM428 958v-440h133q40 0 73 10t62.5 33t46.5 68t17 108q0 69 -16.5 115.5t-47 68t-62 29.5t-73.5 8h-133zM1374 518v-82h-426v604h426v-82h-330v-159h287v-82h-287v-199h330zM1542 944
v-508h-86v604h152l153 -493h11l157 493h146v-604h-86v508h-9l-165 -508h-97l-168 508h-8zM2253 739q0 -110 55.5 -173.5t142.5 -63.5t143 63.5t56 173.5t-56 173t-143 63t-142.5 -63t-55.5 -173zM102 1262h2872v-1047h-2872v1047zM2904 285v907h-2734v-907h2734zM2740 739
q0 -150 -74 -233.5t-215 -83.5t-214.5 83.5t-73.5 233.5t73.5 233t214.5 83t215 -83t74 -233z" />
    <glyph glyph-name="Nacute" unicode="&#x143;" 
d="M561 436h-219v604h219q139 0 215 -75.5t76 -227.5q0 -142 -77.5 -221.5t-213.5 -79.5zM428 958v-440h133q40 0 73 10t62.5 33t46.5 68t17 108q0 69 -16.5 115.5t-47 68t-62 29.5t-73.5 8h-133zM1374 518v-82h-426v604h426v-82h-330v-159h287v-82h-287v-199h330zM1542 944
v-508h-86v604h152l153 -493h11l157 493h146v-604h-86v508h-9l-165 -508h-97l-168 508h-8zM2253 739q0 -110 55.5 -173.5t142.5 -63.5t143 63.5t56 173.5t-56 173t-143 63t-142.5 -63t-55.5 -173zM102 1262h2872v-1047h-2872v1047zM2904 285v907h-2734v-907h2734zM2740 739
q0 -150 -74 -233.5t-215 -83.5t-214.5 83.5t-73.5 233.5t73.5 233t214.5 83t215 -83t74 -233z" />
    <glyph glyph-name="nacute" unicode="&#x144;" 
d="M561 436h-219v604h219q139 0 215 -75.5t76 -227.5q0 -142 -77.5 -221.5t-213.5 -79.5zM428 958v-440h133q40 0 73 10t62.5 33t46.5 68t17 108q0 69 -16.5 115.5t-47 68t-62 29.5t-73.5 8h-133zM1374 518v-82h-426v604h426v-82h-330v-159h287v-82h-287v-199h330zM1542 944
v-508h-86v604h152l153 -493h11l157 493h146v-604h-86v508h-9l-165 -508h-97l-168 508h-8zM2253 739q0 -110 55.5 -173.5t142.5 -63.5t143 63.5t56 173.5t-56 173t-143 63t-142.5 -63t-55.5 -173zM102 1262h2872v-1047h-2872v1047zM2904 285v907h-2734v-907h2734zM2740 739
q0 -150 -74 -233.5t-215 -83.5t-214.5 83.5t-73.5 233.5t73.5 233t214.5 83t215 -83t74 -233z" />
    <glyph glyph-name="Ncommaaccent" unicode="&#x145;" 
d="M561 436h-219v604h219q139 0 215 -75.5t76 -227.5q0 -142 -77.5 -221.5t-213.5 -79.5zM428 958v-440h133q40 0 73 10t62.5 33t46.5 68t17 108q0 69 -16.5 115.5t-47 68t-62 29.5t-73.5 8h-133zM1374 518v-82h-426v604h426v-82h-330v-159h287v-82h-287v-199h330zM1542 944
v-508h-86v604h152l153 -493h11l157 493h146v-604h-86v508h-9l-165 -508h-97l-168 508h-8zM2253 739q0 -110 55.5 -173.5t142.5 -63.5t143 63.5t56 173.5t-56 173t-143 63t-142.5 -63t-55.5 -173zM102 1262h2872v-1047h-2872v1047zM2904 285v907h-2734v-907h2734zM2740 739
q0 -150 -74 -233.5t-215 -83.5t-214.5 83.5t-73.5 233.5t73.5 233t214.5 83t215 -83t74 -233z" />
    <glyph glyph-name="ncommaaccent" unicode="&#x146;" 
d="M561 436h-219v604h219q139 0 215 -75.5t76 -227.5q0 -142 -77.5 -221.5t-213.5 -79.5zM428 958v-440h133q40 0 73 10t62.5 33t46.5 68t17 108q0 69 -16.5 115.5t-47 68t-62 29.5t-73.5 8h-133zM1374 518v-82h-426v604h426v-82h-330v-159h287v-82h-287v-199h330zM1542 944
v-508h-86v604h152l153 -493h11l157 493h146v-604h-86v508h-9l-165 -508h-97l-168 508h-8zM2253 739q0 -110 55.5 -173.5t142.5 -63.5t143 63.5t56 173.5t-56 173t-143 63t-142.5 -63t-55.5 -173zM102 1262h2872v-1047h-2872v1047zM2904 285v907h-2734v-907h2734zM2740 739
q0 -150 -74 -233.5t-215 -83.5t-214.5 83.5t-73.5 233.5t73.5 233t214.5 83t215 -83t74 -233z" />
    <glyph glyph-name="Ncaron" unicode="&#x147;" 
d="M561 436h-219v604h219q139 0 215 -75.5t76 -227.5q0 -142 -77.5 -221.5t-213.5 -79.5zM428 958v-440h133q40 0 73 10t62.5 33t46.5 68t17 108q0 69 -16.5 115.5t-47 68t-62 29.5t-73.5 8h-133zM1374 518v-82h-426v604h426v-82h-330v-159h287v-82h-287v-199h330zM1542 944
v-508h-86v604h152l153 -493h11l157 493h146v-604h-86v508h-9l-165 -508h-97l-168 508h-8zM2253 739q0 -110 55.5 -173.5t142.5 -63.5t143 63.5t56 173.5t-56 173t-143 63t-142.5 -63t-55.5 -173zM102 1262h2872v-1047h-2872v1047zM2904 285v907h-2734v-907h2734zM2740 739
q0 -150 -74 -233.5t-215 -83.5t-214.5 83.5t-73.5 233.5t73.5 233t214.5 83t215 -83t74 -233z" />
    <glyph glyph-name="ncaron" unicode="&#x148;" 
d="M561 436h-219v604h219q139 0 215 -75.5t76 -227.5q0 -142 -77.5 -221.5t-213.5 -79.5zM428 958v-440h133q40 0 73 10t62.5 33t46.5 68t17 108q0 69 -16.5 115.5t-47 68t-62 29.5t-73.5 8h-133zM1374 518v-82h-426v604h426v-82h-330v-159h287v-82h-287v-199h330zM1542 944
v-508h-86v604h152l153 -493h11l157 493h146v-604h-86v508h-9l-165 -508h-97l-168 508h-8zM2253 739q0 -110 55.5 -173.5t142.5 -63.5t143 63.5t56 173.5t-56 173t-143 63t-142.5 -63t-55.5 -173zM102 1262h2872v-1047h-2872v1047zM2904 285v907h-2734v-907h2734zM2740 739
q0 -150 -74 -233.5t-215 -83.5t-214.5 83.5t-73.5 233.5t73.5 233t214.5 83t215 -83t74 -233z" />
    <glyph glyph-name="Omacron" unicode="&#x14c;" 
d="M561 436h-219v604h219q139 0 215 -75.5t76 -227.5q0 -142 -77.5 -221.5t-213.5 -79.5zM428 958v-440h133q40 0 73 10t62.5 33t46.5 68t17 108q0 69 -16.5 115.5t-47 68t-62 29.5t-73.5 8h-133zM1374 518v-82h-426v604h426v-82h-330v-159h287v-82h-287v-199h330zM1542 944
v-508h-86v604h152l153 -493h11l157 493h146v-604h-86v508h-9l-165 -508h-97l-168 508h-8zM2253 739q0 -110 55.5 -173.5t142.5 -63.5t143 63.5t56 173.5t-56 173t-143 63t-142.5 -63t-55.5 -173zM102 1262h2872v-1047h-2872v1047zM2904 285v907h-2734v-907h2734zM2740 739
q0 -150 -74 -233.5t-215 -83.5t-214.5 83.5t-73.5 233.5t73.5 233t214.5 83t215 -83t74 -233z" />
    <glyph glyph-name="omacron" unicode="&#x14d;" 
d="M561 436h-219v604h219q139 0 215 -75.5t76 -227.5q0 -142 -77.5 -221.5t-213.5 -79.5zM428 958v-440h133q40 0 73 10t62.5 33t46.5 68t17 108q0 69 -16.5 115.5t-47 68t-62 29.5t-73.5 8h-133zM1374 518v-82h-426v604h426v-82h-330v-159h287v-82h-287v-199h330zM1542 944
v-508h-86v604h152l153 -493h11l157 493h146v-604h-86v508h-9l-165 -508h-97l-168 508h-8zM2253 739q0 -110 55.5 -173.5t142.5 -63.5t143 63.5t56 173.5t-56 173t-143 63t-142.5 -63t-55.5 -173zM102 1262h2872v-1047h-2872v1047zM2904 285v907h-2734v-907h2734zM2740 739
q0 -150 -74 -233.5t-215 -83.5t-214.5 83.5t-73.5 233.5t73.5 233t214.5 83t215 -83t74 -233z" />
    <glyph glyph-name="Obreve" unicode="&#x14e;" 
d="M561 436h-219v604h219q139 0 215 -75.5t76 -227.5q0 -142 -77.5 -221.5t-213.5 -79.5zM428 958v-440h133q40 0 73 10t62.5 33t46.5 68t17 108q0 69 -16.5 115.5t-47 68t-62 29.5t-73.5 8h-133zM1374 518v-82h-426v604h426v-82h-330v-159h287v-82h-287v-199h330zM1542 944
v-508h-86v604h152l153 -493h11l157 493h146v-604h-86v508h-9l-165 -508h-97l-168 508h-8zM2253 739q0 -110 55.5 -173.5t142.5 -63.5t143 63.5t56 173.5t-56 173t-143 63t-142.5 -63t-55.5 -173zM102 1262h2872v-1047h-2872v1047zM2904 285v907h-2734v-907h2734zM2740 739
q0 -150 -74 -233.5t-215 -83.5t-214.5 83.5t-73.5 233.5t73.5 233t214.5 83t215 -83t74 -233z" />
    <glyph glyph-name="obreve" unicode="&#x14f;" 
d="M561 436h-219v604h219q139 0 215 -75.5t76 -227.5q0 -142 -77.5 -221.5t-213.5 -79.5zM428 958v-440h133q40 0 73 10t62.5 33t46.5 68t17 108q0 69 -16.5 115.5t-47 68t-62 29.5t-73.5 8h-133zM1374 518v-82h-426v604h426v-82h-330v-159h287v-82h-287v-199h330zM1542 944
v-508h-86v604h152l153 -493h11l157 493h146v-604h-86v508h-9l-165 -508h-97l-168 508h-8zM2253 739q0 -110 55.5 -173.5t142.5 -63.5t143 63.5t56 173.5t-56 173t-143 63t-142.5 -63t-55.5 -173zM102 1262h2872v-1047h-2872v1047zM2904 285v907h-2734v-907h2734zM2740 739
q0 -150 -74 -233.5t-215 -83.5t-214.5 83.5t-73.5 233.5t73.5 233t214.5 83t215 -83t74 -233z" />
    <glyph glyph-name="Ohungarumlaut" unicode="&#x150;" 
d="M561 436h-219v604h219q139 0 215 -75.5t76 -227.5q0 -142 -77.5 -221.5t-213.5 -79.5zM428 958v-440h133q40 0 73 10t62.5 33t46.5 68t17 108q0 69 -16.5 115.5t-47 68t-62 29.5t-73.5 8h-133zM1374 518v-82h-426v604h426v-82h-330v-159h287v-82h-287v-199h330zM1542 944
v-508h-86v604h152l153 -493h11l157 493h146v-604h-86v508h-9l-165 -508h-97l-168 508h-8zM2253 739q0 -110 55.5 -173.5t142.5 -63.5t143 63.5t56 173.5t-56 173t-143 63t-142.5 -63t-55.5 -173zM102 1262h2872v-1047h-2872v1047zM2904 285v907h-2734v-907h2734zM2740 739
q0 -150 -74 -233.5t-215 -83.5t-214.5 83.5t-73.5 233.5t73.5 233t214.5 83t215 -83t74 -233z" />
    <glyph glyph-name="ohungarumlaut" unicode="&#x151;" 
d="M561 436h-219v604h219q139 0 215 -75.5t76 -227.5q0 -142 -77.5 -221.5t-213.5 -79.5zM428 958v-440h133q40 0 73 10t62.5 33t46.5 68t17 108q0 69 -16.5 115.5t-47 68t-62 29.5t-73.5 8h-133zM1374 518v-82h-426v604h426v-82h-330v-159h287v-82h-287v-199h330zM1542 944
v-508h-86v604h152l153 -493h11l157 493h146v-604h-86v508h-9l-165 -508h-97l-168 508h-8zM2253 739q0 -110 55.5 -173.5t142.5 -63.5t143 63.5t56 173.5t-56 173t-143 63t-142.5 -63t-55.5 -173zM102 1262h2872v-1047h-2872v1047zM2904 285v907h-2734v-907h2734zM2740 739
q0 -150 -74 -233.5t-215 -83.5t-214.5 83.5t-73.5 233.5t73.5 233t214.5 83t215 -83t74 -233z" />
    <glyph glyph-name="OE" unicode="&#x152;" 
d="M561 436h-219v604h219q139 0 215 -75.5t76 -227.5q0 -142 -77.5 -221.5t-213.5 -79.5zM428 958v-440h133q40 0 73 10t62.5 33t46.5 68t17 108q0 69 -16.5 115.5t-47 68t-62 29.5t-73.5 8h-133zM1374 518v-82h-426v604h426v-82h-330v-159h287v-82h-287v-199h330zM1542 944
v-508h-86v604h152l153 -493h11l157 493h146v-604h-86v508h-9l-165 -508h-97l-168 508h-8zM2253 739q0 -110 55.5 -173.5t142.5 -63.5t143 63.5t56 173.5t-56 173t-143 63t-142.5 -63t-55.5 -173zM102 1262h2872v-1047h-2872v1047zM2904 285v907h-2734v-907h2734zM2740 739
q0 -150 -74 -233.5t-215 -83.5t-214.5 83.5t-73.5 233.5t73.5 233t214.5 83t215 -83t74 -233z" />
    <glyph glyph-name="oe" unicode="&#x153;" 
d="M561 436h-219v604h219q139 0 215 -75.5t76 -227.5q0 -142 -77.5 -221.5t-213.5 -79.5zM428 958v-440h133q40 0 73 10t62.5 33t46.5 68t17 108q0 69 -16.5 115.5t-47 68t-62 29.5t-73.5 8h-133zM1374 518v-82h-426v604h426v-82h-330v-159h287v-82h-287v-199h330zM1542 944
v-508h-86v604h152l153 -493h11l157 493h146v-604h-86v508h-9l-165 -508h-97l-168 508h-8zM2253 739q0 -110 55.5 -173.5t142.5 -63.5t143 63.5t56 173.5t-56 173t-143 63t-142.5 -63t-55.5 -173zM102 1262h2872v-1047h-2872v1047zM2904 285v907h-2734v-907h2734zM2740 739
q0 -150 -74 -233.5t-215 -83.5t-214.5 83.5t-73.5 233.5t73.5 233t214.5 83t215 -83t74 -233z" />
    <glyph glyph-name="Racute" unicode="&#x154;" 
d="M561 436h-219v604h219q139 0 215 -75.5t76 -227.5q0 -142 -77.5 -221.5t-213.5 -79.5zM428 958v-440h133q40 0 73 10t62.5 33t46.5 68t17 108q0 69 -16.5 115.5t-47 68t-62 29.5t-73.5 8h-133zM1374 518v-82h-426v604h426v-82h-330v-159h287v-82h-287v-199h330zM1542 944
v-508h-86v604h152l153 -493h11l157 493h146v-604h-86v508h-9l-165 -508h-97l-168 508h-8zM2253 739q0 -110 55.5 -173.5t142.5 -63.5t143 63.5t56 173.5t-56 173t-143 63t-142.5 -63t-55.5 -173zM102 1262h2872v-1047h-2872v1047zM2904 285v907h-2734v-907h2734zM2740 739
q0 -150 -74 -233.5t-215 -83.5t-214.5 83.5t-73.5 233.5t73.5 233t214.5 83t215 -83t74 -233z" />
    <glyph glyph-name="racute" unicode="&#x155;" 
d="M561 436h-219v604h219q139 0 215 -75.5t76 -227.5q0 -142 -77.5 -221.5t-213.5 -79.5zM428 958v-440h133q40 0 73 10t62.5 33t46.5 68t17 108q0 69 -16.5 115.5t-47 68t-62 29.5t-73.5 8h-133zM1374 518v-82h-426v604h426v-82h-330v-159h287v-82h-287v-199h330zM1542 944
v-508h-86v604h152l153 -493h11l157 493h146v-604h-86v508h-9l-165 -508h-97l-168 508h-8zM2253 739q0 -110 55.5 -173.5t142.5 -63.5t143 63.5t56 173.5t-56 173t-143 63t-142.5 -63t-55.5 -173zM102 1262h2872v-1047h-2872v1047zM2904 285v907h-2734v-907h2734zM2740 739
q0 -150 -74 -233.5t-215 -83.5t-214.5 83.5t-73.5 233.5t73.5 233t214.5 83t215 -83t74 -233z" />
    <glyph glyph-name="Rcommaaccent" unicode="&#x156;" 
d="M561 436h-219v604h219q139 0 215 -75.5t76 -227.5q0 -142 -77.5 -221.5t-213.5 -79.5zM428 958v-440h133q40 0 73 10t62.5 33t46.5 68t17 108q0 69 -16.5 115.5t-47 68t-62 29.5t-73.5 8h-133zM1374 518v-82h-426v604h426v-82h-330v-159h287v-82h-287v-199h330zM1542 944
v-508h-86v604h152l153 -493h11l157 493h146v-604h-86v508h-9l-165 -508h-97l-168 508h-8zM2253 739q0 -110 55.5 -173.5t142.5 -63.5t143 63.5t56 173.5t-56 173t-143 63t-142.5 -63t-55.5 -173zM102 1262h2872v-1047h-2872v1047zM2904 285v907h-2734v-907h2734zM2740 739
q0 -150 -74 -233.5t-215 -83.5t-214.5 83.5t-73.5 233.5t73.5 233t214.5 83t215 -83t74 -233z" />
    <glyph glyph-name="rcommaaccent" unicode="&#x157;" 
d="M561 436h-219v604h219q139 0 215 -75.5t76 -227.5q0 -142 -77.5 -221.5t-213.5 -79.5zM428 958v-440h133q40 0 73 10t62.5 33t46.5 68t17 108q0 69 -16.5 115.5t-47 68t-62 29.5t-73.5 8h-133zM1374 518v-82h-426v604h426v-82h-330v-159h287v-82h-287v-199h330zM1542 944
v-508h-86v604h152l153 -493h11l157 493h146v-604h-86v508h-9l-165 -508h-97l-168 508h-8zM2253 739q0 -110 55.5 -173.5t142.5 -63.5t143 63.5t56 173.5t-56 173t-143 63t-142.5 -63t-55.5 -173zM102 1262h2872v-1047h-2872v1047zM2904 285v907h-2734v-907h2734zM2740 739
q0 -150 -74 -233.5t-215 -83.5t-214.5 83.5t-73.5 233.5t73.5 233t214.5 83t215 -83t74 -233z" />
    <glyph glyph-name="Rcaron" unicode="&#x158;" 
d="M561 436h-219v604h219q139 0 215 -75.5t76 -227.5q0 -142 -77.5 -221.5t-213.5 -79.5zM428 958v-440h133q40 0 73 10t62.5 33t46.5 68t17 108q0 69 -16.5 115.5t-47 68t-62 29.5t-73.5 8h-133zM1374 518v-82h-426v604h426v-82h-330v-159h287v-82h-287v-199h330zM1542 944
v-508h-86v604h152l153 -493h11l157 493h146v-604h-86v508h-9l-165 -508h-97l-168 508h-8zM2253 739q0 -110 55.5 -173.5t142.5 -63.5t143 63.5t56 173.5t-56 173t-143 63t-142.5 -63t-55.5 -173zM102 1262h2872v-1047h-2872v1047zM2904 285v907h-2734v-907h2734zM2740 739
q0 -150 -74 -233.5t-215 -83.5t-214.5 83.5t-73.5 233.5t73.5 233t214.5 83t215 -83t74 -233z" />
    <glyph glyph-name="rcaron" unicode="&#x159;" 
d="M561 436h-219v604h219q139 0 215 -75.5t76 -227.5q0 -142 -77.5 -221.5t-213.5 -79.5zM428 958v-440h133q40 0 73 10t62.5 33t46.5 68t17 108q0 69 -16.5 115.5t-47 68t-62 29.5t-73.5 8h-133zM1374 518v-82h-426v604h426v-82h-330v-159h287v-82h-287v-199h330zM1542 944
v-508h-86v604h152l153 -493h11l157 493h146v-604h-86v508h-9l-165 -508h-97l-168 508h-8zM2253 739q0 -110 55.5 -173.5t142.5 -63.5t143 63.5t56 173.5t-56 173t-143 63t-142.5 -63t-55.5 -173zM102 1262h2872v-1047h-2872v1047zM2904 285v907h-2734v-907h2734zM2740 739
q0 -150 -74 -233.5t-215 -83.5t-214.5 83.5t-73.5 233.5t73.5 233t214.5 83t215 -83t74 -233z" />
    <glyph glyph-name="Sacute" unicode="&#x15a;" 
d="M561 436h-219v604h219q139 0 215 -75.5t76 -227.5q0 -142 -77.5 -221.5t-213.5 -79.5zM428 958v-440h133q40 0 73 10t62.5 33t46.5 68t17 108q0 69 -16.5 115.5t-47 68t-62 29.5t-73.5 8h-133zM1374 518v-82h-426v604h426v-82h-330v-159h287v-82h-287v-199h330zM1542 944
v-508h-86v604h152l153 -493h11l157 493h146v-604h-86v508h-9l-165 -508h-97l-168 508h-8zM2253 739q0 -110 55.5 -173.5t142.5 -63.5t143 63.5t56 173.5t-56 173t-143 63t-142.5 -63t-55.5 -173zM102 1262h2872v-1047h-2872v1047zM2904 285v907h-2734v-907h2734zM2740 739
q0 -150 -74 -233.5t-215 -83.5t-214.5 83.5t-73.5 233.5t73.5 233t214.5 83t215 -83t74 -233z" />
    <glyph glyph-name="sacute" unicode="&#x15b;" 
d="M561 436h-219v604h219q139 0 215 -75.5t76 -227.5q0 -142 -77.5 -221.5t-213.5 -79.5zM428 958v-440h133q40 0 73 10t62.5 33t46.5 68t17 108q0 69 -16.5 115.5t-47 68t-62 29.5t-73.5 8h-133zM1374 518v-82h-426v604h426v-82h-330v-159h287v-82h-287v-199h330zM1542 944
v-508h-86v604h152l153 -493h11l157 493h146v-604h-86v508h-9l-165 -508h-97l-168 508h-8zM2253 739q0 -110 55.5 -173.5t142.5 -63.5t143 63.5t56 173.5t-56 173t-143 63t-142.5 -63t-55.5 -173zM102 1262h2872v-1047h-2872v1047zM2904 285v907h-2734v-907h2734zM2740 739
q0 -150 -74 -233.5t-215 -83.5t-214.5 83.5t-73.5 233.5t73.5 233t214.5 83t215 -83t74 -233z" />
    <glyph glyph-name="Scedilla" unicode="&#x15e;" 
d="M561 436h-219v604h219q139 0 215 -75.5t76 -227.5q0 -142 -77.5 -221.5t-213.5 -79.5zM428 958v-440h133q40 0 73 10t62.5 33t46.5 68t17 108q0 69 -16.5 115.5t-47 68t-62 29.5t-73.5 8h-133zM1374 518v-82h-426v604h426v-82h-330v-159h287v-82h-287v-199h330zM1542 944
v-508h-86v604h152l153 -493h11l157 493h146v-604h-86v508h-9l-165 -508h-97l-168 508h-8zM2253 739q0 -110 55.5 -173.5t142.5 -63.5t143 63.5t56 173.5t-56 173t-143 63t-142.5 -63t-55.5 -173zM102 1262h2872v-1047h-2872v1047zM2904 285v907h-2734v-907h2734zM2740 739
q0 -150 -74 -233.5t-215 -83.5t-214.5 83.5t-73.5 233.5t73.5 233t214.5 83t215 -83t74 -233z" />
    <glyph glyph-name="scedilla" unicode="&#x15f;" 
d="M561 436h-219v604h219q139 0 215 -75.5t76 -227.5q0 -142 -77.5 -221.5t-213.5 -79.5zM428 958v-440h133q40 0 73 10t62.5 33t46.5 68t17 108q0 69 -16.5 115.5t-47 68t-62 29.5t-73.5 8h-133zM1374 518v-82h-426v604h426v-82h-330v-159h287v-82h-287v-199h330zM1542 944
v-508h-86v604h152l153 -493h11l157 493h146v-604h-86v508h-9l-165 -508h-97l-168 508h-8zM2253 739q0 -110 55.5 -173.5t142.5 -63.5t143 63.5t56 173.5t-56 173t-143 63t-142.5 -63t-55.5 -173zM102 1262h2872v-1047h-2872v1047zM2904 285v907h-2734v-907h2734zM2740 739
q0 -150 -74 -233.5t-215 -83.5t-214.5 83.5t-73.5 233.5t73.5 233t214.5 83t215 -83t74 -233z" />
    <glyph glyph-name="Scaron" unicode="&#x160;" 
d="M561 436h-219v604h219q139 0 215 -75.5t76 -227.5q0 -142 -77.5 -221.5t-213.5 -79.5zM428 958v-440h133q40 0 73 10t62.5 33t46.5 68t17 108q0 69 -16.5 115.5t-47 68t-62 29.5t-73.5 8h-133zM1374 518v-82h-426v604h426v-82h-330v-159h287v-82h-287v-199h330zM1542 944
v-508h-86v604h152l153 -493h11l157 493h146v-604h-86v508h-9l-165 -508h-97l-168 508h-8zM2253 739q0 -110 55.5 -173.5t142.5 -63.5t143 63.5t56 173.5t-56 173t-143 63t-142.5 -63t-55.5 -173zM102 1262h2872v-1047h-2872v1047zM2904 285v907h-2734v-907h2734zM2740 739
q0 -150 -74 -233.5t-215 -83.5t-214.5 83.5t-73.5 233.5t73.5 233t214.5 83t215 -83t74 -233z" />
    <glyph glyph-name="scaron" unicode="&#x161;" 
d="M561 436h-219v604h219q139 0 215 -75.5t76 -227.5q0 -142 -77.5 -221.5t-213.5 -79.5zM428 958v-440h133q40 0 73 10t62.5 33t46.5 68t17 108q0 69 -16.5 115.5t-47 68t-62 29.5t-73.5 8h-133zM1374 518v-82h-426v604h426v-82h-330v-159h287v-82h-287v-199h330zM1542 944
v-508h-86v604h152l153 -493h11l157 493h146v-604h-86v508h-9l-165 -508h-97l-168 508h-8zM2253 739q0 -110 55.5 -173.5t142.5 -63.5t143 63.5t56 173.5t-56 173t-143 63t-142.5 -63t-55.5 -173zM102 1262h2872v-1047h-2872v1047zM2904 285v907h-2734v-907h2734zM2740 739
q0 -150 -74 -233.5t-215 -83.5t-214.5 83.5t-73.5 233.5t73.5 233t214.5 83t215 -83t74 -233z" />
    <glyph glyph-name="Tcedilla" unicode="&#x162;" 
d="M561 436h-219v604h219q139 0 215 -75.5t76 -227.5q0 -142 -77.5 -221.5t-213.5 -79.5zM428 958v-440h133q40 0 73 10t62.5 33t46.5 68t17 108q0 69 -16.5 115.5t-47 68t-62 29.5t-73.5 8h-133zM1374 518v-82h-426v604h426v-82h-330v-159h287v-82h-287v-199h330zM1542 944
v-508h-86v604h152l153 -493h11l157 493h146v-604h-86v508h-9l-165 -508h-97l-168 508h-8zM2253 739q0 -110 55.5 -173.5t142.5 -63.5t143 63.5t56 173.5t-56 173t-143 63t-142.5 -63t-55.5 -173zM102 1262h2872v-1047h-2872v1047zM2904 285v907h-2734v-907h2734zM2740 739
q0 -150 -74 -233.5t-215 -83.5t-214.5 83.5t-73.5 233.5t73.5 233t214.5 83t215 -83t74 -233z" />
    <glyph glyph-name="tcedilla" unicode="&#x163;" 
d="M561 436h-219v604h219q139 0 215 -75.5t76 -227.5q0 -142 -77.5 -221.5t-213.5 -79.5zM428 958v-440h133q40 0 73 10t62.5 33t46.5 68t17 108q0 69 -16.5 115.5t-47 68t-62 29.5t-73.5 8h-133zM1374 518v-82h-426v604h426v-82h-330v-159h287v-82h-287v-199h330zM1542 944
v-508h-86v604h152l153 -493h11l157 493h146v-604h-86v508h-9l-165 -508h-97l-168 508h-8zM2253 739q0 -110 55.5 -173.5t142.5 -63.5t143 63.5t56 173.5t-56 173t-143 63t-142.5 -63t-55.5 -173zM102 1262h2872v-1047h-2872v1047zM2904 285v907h-2734v-907h2734zM2740 739
q0 -150 -74 -233.5t-215 -83.5t-214.5 83.5t-73.5 233.5t73.5 233t214.5 83t215 -83t74 -233z" />
    <glyph glyph-name="Tcaron" unicode="&#x164;" 
d="M561 436h-219v604h219q139 0 215 -75.5t76 -227.5q0 -142 -77.5 -221.5t-213.5 -79.5zM428 958v-440h133q40 0 73 10t62.5 33t46.5 68t17 108q0 69 -16.5 115.5t-47 68t-62 29.5t-73.5 8h-133zM1374 518v-82h-426v604h426v-82h-330v-159h287v-82h-287v-199h330zM1542 944
v-508h-86v604h152l153 -493h11l157 493h146v-604h-86v508h-9l-165 -508h-97l-168 508h-8zM2253 739q0 -110 55.5 -173.5t142.5 -63.5t143 63.5t56 173.5t-56 173t-143 63t-142.5 -63t-55.5 -173zM102 1262h2872v-1047h-2872v1047zM2904 285v907h-2734v-907h2734zM2740 739
q0 -150 -74 -233.5t-215 -83.5t-214.5 83.5t-73.5 233.5t73.5 233t214.5 83t215 -83t74 -233z" />
    <glyph glyph-name="tcaron" unicode="&#x165;" 
d="M561 436h-219v604h219q139 0 215 -75.5t76 -227.5q0 -142 -77.5 -221.5t-213.5 -79.5zM428 958v-440h133q40 0 73 10t62.5 33t46.5 68t17 108q0 69 -16.5 115.5t-47 68t-62 29.5t-73.5 8h-133zM1374 518v-82h-426v604h426v-82h-330v-159h287v-82h-287v-199h330zM1542 944
v-508h-86v604h152l153 -493h11l157 493h146v-604h-86v508h-9l-165 -508h-97l-168 508h-8zM2253 739q0 -110 55.5 -173.5t142.5 -63.5t143 63.5t56 173.5t-56 173t-143 63t-142.5 -63t-55.5 -173zM102 1262h2872v-1047h-2872v1047zM2904 285v907h-2734v-907h2734zM2740 739
q0 -150 -74 -233.5t-215 -83.5t-214.5 83.5t-73.5 233.5t73.5 233t214.5 83t215 -83t74 -233z" />
    <glyph glyph-name="Umacron" unicode="&#x16a;" 
d="M561 436h-219v604h219q139 0 215 -75.5t76 -227.5q0 -142 -77.5 -221.5t-213.5 -79.5zM428 958v-440h133q40 0 73 10t62.5 33t46.5 68t17 108q0 69 -16.5 115.5t-47 68t-62 29.5t-73.5 8h-133zM1374 518v-82h-426v604h426v-82h-330v-159h287v-82h-287v-199h330zM1542 944
v-508h-86v604h152l153 -493h11l157 493h146v-604h-86v508h-9l-165 -508h-97l-168 508h-8zM2253 739q0 -110 55.5 -173.5t142.5 -63.5t143 63.5t56 173.5t-56 173t-143 63t-142.5 -63t-55.5 -173zM102 1262h2872v-1047h-2872v1047zM2904 285v907h-2734v-907h2734zM2740 739
q0 -150 -74 -233.5t-215 -83.5t-214.5 83.5t-73.5 233.5t73.5 233t214.5 83t215 -83t74 -233z" />
    <glyph glyph-name="umacron" unicode="&#x16b;" 
d="M561 436h-219v604h219q139 0 215 -75.5t76 -227.5q0 -142 -77.5 -221.5t-213.5 -79.5zM428 958v-440h133q40 0 73 10t62.5 33t46.5 68t17 108q0 69 -16.5 115.5t-47 68t-62 29.5t-73.5 8h-133zM1374 518v-82h-426v604h426v-82h-330v-159h287v-82h-287v-199h330zM1542 944
v-508h-86v604h152l153 -493h11l157 493h146v-604h-86v508h-9l-165 -508h-97l-168 508h-8zM2253 739q0 -110 55.5 -173.5t142.5 -63.5t143 63.5t56 173.5t-56 173t-143 63t-142.5 -63t-55.5 -173zM102 1262h2872v-1047h-2872v1047zM2904 285v907h-2734v-907h2734zM2740 739
q0 -150 -74 -233.5t-215 -83.5t-214.5 83.5t-73.5 233.5t73.5 233t214.5 83t215 -83t74 -233z" />
    <glyph glyph-name="Uring" unicode="&#x16e;" 
d="M561 436h-219v604h219q139 0 215 -75.5t76 -227.5q0 -142 -77.5 -221.5t-213.5 -79.5zM428 958v-440h133q40 0 73 10t62.5 33t46.5 68t17 108q0 69 -16.5 115.5t-47 68t-62 29.5t-73.5 8h-133zM1374 518v-82h-426v604h426v-82h-330v-159h287v-82h-287v-199h330zM1542 944
v-508h-86v604h152l153 -493h11l157 493h146v-604h-86v508h-9l-165 -508h-97l-168 508h-8zM2253 739q0 -110 55.5 -173.5t142.5 -63.5t143 63.5t56 173.5t-56 173t-143 63t-142.5 -63t-55.5 -173zM102 1262h2872v-1047h-2872v1047zM2904 285v907h-2734v-907h2734zM2740 739
q0 -150 -74 -233.5t-215 -83.5t-214.5 83.5t-73.5 233.5t73.5 233t214.5 83t215 -83t74 -233z" />
    <glyph glyph-name="uring" unicode="&#x16f;" 
d="M561 436h-219v604h219q139 0 215 -75.5t76 -227.5q0 -142 -77.5 -221.5t-213.5 -79.5zM428 958v-440h133q40 0 73 10t62.5 33t46.5 68t17 108q0 69 -16.5 115.5t-47 68t-62 29.5t-73.5 8h-133zM1374 518v-82h-426v604h426v-82h-330v-159h287v-82h-287v-199h330zM1542 944
v-508h-86v604h152l153 -493h11l157 493h146v-604h-86v508h-9l-165 -508h-97l-168 508h-8zM2253 739q0 -110 55.5 -173.5t142.5 -63.5t143 63.5t56 173.5t-56 173t-143 63t-142.5 -63t-55.5 -173zM102 1262h2872v-1047h-2872v1047zM2904 285v907h-2734v-907h2734zM2740 739
q0 -150 -74 -233.5t-215 -83.5t-214.5 83.5t-73.5 233.5t73.5 233t214.5 83t215 -83t74 -233z" />
    <glyph glyph-name="Uhungarumlaut" unicode="&#x170;" 
d="M561 436h-219v604h219q139 0 215 -75.5t76 -227.5q0 -142 -77.5 -221.5t-213.5 -79.5zM428 958v-440h133q40 0 73 10t62.5 33t46.5 68t17 108q0 69 -16.5 115.5t-47 68t-62 29.5t-73.5 8h-133zM1374 518v-82h-426v604h426v-82h-330v-159h287v-82h-287v-199h330zM1542 944
v-508h-86v604h152l153 -493h11l157 493h146v-604h-86v508h-9l-165 -508h-97l-168 508h-8zM2253 739q0 -110 55.5 -173.5t142.5 -63.5t143 63.5t56 173.5t-56 173t-143 63t-142.5 -63t-55.5 -173zM102 1262h2872v-1047h-2872v1047zM2904 285v907h-2734v-907h2734zM2740 739
q0 -150 -74 -233.5t-215 -83.5t-214.5 83.5t-73.5 233.5t73.5 233t214.5 83t215 -83t74 -233z" />
    <glyph glyph-name="uhungarumlaut" unicode="&#x171;" 
d="M561 436h-219v604h219q139 0 215 -75.5t76 -227.5q0 -142 -77.5 -221.5t-213.5 -79.5zM428 958v-440h133q40 0 73 10t62.5 33t46.5 68t17 108q0 69 -16.5 115.5t-47 68t-62 29.5t-73.5 8h-133zM1374 518v-82h-426v604h426v-82h-330v-159h287v-82h-287v-199h330zM1542 944
v-508h-86v604h152l153 -493h11l157 493h146v-604h-86v508h-9l-165 -508h-97l-168 508h-8zM2253 739q0 -110 55.5 -173.5t142.5 -63.5t143 63.5t56 173.5t-56 173t-143 63t-142.5 -63t-55.5 -173zM102 1262h2872v-1047h-2872v1047zM2904 285v907h-2734v-907h2734zM2740 739
q0 -150 -74 -233.5t-215 -83.5t-214.5 83.5t-73.5 233.5t73.5 233t214.5 83t215 -83t74 -233z" />
    <glyph glyph-name="Uogonek" unicode="&#x172;" 
d="M561 436h-219v604h219q139 0 215 -75.5t76 -227.5q0 -142 -77.5 -221.5t-213.5 -79.5zM428 958v-440h133q40 0 73 10t62.5 33t46.5 68t17 108q0 69 -16.5 115.5t-47 68t-62 29.5t-73.5 8h-133zM1374 518v-82h-426v604h426v-82h-330v-159h287v-82h-287v-199h330zM1542 944
v-508h-86v604h152l153 -493h11l157 493h146v-604h-86v508h-9l-165 -508h-97l-168 508h-8zM2253 739q0 -110 55.5 -173.5t142.5 -63.5t143 63.5t56 173.5t-56 173t-143 63t-142.5 -63t-55.5 -173zM102 1262h2872v-1047h-2872v1047zM2904 285v907h-2734v-907h2734zM2740 739
q0 -150 -74 -233.5t-215 -83.5t-214.5 83.5t-73.5 233.5t73.5 233t214.5 83t215 -83t74 -233z" />
    <glyph glyph-name="uogonek" unicode="&#x173;" 
d="M561 436h-219v604h219q139 0 215 -75.5t76 -227.5q0 -142 -77.5 -221.5t-213.5 -79.5zM428 958v-440h133q40 0 73 10t62.5 33t46.5 68t17 108q0 69 -16.5 115.5t-47 68t-62 29.5t-73.5 8h-133zM1374 518v-82h-426v604h426v-82h-330v-159h287v-82h-287v-199h330zM1542 944
v-508h-86v604h152l153 -493h11l157 493h146v-604h-86v508h-9l-165 -508h-97l-168 508h-8zM2253 739q0 -110 55.5 -173.5t142.5 -63.5t143 63.5t56 173.5t-56 173t-143 63t-142.5 -63t-55.5 -173zM102 1262h2872v-1047h-2872v1047zM2904 285v907h-2734v-907h2734zM2740 739
q0 -150 -74 -233.5t-215 -83.5t-214.5 83.5t-73.5 233.5t73.5 233t214.5 83t215 -83t74 -233z" />
    <glyph glyph-name="Ydieresis" unicode="&#x178;" 
d="M561 436h-219v604h219q139 0 215 -75.5t76 -227.5q0 -142 -77.5 -221.5t-213.5 -79.5zM428 958v-440h133q40 0 73 10t62.5 33t46.5 68t17 108q0 69 -16.5 115.5t-47 68t-62 29.5t-73.5 8h-133zM1374 518v-82h-426v604h426v-82h-330v-159h287v-82h-287v-199h330zM1542 944
v-508h-86v604h152l153 -493h11l157 493h146v-604h-86v508h-9l-165 -508h-97l-168 508h-8zM2253 739q0 -110 55.5 -173.5t142.5 -63.5t143 63.5t56 173.5t-56 173t-143 63t-142.5 -63t-55.5 -173zM102 1262h2872v-1047h-2872v1047zM2904 285v907h-2734v-907h2734zM2740 739
q0 -150 -74 -233.5t-215 -83.5t-214.5 83.5t-73.5 233.5t73.5 233t214.5 83t215 -83t74 -233z" />
    <glyph glyph-name="Zacute" unicode="&#x179;" 
d="M561 436h-219v604h219q139 0 215 -75.5t76 -227.5q0 -142 -77.5 -221.5t-213.5 -79.5zM428 958v-440h133q40 0 73 10t62.5 33t46.5 68t17 108q0 69 -16.5 115.5t-47 68t-62 29.5t-73.5 8h-133zM1374 518v-82h-426v604h426v-82h-330v-159h287v-82h-287v-199h330zM1542 944
v-508h-86v604h152l153 -493h11l157 493h146v-604h-86v508h-9l-165 -508h-97l-168 508h-8zM2253 739q0 -110 55.5 -173.5t142.5 -63.5t143 63.5t56 173.5t-56 173t-143 63t-142.5 -63t-55.5 -173zM102 1262h2872v-1047h-2872v1047zM2904 285v907h-2734v-907h2734zM2740 739
q0 -150 -74 -233.5t-215 -83.5t-214.5 83.5t-73.5 233.5t73.5 233t214.5 83t215 -83t74 -233z" />
    <glyph glyph-name="zacute" unicode="&#x17a;" 
d="M561 436h-219v604h219q139 0 215 -75.5t76 -227.5q0 -142 -77.5 -221.5t-213.5 -79.5zM428 958v-440h133q40 0 73 10t62.5 33t46.5 68t17 108q0 69 -16.5 115.5t-47 68t-62 29.5t-73.5 8h-133zM1374 518v-82h-426v604h426v-82h-330v-159h287v-82h-287v-199h330zM1542 944
v-508h-86v604h152l153 -493h11l157 493h146v-604h-86v508h-9l-165 -508h-97l-168 508h-8zM2253 739q0 -110 55.5 -173.5t142.5 -63.5t143 63.5t56 173.5t-56 173t-143 63t-142.5 -63t-55.5 -173zM102 1262h2872v-1047h-2872v1047zM2904 285v907h-2734v-907h2734zM2740 739
q0 -150 -74 -233.5t-215 -83.5t-214.5 83.5t-73.5 233.5t73.5 233t214.5 83t215 -83t74 -233z" />
    <glyph glyph-name="Zdotaccent" unicode="&#x17b;" 
d="M561 436h-219v604h219q139 0 215 -75.5t76 -227.5q0 -142 -77.5 -221.5t-213.5 -79.5zM428 958v-440h133q40 0 73 10t62.5 33t46.5 68t17 108q0 69 -16.5 115.5t-47 68t-62 29.5t-73.5 8h-133zM1374 518v-82h-426v604h426v-82h-330v-159h287v-82h-287v-199h330zM1542 944
v-508h-86v604h152l153 -493h11l157 493h146v-604h-86v508h-9l-165 -508h-97l-168 508h-8zM2253 739q0 -110 55.5 -173.5t142.5 -63.5t143 63.5t56 173.5t-56 173t-143 63t-142.5 -63t-55.5 -173zM102 1262h2872v-1047h-2872v1047zM2904 285v907h-2734v-907h2734zM2740 739
q0 -150 -74 -233.5t-215 -83.5t-214.5 83.5t-73.5 233.5t73.5 233t214.5 83t215 -83t74 -233z" />
    <glyph glyph-name="zdotaccent" unicode="&#x17c;" 
d="M561 436h-219v604h219q139 0 215 -75.5t76 -227.5q0 -142 -77.5 -221.5t-213.5 -79.5zM428 958v-440h133q40 0 73 10t62.5 33t46.5 68t17 108q0 69 -16.5 115.5t-47 68t-62 29.5t-73.5 8h-133zM1374 518v-82h-426v604h426v-82h-330v-159h287v-82h-287v-199h330zM1542 944
v-508h-86v604h152l153 -493h11l157 493h146v-604h-86v508h-9l-165 -508h-97l-168 508h-8zM2253 739q0 -110 55.5 -173.5t142.5 -63.5t143 63.5t56 173.5t-56 173t-143 63t-142.5 -63t-55.5 -173zM102 1262h2872v-1047h-2872v1047zM2904 285v907h-2734v-907h2734zM2740 739
q0 -150 -74 -233.5t-215 -83.5t-214.5 83.5t-73.5 233.5t73.5 233t214.5 83t215 -83t74 -233z" />
    <glyph glyph-name="Zcaron" unicode="&#x17d;" 
d="M561 436h-219v604h219q139 0 215 -75.5t76 -227.5q0 -142 -77.5 -221.5t-213.5 -79.5zM428 958v-440h133q40 0 73 10t62.5 33t46.5 68t17 108q0 69 -16.5 115.5t-47 68t-62 29.5t-73.5 8h-133zM1374 518v-82h-426v604h426v-82h-330v-159h287v-82h-287v-199h330zM1542 944
v-508h-86v604h152l153 -493h11l157 493h146v-604h-86v508h-9l-165 -508h-97l-168 508h-8zM2253 739q0 -110 55.5 -173.5t142.5 -63.5t143 63.5t56 173.5t-56 173t-143 63t-142.5 -63t-55.5 -173zM102 1262h2872v-1047h-2872v1047zM2904 285v907h-2734v-907h2734zM2740 739
q0 -150 -74 -233.5t-215 -83.5t-214.5 83.5t-73.5 233.5t73.5 233t214.5 83t215 -83t74 -233z" />
    <glyph glyph-name="zcaron" unicode="&#x17e;" 
d="M561 436h-219v604h219q139 0 215 -75.5t76 -227.5q0 -142 -77.5 -221.5t-213.5 -79.5zM428 958v-440h133q40 0 73 10t62.5 33t46.5 68t17 108q0 69 -16.5 115.5t-47 68t-62 29.5t-73.5 8h-133zM1374 518v-82h-426v604h426v-82h-330v-159h287v-82h-287v-199h330zM1542 944
v-508h-86v604h152l153 -493h11l157 493h146v-604h-86v508h-9l-165 -508h-97l-168 508h-8zM2253 739q0 -110 55.5 -173.5t142.5 -63.5t143 63.5t56 173.5t-56 173t-143 63t-142.5 -63t-55.5 -173zM102 1262h2872v-1047h-2872v1047zM2904 285v907h-2734v-907h2734zM2740 739
q0 -150 -74 -233.5t-215 -83.5t-214.5 83.5t-73.5 233.5t73.5 233t214.5 83t215 -83t74 -233z" />
    <glyph glyph-name="florin" unicode="&#x192;" 
d="M561 436h-219v604h219q139 0 215 -75.5t76 -227.5q0 -142 -77.5 -221.5t-213.5 -79.5zM428 958v-440h133q40 0 73 10t62.5 33t46.5 68t17 108q0 69 -16.5 115.5t-47 68t-62 29.5t-73.5 8h-133zM1374 518v-82h-426v604h426v-82h-330v-159h287v-82h-287v-199h330zM1542 944
v-508h-86v604h152l153 -493h11l157 493h146v-604h-86v508h-9l-165 -508h-97l-168 508h-8zM2253 739q0 -110 55.5 -173.5t142.5 -63.5t143 63.5t56 173.5t-56 173t-143 63t-142.5 -63t-55.5 -173zM102 1262h2872v-1047h-2872v1047zM2904 285v907h-2734v-907h2734zM2740 739
q0 -150 -74 -233.5t-215 -83.5t-214.5 83.5t-73.5 233.5t73.5 233t214.5 83t215 -83t74 -233z" />
    <glyph glyph-name="Scommaaccent" unicode="&#x218;" 
d="M561 436h-219v604h219q139 0 215 -75.5t76 -227.5q0 -142 -77.5 -221.5t-213.5 -79.5zM428 958v-440h133q40 0 73 10t62.5 33t46.5 68t17 108q0 69 -16.5 115.5t-47 68t-62 29.5t-73.5 8h-133zM1374 518v-82h-426v604h426v-82h-330v-159h287v-82h-287v-199h330zM1542 944
v-508h-86v604h152l153 -493h11l157 493h146v-604h-86v508h-9l-165 -508h-97l-168 508h-8zM2253 739q0 -110 55.5 -173.5t142.5 -63.5t143 63.5t56 173.5t-56 173t-143 63t-142.5 -63t-55.5 -173zM102 1262h2872v-1047h-2872v1047zM2904 285v907h-2734v-907h2734zM2740 739
q0 -150 -74 -233.5t-215 -83.5t-214.5 83.5t-73.5 233.5t73.5 233t214.5 83t215 -83t74 -233z" />
    <glyph glyph-name="scommaaccent" unicode="&#x219;" 
d="M561 436h-219v604h219q139 0 215 -75.5t76 -227.5q0 -142 -77.5 -221.5t-213.5 -79.5zM428 958v-440h133q40 0 73 10t62.5 33t46.5 68t17 108q0 69 -16.5 115.5t-47 68t-62 29.5t-73.5 8h-133zM1374 518v-82h-426v604h426v-82h-330v-159h287v-82h-287v-199h330zM1542 944
v-508h-86v604h152l153 -493h11l157 493h146v-604h-86v508h-9l-165 -508h-97l-168 508h-8zM2253 739q0 -110 55.5 -173.5t142.5 -63.5t143 63.5t56 173.5t-56 173t-143 63t-142.5 -63t-55.5 -173zM102 1262h2872v-1047h-2872v1047zM2904 285v907h-2734v-907h2734zM2740 739
q0 -150 -74 -233.5t-215 -83.5t-214.5 83.5t-73.5 233.5t73.5 233t214.5 83t215 -83t74 -233z" />
    <glyph glyph-name="apostrophe" unicode="&#x2bc;" 
d="M561 436h-219v604h219q139 0 215 -75.5t76 -227.5q0 -142 -77.5 -221.5t-213.5 -79.5zM428 958v-440h133q40 0 73 10t62.5 33t46.5 68t17 108q0 69 -16.5 115.5t-47 68t-62 29.5t-73.5 8h-133zM1374 518v-82h-426v604h426v-82h-330v-159h287v-82h-287v-199h330zM1542 944
v-508h-86v604h152l153 -493h11l157 493h146v-604h-86v508h-9l-165 -508h-97l-168 508h-8zM2253 739q0 -110 55.5 -173.5t142.5 -63.5t143 63.5t56 173.5t-56 173t-143 63t-142.5 -63t-55.5 -173zM102 1262h2872v-1047h-2872v1047zM2904 285v907h-2734v-907h2734zM2740 739
q0 -150 -74 -233.5t-215 -83.5t-214.5 83.5t-73.5 233.5t73.5 233t214.5 83t215 -83t74 -233z" />
    <glyph glyph-name="circumflex" unicode="&#x2c6;" 
d="M561 436h-219v604h219q139 0 215 -75.5t76 -227.5q0 -142 -77.5 -221.5t-213.5 -79.5zM428 958v-440h133q40 0 73 10t62.5 33t46.5 68t17 108q0 69 -16.5 115.5t-47 68t-62 29.5t-73.5 8h-133zM1374 518v-82h-426v604h426v-82h-330v-159h287v-82h-287v-199h330zM1542 944
v-508h-86v604h152l153 -493h11l157 493h146v-604h-86v508h-9l-165 -508h-97l-168 508h-8zM2253 739q0 -110 55.5 -173.5t142.5 -63.5t143 63.5t56 173.5t-56 173t-143 63t-142.5 -63t-55.5 -173zM102 1262h2872v-1047h-2872v1047zM2904 285v907h-2734v-907h2734zM2740 739
q0 -150 -74 -233.5t-215 -83.5t-214.5 83.5t-73.5 233.5t73.5 233t214.5 83t215 -83t74 -233z" />
    <glyph glyph-name="caron" unicode="&#x2c7;" 
d="M561 436h-219v604h219q139 0 215 -75.5t76 -227.5q0 -142 -77.5 -221.5t-213.5 -79.5zM428 958v-440h133q40 0 73 10t62.5 33t46.5 68t17 108q0 69 -16.5 115.5t-47 68t-62 29.5t-73.5 8h-133zM1374 518v-82h-426v604h426v-82h-330v-159h287v-82h-287v-199h330zM1542 944
v-508h-86v604h152l153 -493h11l157 493h146v-604h-86v508h-9l-165 -508h-97l-168 508h-8zM2253 739q0 -110 55.5 -173.5t142.5 -63.5t143 63.5t56 173.5t-56 173t-143 63t-142.5 -63t-55.5 -173zM102 1262h2872v-1047h-2872v1047zM2904 285v907h-2734v-907h2734zM2740 739
q0 -150 -74 -233.5t-215 -83.5t-214.5 83.5t-73.5 233.5t73.5 233t214.5 83t215 -83t74 -233z" />
    <glyph glyph-name="breve" unicode="&#x2d8;" 
d="M561 436h-219v604h219q139 0 215 -75.5t76 -227.5q0 -142 -77.5 -221.5t-213.5 -79.5zM428 958v-440h133q40 0 73 10t62.5 33t46.5 68t17 108q0 69 -16.5 115.5t-47 68t-62 29.5t-73.5 8h-133zM1374 518v-82h-426v604h426v-82h-330v-159h287v-82h-287v-199h330zM1542 944
v-508h-86v604h152l153 -493h11l157 493h146v-604h-86v508h-9l-165 -508h-97l-168 508h-8zM2253 739q0 -110 55.5 -173.5t142.5 -63.5t143 63.5t56 173.5t-56 173t-143 63t-142.5 -63t-55.5 -173zM102 1262h2872v-1047h-2872v1047zM2904 285v907h-2734v-907h2734zM2740 739
q0 -150 -74 -233.5t-215 -83.5t-214.5 83.5t-73.5 233.5t73.5 233t214.5 83t215 -83t74 -233z" />
    <glyph glyph-name="dotaccent" unicode="&#x2d9;" 
d="M561 436h-219v604h219q139 0 215 -75.5t76 -227.5q0 -142 -77.5 -221.5t-213.5 -79.5zM428 958v-440h133q40 0 73 10t62.5 33t46.5 68t17 108q0 69 -16.5 115.5t-47 68t-62 29.5t-73.5 8h-133zM1374 518v-82h-426v604h426v-82h-330v-159h287v-82h-287v-199h330zM1542 944
v-508h-86v604h152l153 -493h11l157 493h146v-604h-86v508h-9l-165 -508h-97l-168 508h-8zM2253 739q0 -110 55.5 -173.5t142.5 -63.5t143 63.5t56 173.5t-56 173t-143 63t-142.5 -63t-55.5 -173zM102 1262h2872v-1047h-2872v1047zM2904 285v907h-2734v-907h2734zM2740 739
q0 -150 -74 -233.5t-215 -83.5t-214.5 83.5t-73.5 233.5t73.5 233t214.5 83t215 -83t74 -233z" />
    <glyph glyph-name="ring" unicode="&#x2da;" 
d="M561 436h-219v604h219q139 0 215 -75.5t76 -227.5q0 -142 -77.5 -221.5t-213.5 -79.5zM428 958v-440h133q40 0 73 10t62.5 33t46.5 68t17 108q0 69 -16.5 115.5t-47 68t-62 29.5t-73.5 8h-133zM1374 518v-82h-426v604h426v-82h-330v-159h287v-82h-287v-199h330zM1542 944
v-508h-86v604h152l153 -493h11l157 493h146v-604h-86v508h-9l-165 -508h-97l-168 508h-8zM2253 739q0 -110 55.5 -173.5t142.5 -63.5t143 63.5t56 173.5t-56 173t-143 63t-142.5 -63t-55.5 -173zM102 1262h2872v-1047h-2872v1047zM2904 285v907h-2734v-907h2734zM2740 739
q0 -150 -74 -233.5t-215 -83.5t-214.5 83.5t-73.5 233.5t73.5 233t214.5 83t215 -83t74 -233z" />
    <glyph glyph-name="ogonek" unicode="&#x2db;" 
d="M561 436h-219v604h219q139 0 215 -75.5t76 -227.5q0 -142 -77.5 -221.5t-213.5 -79.5zM428 958v-440h133q40 0 73 10t62.5 33t46.5 68t17 108q0 69 -16.5 115.5t-47 68t-62 29.5t-73.5 8h-133zM1374 518v-82h-426v604h426v-82h-330v-159h287v-82h-287v-199h330zM1542 944
v-508h-86v604h152l153 -493h11l157 493h146v-604h-86v508h-9l-165 -508h-97l-168 508h-8zM2253 739q0 -110 55.5 -173.5t142.5 -63.5t143 63.5t56 173.5t-56 173t-143 63t-142.5 -63t-55.5 -173zM102 1262h2872v-1047h-2872v1047zM2904 285v907h-2734v-907h2734zM2740 739
q0 -150 -74 -233.5t-215 -83.5t-214.5 83.5t-73.5 233.5t73.5 233t214.5 83t215 -83t74 -233z" />
    <glyph glyph-name="tilde" unicode="&#x2dc;" 
d="M561 436h-219v604h219q139 0 215 -75.5t76 -227.5q0 -142 -77.5 -221.5t-213.5 -79.5zM428 958v-440h133q40 0 73 10t62.5 33t46.5 68t17 108q0 69 -16.5 115.5t-47 68t-62 29.5t-73.5 8h-133zM1374 518v-82h-426v604h426v-82h-330v-159h287v-82h-287v-199h330zM1542 944
v-508h-86v604h152l153 -493h11l157 493h146v-604h-86v508h-9l-165 -508h-97l-168 508h-8zM2253 739q0 -110 55.5 -173.5t142.5 -63.5t143 63.5t56 173.5t-56 173t-143 63t-142.5 -63t-55.5 -173zM102 1262h2872v-1047h-2872v1047zM2904 285v907h-2734v-907h2734zM2740 739
q0 -150 -74 -233.5t-215 -83.5t-214.5 83.5t-73.5 233.5t73.5 233t214.5 83t215 -83t74 -233z" />
    <glyph glyph-name="hungarumlaut" unicode="&#x2dd;" 
d="M561 436h-219v604h219q139 0 215 -75.5t76 -227.5q0 -142 -77.5 -221.5t-213.5 -79.5zM428 958v-440h133q40 0 73 10t62.5 33t46.5 68t17 108q0 69 -16.5 115.5t-47 68t-62 29.5t-73.5 8h-133zM1374 518v-82h-426v604h426v-82h-330v-159h287v-82h-287v-199h330zM1542 944
v-508h-86v604h152l153 -493h11l157 493h146v-604h-86v508h-9l-165 -508h-97l-168 508h-8zM2253 739q0 -110 55.5 -173.5t142.5 -63.5t143 63.5t56 173.5t-56 173t-143 63t-142.5 -63t-55.5 -173zM102 1262h2872v-1047h-2872v1047zM2904 285v907h-2734v-907h2734zM2740 739
q0 -150 -74 -233.5t-215 -83.5t-214.5 83.5t-73.5 233.5t73.5 233t214.5 83t215 -83t74 -233z" />
    <glyph glyph-name="Commaaccent" unicode="&#x326;" 
d="M561 436h-219v604h219q139 0 215 -75.5t76 -227.5q0 -142 -77.5 -221.5t-213.5 -79.5zM428 958v-440h133q40 0 73 10t62.5 33t46.5 68t17 108q0 69 -16.5 115.5t-47 68t-62 29.5t-73.5 8h-133zM1374 518v-82h-426v604h426v-82h-330v-159h287v-82h-287v-199h330zM1542 944
v-508h-86v604h152l153 -493h11l157 493h146v-604h-86v508h-9l-165 -508h-97l-168 508h-8zM2253 739q0 -110 55.5 -173.5t142.5 -63.5t143 63.5t56 173.5t-56 173t-143 63t-142.5 -63t-55.5 -173zM102 1262h2872v-1047h-2872v1047zM2904 285v907h-2734v-907h2734zM2740 739
q0 -150 -74 -233.5t-215 -83.5t-214.5 83.5t-73.5 233.5t73.5 233t214.5 83t215 -83t74 -233z" />
    <glyph glyph-name="uni0401" unicode="&#x401;" 
d="M561 436h-219v604h219q139 0 215 -75.5t76 -227.5q0 -142 -77.5 -221.5t-213.5 -79.5zM428 958v-440h133q40 0 73 10t62.5 33t46.5 68t17 108q0 69 -16.5 115.5t-47 68t-62 29.5t-73.5 8h-133zM1374 518v-82h-426v604h426v-82h-330v-159h287v-82h-287v-199h330zM1542 944
v-508h-86v604h152l153 -493h11l157 493h146v-604h-86v508h-9l-165 -508h-97l-168 508h-8zM2253 739q0 -110 55.5 -173.5t142.5 -63.5t143 63.5t56 173.5t-56 173t-143 63t-142.5 -63t-55.5 -173zM102 1262h2872v-1047h-2872v1047zM2904 285v907h-2734v-907h2734zM2740 739
q0 -150 -74 -233.5t-215 -83.5t-214.5 83.5t-73.5 233.5t73.5 233t214.5 83t215 -83t74 -233z" />
    <glyph glyph-name="uni0402" unicode="&#x402;" 
d="M561 436h-219v604h219q139 0 215 -75.5t76 -227.5q0 -142 -77.5 -221.5t-213.5 -79.5zM428 958v-440h133q40 0 73 10t62.5 33t46.5 68t17 108q0 69 -16.5 115.5t-47 68t-62 29.5t-73.5 8h-133zM1374 518v-82h-426v604h426v-82h-330v-159h287v-82h-287v-199h330zM1542 944
v-508h-86v604h152l153 -493h11l157 493h146v-604h-86v508h-9l-165 -508h-97l-168 508h-8zM2253 739q0 -110 55.5 -173.5t142.5 -63.5t143 63.5t56 173.5t-56 173t-143 63t-142.5 -63t-55.5 -173zM102 1262h2872v-1047h-2872v1047zM2904 285v907h-2734v-907h2734zM2740 739
q0 -150 -74 -233.5t-215 -83.5t-214.5 83.5t-73.5 233.5t73.5 233t214.5 83t215 -83t74 -233z" />
    <glyph glyph-name="uni0403" unicode="&#x403;" 
d="M561 436h-219v604h219q139 0 215 -75.5t76 -227.5q0 -142 -77.5 -221.5t-213.5 -79.5zM428 958v-440h133q40 0 73 10t62.5 33t46.5 68t17 108q0 69 -16.5 115.5t-47 68t-62 29.5t-73.5 8h-133zM1374 518v-82h-426v604h426v-82h-330v-159h287v-82h-287v-199h330zM1542 944
v-508h-86v604h152l153 -493h11l157 493h146v-604h-86v508h-9l-165 -508h-97l-168 508h-8zM2253 739q0 -110 55.5 -173.5t142.5 -63.5t143 63.5t56 173.5t-56 173t-143 63t-142.5 -63t-55.5 -173zM102 1262h2872v-1047h-2872v1047zM2904 285v907h-2734v-907h2734zM2740 739
q0 -150 -74 -233.5t-215 -83.5t-214.5 83.5t-73.5 233.5t73.5 233t214.5 83t215 -83t74 -233z" />
    <glyph glyph-name="uni0404" unicode="&#x404;" 
d="M561 436h-219v604h219q139 0 215 -75.5t76 -227.5q0 -142 -77.5 -221.5t-213.5 -79.5zM428 958v-440h133q40 0 73 10t62.5 33t46.5 68t17 108q0 69 -16.5 115.5t-47 68t-62 29.5t-73.5 8h-133zM1374 518v-82h-426v604h426v-82h-330v-159h287v-82h-287v-199h330zM1542 944
v-508h-86v604h152l153 -493h11l157 493h146v-604h-86v508h-9l-165 -508h-97l-168 508h-8zM2253 739q0 -110 55.5 -173.5t142.5 -63.5t143 63.5t56 173.5t-56 173t-143 63t-142.5 -63t-55.5 -173zM102 1262h2872v-1047h-2872v1047zM2904 285v907h-2734v-907h2734zM2740 739
q0 -150 -74 -233.5t-215 -83.5t-214.5 83.5t-73.5 233.5t73.5 233t214.5 83t215 -83t74 -233z" />
    <glyph glyph-name="uni0405" unicode="&#x405;" 
d="M561 436h-219v604h219q139 0 215 -75.5t76 -227.5q0 -142 -77.5 -221.5t-213.5 -79.5zM428 958v-440h133q40 0 73 10t62.5 33t46.5 68t17 108q0 69 -16.5 115.5t-47 68t-62 29.5t-73.5 8h-133zM1374 518v-82h-426v604h426v-82h-330v-159h287v-82h-287v-199h330zM1542 944
v-508h-86v604h152l153 -493h11l157 493h146v-604h-86v508h-9l-165 -508h-97l-168 508h-8zM2253 739q0 -110 55.5 -173.5t142.5 -63.5t143 63.5t56 173.5t-56 173t-143 63t-142.5 -63t-55.5 -173zM102 1262h2872v-1047h-2872v1047zM2904 285v907h-2734v-907h2734zM2740 739
q0 -150 -74 -233.5t-215 -83.5t-214.5 83.5t-73.5 233.5t73.5 233t214.5 83t215 -83t74 -233z" />
    <glyph glyph-name="uni0406" unicode="&#x406;" 
d="M561 436h-219v604h219q139 0 215 -75.5t76 -227.5q0 -142 -77.5 -221.5t-213.5 -79.5zM428 958v-440h133q40 0 73 10t62.5 33t46.5 68t17 108q0 69 -16.5 115.5t-47 68t-62 29.5t-73.5 8h-133zM1374 518v-82h-426v604h426v-82h-330v-159h287v-82h-287v-199h330zM1542 944
v-508h-86v604h152l153 -493h11l157 493h146v-604h-86v508h-9l-165 -508h-97l-168 508h-8zM2253 739q0 -110 55.5 -173.5t142.5 -63.5t143 63.5t56 173.5t-56 173t-143 63t-142.5 -63t-55.5 -173zM102 1262h2872v-1047h-2872v1047zM2904 285v907h-2734v-907h2734zM2740 739
q0 -150 -74 -233.5t-215 -83.5t-214.5 83.5t-73.5 233.5t73.5 233t214.5 83t215 -83t74 -233z" />
    <glyph glyph-name="uni0407" unicode="&#x407;" 
d="M561 436h-219v604h219q139 0 215 -75.5t76 -227.5q0 -142 -77.5 -221.5t-213.5 -79.5zM428 958v-440h133q40 0 73 10t62.5 33t46.5 68t17 108q0 69 -16.5 115.5t-47 68t-62 29.5t-73.5 8h-133zM1374 518v-82h-426v604h426v-82h-330v-159h287v-82h-287v-199h330zM1542 944
v-508h-86v604h152l153 -493h11l157 493h146v-604h-86v508h-9l-165 -508h-97l-168 508h-8zM2253 739q0 -110 55.5 -173.5t142.5 -63.5t143 63.5t56 173.5t-56 173t-143 63t-142.5 -63t-55.5 -173zM102 1262h2872v-1047h-2872v1047zM2904 285v907h-2734v-907h2734zM2740 739
q0 -150 -74 -233.5t-215 -83.5t-214.5 83.5t-73.5 233.5t73.5 233t214.5 83t215 -83t74 -233z" />
    <glyph glyph-name="uni0408" unicode="&#x408;" 
d="M561 436h-219v604h219q139 0 215 -75.5t76 -227.5q0 -142 -77.5 -221.5t-213.5 -79.5zM428 958v-440h133q40 0 73 10t62.5 33t46.5 68t17 108q0 69 -16.5 115.5t-47 68t-62 29.5t-73.5 8h-133zM1374 518v-82h-426v604h426v-82h-330v-159h287v-82h-287v-199h330zM1542 944
v-508h-86v604h152l153 -493h11l157 493h146v-604h-86v508h-9l-165 -508h-97l-168 508h-8zM2253 739q0 -110 55.5 -173.5t142.5 -63.5t143 63.5t56 173.5t-56 173t-143 63t-142.5 -63t-55.5 -173zM102 1262h2872v-1047h-2872v1047zM2904 285v907h-2734v-907h2734zM2740 739
q0 -150 -74 -233.5t-215 -83.5t-214.5 83.5t-73.5 233.5t73.5 233t214.5 83t215 -83t74 -233z" />
    <glyph glyph-name="uni0409" unicode="&#x409;" 
d="M561 436h-219v604h219q139 0 215 -75.5t76 -227.5q0 -142 -77.5 -221.5t-213.5 -79.5zM428 958v-440h133q40 0 73 10t62.5 33t46.5 68t17 108q0 69 -16.5 115.5t-47 68t-62 29.5t-73.5 8h-133zM1374 518v-82h-426v604h426v-82h-330v-159h287v-82h-287v-199h330zM1542 944
v-508h-86v604h152l153 -493h11l157 493h146v-604h-86v508h-9l-165 -508h-97l-168 508h-8zM2253 739q0 -110 55.5 -173.5t142.5 -63.5t143 63.5t56 173.5t-56 173t-143 63t-142.5 -63t-55.5 -173zM102 1262h2872v-1047h-2872v1047zM2904 285v907h-2734v-907h2734zM2740 739
q0 -150 -74 -233.5t-215 -83.5t-214.5 83.5t-73.5 233.5t73.5 233t214.5 83t215 -83t74 -233z" />
    <glyph glyph-name="uni040A" unicode="&#x40a;" 
d="M561 436h-219v604h219q139 0 215 -75.5t76 -227.5q0 -142 -77.5 -221.5t-213.5 -79.5zM428 958v-440h133q40 0 73 10t62.5 33t46.5 68t17 108q0 69 -16.5 115.5t-47 68t-62 29.5t-73.5 8h-133zM1374 518v-82h-426v604h426v-82h-330v-159h287v-82h-287v-199h330zM1542 944
v-508h-86v604h152l153 -493h11l157 493h146v-604h-86v508h-9l-165 -508h-97l-168 508h-8zM2253 739q0 -110 55.5 -173.5t142.5 -63.5t143 63.5t56 173.5t-56 173t-143 63t-142.5 -63t-55.5 -173zM102 1262h2872v-1047h-2872v1047zM2904 285v907h-2734v-907h2734zM2740 739
q0 -150 -74 -233.5t-215 -83.5t-214.5 83.5t-73.5 233.5t73.5 233t214.5 83t215 -83t74 -233z" />
    <glyph glyph-name="uni040B" unicode="&#x40b;" 
d="M561 436h-219v604h219q139 0 215 -75.5t76 -227.5q0 -142 -77.5 -221.5t-213.5 -79.5zM428 958v-440h133q40 0 73 10t62.5 33t46.5 68t17 108q0 69 -16.5 115.5t-47 68t-62 29.5t-73.5 8h-133zM1374 518v-82h-426v604h426v-82h-330v-159h287v-82h-287v-199h330zM1542 944
v-508h-86v604h152l153 -493h11l157 493h146v-604h-86v508h-9l-165 -508h-97l-168 508h-8zM2253 739q0 -110 55.5 -173.5t142.5 -63.5t143 63.5t56 173.5t-56 173t-143 63t-142.5 -63t-55.5 -173zM102 1262h2872v-1047h-2872v1047zM2904 285v907h-2734v-907h2734zM2740 739
q0 -150 -74 -233.5t-215 -83.5t-214.5 83.5t-73.5 233.5t73.5 233t214.5 83t215 -83t74 -233z" />
    <glyph glyph-name="uni040C" unicode="&#x40c;" 
d="M561 436h-219v604h219q139 0 215 -75.5t76 -227.5q0 -142 -77.5 -221.5t-213.5 -79.5zM428 958v-440h133q40 0 73 10t62.5 33t46.5 68t17 108q0 69 -16.5 115.5t-47 68t-62 29.5t-73.5 8h-133zM1374 518v-82h-426v604h426v-82h-330v-159h287v-82h-287v-199h330zM1542 944
v-508h-86v604h152l153 -493h11l157 493h146v-604h-86v508h-9l-165 -508h-97l-168 508h-8zM2253 739q0 -110 55.5 -173.5t142.5 -63.5t143 63.5t56 173.5t-56 173t-143 63t-142.5 -63t-55.5 -173zM102 1262h2872v-1047h-2872v1047zM2904 285v907h-2734v-907h2734zM2740 739
q0 -150 -74 -233.5t-215 -83.5t-214.5 83.5t-73.5 233.5t73.5 233t214.5 83t215 -83t74 -233z" />
    <glyph glyph-name="uni040E" unicode="&#x40e;" 
d="M561 436h-219v604h219q139 0 215 -75.5t76 -227.5q0 -142 -77.5 -221.5t-213.5 -79.5zM428 958v-440h133q40 0 73 10t62.5 33t46.5 68t17 108q0 69 -16.5 115.5t-47 68t-62 29.5t-73.5 8h-133zM1374 518v-82h-426v604h426v-82h-330v-159h287v-82h-287v-199h330zM1542 944
v-508h-86v604h152l153 -493h11l157 493h146v-604h-86v508h-9l-165 -508h-97l-168 508h-8zM2253 739q0 -110 55.5 -173.5t142.5 -63.5t143 63.5t56 173.5t-56 173t-143 63t-142.5 -63t-55.5 -173zM102 1262h2872v-1047h-2872v1047zM2904 285v907h-2734v-907h2734zM2740 739
q0 -150 -74 -233.5t-215 -83.5t-214.5 83.5t-73.5 233.5t73.5 233t214.5 83t215 -83t74 -233z" />
    <glyph glyph-name="uni040F" unicode="&#x40f;" 
d="M561 436h-219v604h219q139 0 215 -75.5t76 -227.5q0 -142 -77.5 -221.5t-213.5 -79.5zM428 958v-440h133q40 0 73 10t62.5 33t46.5 68t17 108q0 69 -16.5 115.5t-47 68t-62 29.5t-73.5 8h-133zM1374 518v-82h-426v604h426v-82h-330v-159h287v-82h-287v-199h330zM1542 944
v-508h-86v604h152l153 -493h11l157 493h146v-604h-86v508h-9l-165 -508h-97l-168 508h-8zM2253 739q0 -110 55.5 -173.5t142.5 -63.5t143 63.5t56 173.5t-56 173t-143 63t-142.5 -63t-55.5 -173zM102 1262h2872v-1047h-2872v1047zM2904 285v907h-2734v-907h2734zM2740 739
q0 -150 -74 -233.5t-215 -83.5t-214.5 83.5t-73.5 233.5t73.5 233t214.5 83t215 -83t74 -233z" />
    <glyph glyph-name="uni0410" unicode="&#x410;" horiz-adv-x="1292" 
d="M938 399h-580l-145 -399h-213l549 1434h196l547 -1434h-211zM872 565l-223 645h-8l-219 -645h450z" />
    <glyph glyph-name="uni0411" unicode="&#x411;" horiz-adv-x="1386" 
d="M791 694h-414v-526h414q311 0 311 262q0 264 -311 264zM377 862h405q87 0 158 -10.5t141 -39.5t117.5 -76t77 -125t29.5 -181t-29.5 -180.5t-77 -124t-117.5 -75.5t-141 -39.5t-158 -10.5h-608v1434h1040v-168h-837v-404z" />
    <glyph glyph-name="uni0412" unicode="&#x412;" horiz-adv-x="1411" 
d="M1030 758q111 -31 186.5 -122.5t75.5 -221.5q0 -65 -14 -121.5t-50.5 -111.5t-93.5 -94t-150 -63t-214 -24h-596v1434h596q101 0 180.5 -24t129 -62t82 -90t45 -103.5t12.5 -107.5q0 -105 -54 -175.5t-135 -105.5v-8zM377 662v-494h393q320 0 320 246q0 134 -83.5 191
t-236.5 57h-393zM1016 1047q0 29 -6.5 57t-23.5 58t-44 52.5t-71 37t-101 14.5h-393v-437h393q246 0 246 218z" />
    <glyph glyph-name="uni0413" unicode="&#x413;" horiz-adv-x="1097" 
d="M377 1266v-1266h-203v1434h911v-168h-708z" />
    <glyph glyph-name="uni0414" unicode="&#x414;" horiz-adv-x="1464" 
d="M1262 168h176v-492h-162l-41 324h-1032l-41 -324h-162v492h154q49 53 87.5 122t76 179.5t58.5 280t21 383.5v301h865v-1266zM1059 1266h-461v-131q0 -338 -53 -569t-160 -398h674v1098z" />
    <glyph glyph-name="uni0415" unicode="&#x415;" horiz-adv-x="1230" 
d="M1077 662h-700v-494h805v-168h-1008v1434h1008v-168h-805v-437h700v-167z" />
    <glyph glyph-name="uni0416" unicode="&#x416;" horiz-adv-x="1898" 
d="M1137 662h-86v-662h-203v662h-86l-537 -662h-233l614 750l-586 684h226l516 -605h86v605h203v-605h86l516 605h225l-586 -684l615 -750h-234z" />
    <glyph glyph-name="uni0417" unicode="&#x417;" horiz-adv-x="1308" 
d="M645 1286q-114 0 -196.5 -53t-149.5 -170l-156 98q89 152 208 222.5t294 70.5q248 0 366.5 -106t118.5 -287q0 -96 -55 -178t-133 -123v-12q109 -35 178.5 -117t69.5 -219q0 -33 -5.5 -68.5t-21.5 -79t-41.5 -82t-68 -76.5t-97.5 -65.5t-135 -44t-176 -16.5
q-371 0 -553 307l148 102q141 -242 405 -242q83 0 147.5 20t100 49t58 67t29.5 69t7 60q0 30 -7 59.5t-29 65.5t-57.5 62.5t-99 44.5t-147.5 18h-180v167h166q147 0 221 64.5t74 167.5q0 105 -68 165t-215 60z" />
    <glyph glyph-name="uni0418" unicode="&#x418;" horiz-adv-x="1492" 
d="M377 1434v-1125h8l748 1125h186v-1434h-203v1130h-8l-743 -1130h-191v1434h203z" />
    <glyph glyph-name="uni0419" unicode="&#x419;" horiz-adv-x="1492" 
d="M745 1649q79 0 130 41.5t71 109.5l117 -51q-28 -95 -114.5 -154t-203.5 -59t-203 59t-114 154l117 51q20 -69 70.5 -110t129.5 -41zM377 1434v-1125h8l748 1125h186v-1434h-203v1130h-8l-743 -1130h-191v1434h203z" />
    <glyph glyph-name="uni041A" unicode="&#x41a;" horiz-adv-x="1329" 
d="M1073 0l-633 662h-63v-662h-203v1434h203v-605h63l617 605h262l-701 -684l719 -750h-264z" />
    <glyph glyph-name="uni041B" unicode="&#x41b;" horiz-adv-x="1404" 
d="M545 1266v-330q0 -485 -92 -720.5t-301 -235.5q-60 0 -125 20v170q47 -23 116 -23q201 0 201 727v560h887v-1434h-203v1266h-483z" />
    <glyph glyph-name="uni041C" unicode="&#x41c;" horiz-adv-x="1820" 
d="M1436 1180l-443 -1180h-159l-449 1180h-8v-1180h-203v1434h291l440 -1184h8l443 1184h291v-1434h-203v1180h-8z" />
    <glyph glyph-name="uni041D" unicode="&#x41d;" horiz-adv-x="1468" 
d="M377 662v-662h-203v1434h203v-605h715v605h202v-1434h-202v662h-715z" />
    <glyph glyph-name="uni041E" unicode="&#x41e;" horiz-adv-x="1576" 
d="M1485 717q0 -351 -185.5 -544t-511.5 -193q-324 0 -510 193t-186 544t186 544t510 193q326 0 511.5 -193t185.5 -544zM1282 717q0 92 -15 170t-41 135.5t-63 103t-79.5 75t-92.5 49t-100 28t-103 8.5q-76 0 -144 -16.5t-133 -57.5t-112 -104t-75.5 -163.5t-28.5 -227.5
t28.5 -227.5t75.5 -163.5t112 -104.5t133 -58t144 -16.5t144 16.5t133.5 58t112.5 104.5t75.5 163.5t28.5 227.5z" />
    <glyph glyph-name="uni041F" unicode="&#x41f;" horiz-adv-x="1454" 
d="M377 1266v-1266h-203v1434h1106v-1434h-203v1266h-700z" />
    <glyph glyph-name="uni0420" unicode="&#x420;" horiz-adv-x="1271" 
d="M713 551h-336v-551h-203v1434h539q38 0 78 -4.5t89.5 -17t94 -32.5t87.5 -55t74.5 -79.5t50.5 -110t19 -144.5q0 -109 -36.5 -192t-90 -128.5t-125 -74t-128 -37t-113.5 -8.5zM377 719h319q39 0 77 6t81.5 24.5t75.5 47.5t53 79t21 115q0 64 -21 114.5t-53 80t-75 48.5
t-81.5 25.5t-77.5 6.5h-319v-547z" />
    <glyph glyph-name="uni0421" unicode="&#x421;" horiz-adv-x="1413" 
d="M774 1454q382 0 561 -324l-157 -104q-133 260 -404 260q-76 0 -143 -16.5t-130 -57.5t-107.5 -104t-71.5 -163t-27 -228t27 -228t71.5 -163t107.5 -104.5t130 -58t143 -16.5q271 0 404 267l155 -111q-176 -323 -559 -323q-325 0 -503.5 191.5t-178.5 545.5t178.5 545.5
t503.5 191.5z" />
    <glyph glyph-name="uni0422" unicode="&#x422;" horiz-adv-x="1140" 
d="M469 1266h-457v168h1116v-168h-456v-1266h-203v1266z" />
    <glyph glyph-name="uni0423" unicode="&#x423;" horiz-adv-x="1208" 
d="M629 0h-215l141 346l-537 1088h230l397 -846h8l334 846h221z" />
    <glyph glyph-name="uni0424" unicode="&#x424;" horiz-adv-x="1818" 
d="M1010 1118v-782q32 -18 90 -29.5t106 -11.5q107 0 182.5 57.5t110.5 152.5t35 220q0 199 -83.5 315.5t-244.5 116.5q-104 0 -196 -39zM807 1286v207h203v-207h8q103 39 188 39q260 0 395.5 -162t135.5 -436q0 -131 -33 -239.5t-97.5 -189.5t-167 -126t-233.5 -45
q-98 0 -190 39h-6v-219h-203v219h-8q-102 -39 -189 -39q-131 0 -233 45t-166 126t-96.5 189.5t-32.5 239.5q0 274 134 436t394 162q86 0 189 -39h8zM807 336v782q-92 39 -197 39q-161 0 -243 -116.5t-82 -315.5q0 -192 83 -311t242 -119q48 0 106.5 11.5t90.5 29.5z" />
    <glyph glyph-name="uni0425" unicode="&#x425;" horiz-adv-x="1214" 
d="M981 0l-367 590h-10l-371 -590h-233l483 743l-475 691h238l358 -547h8l357 547h235l-473 -691l483 -743h-233z" />
    <glyph glyph-name="uni0426" unicode="&#x426;" horiz-adv-x="1495" 
d="M377 168h713v1266h202v-1266h176v-492h-161l-41 324h-1092v1434h203v-1266z" />
    <glyph glyph-name="uni0427" unicode="&#x427;" horiz-adv-x="1284" 
d="M119 1434h203v-459q0 -141 78 -202.5t249 -61.5q119 0 258 49v674h203v-1434h-203v584q-164 -41 -266 -41q-285 0 -403.5 104t-118.5 336v451z" />
    <glyph glyph-name="uni0428" unicode="&#x428;" horiz-adv-x="2103" 
d="M377 168h573v1266h203v-1266h573v1266h203v-1434h-1755v1434h203v-1266z" />
    <glyph glyph-name="uni0429" unicode="&#x429;" horiz-adv-x="2131" 
d="M1153 168h573v1266h203v-1266h176v-492h-161l-41 324h-1729v1434h203v-1266h573v1266h203v-1266z" />
    <glyph glyph-name="uni042A" unicode="&#x42a;" horiz-adv-x="1437" 
d="M858 0h-530v1266h-318v168h520v-553h328q121 0 214.5 -28.5t148.5 -72.5t90.5 -104.5t48 -117t12.5 -118.5q0 -51 -9.5 -98.5t-30.5 -99t-60 -93.5t-93.5 -76.5t-137 -53.5t-183.5 -19zM868 713h-338v-545h338q152 0 226.5 77t74.5 195t-74.5 195.5t-226.5 77.5z" />
    <glyph glyph-name="uni042B" unicode="&#x42b;" horiz-adv-x="1732" 
d="M715 713h-338v-545h338q151 0 226 77t75 195t-75 195.5t-226 77.5zM705 0h-531v1434h203v-553h328q120 0 213.5 -28.5t148.5 -72.5t90.5 -104t48.5 -117t13 -119q0 -61 -13 -118t-48.5 -117.5t-90.5 -104.5t-148.5 -72t-213.5 -28zM1559 1434v-1434h-203v1434h203z" />
    <glyph glyph-name="uni042C" unicode="&#x42c;" horiz-adv-x="1284" 
d="M715 713h-338v-545h338q151 0 226 77t75 195t-75 195.5t-226 77.5zM705 0h-531v1434h203v-553h328q120 0 213.5 -28.5t148.5 -72.5t90.5 -104t48.5 -117t13 -119q0 -61 -13 -118t-48.5 -117.5t-90.5 -104.5t-148.5 -72t-213.5 -28z" />
    <glyph glyph-name="uni042D" unicode="&#x42d;" horiz-adv-x="1400" 
d="M387 662v167h713q-10 102 -41.5 182t-75.5 131t-102.5 84t-119 46.5t-128.5 13.5q-126 0 -236 -56.5t-176 -180.5l-135 102q167 303 547 303q324 0 500 -191.5t176 -545.5t-176 -545.5t-500 -191.5q-384 0 -551 303l135 102q66 -124 178 -181t238 -57q74 0 137.5 14
t124 50.5t104 93.5t72 148t33.5 209h-717z" />
    <glyph glyph-name="uni042E" unicode="&#x42e;" horiz-adv-x="2041" 
d="M1950 717q0 -352 -182.5 -544.5t-507.5 -192.5q-312 0 -494 177.5t-197 504.5h-192v-662h-203v1434h203v-605h196q29 302 209.5 463.5t477.5 161.5q325 0 507.5 -192.5t182.5 -544.5zM1747 717q0 128 -28 228t-74 163t-110.5 104t-131.5 57.5t-143 16.5t-143.5 -16.5
t-132 -57.5t-110.5 -104t-74 -163t-28 -228t28 -228t74 -163t110.5 -104.5t132 -58t143.5 -16.5t143 16.5t131.5 58t110.5 104.5t74 163t28 228z" />
    <glyph glyph-name="uni042F" unicode="&#x42f;" horiz-adv-x="1396" 
d="M113 0l356 571q-324 81 -324 422q0 113 40 200t109 138.5t155 77t186 25.5h588v-1434h-203v553h-332l-336 -553h-239zM348 993q0 -136 87 -204t218 -68h367v545h-367q-131 0 -218 -68.5t-87 -204.5z" />
    <glyph glyph-name="uni0430" unicode="&#x430;" horiz-adv-x="1128" 
d="M504 131q149 0 260 121v211q-118 33 -250 33q-105 0 -178.5 -44t-73.5 -135q0 -186 242 -186zM494 -20q-95 0 -169 19.5t-120 51t-76 76.5t-41.5 91t-11.5 99q0 113 61.5 188.5t163.5 108.5t240 33q91 0 223 -26v98q0 47 -16.5 83t-40.5 55.5t-56.5 32t-58 16t-51.5 3.5
q-97 0 -158.5 -38t-103.5 -121l-156 75q32 59 66 99.5t82.5 73t115 48t154.5 15.5q99 0 174.5 -24t118.5 -60t70.5 -85t36.5 -92t9 -89v-533q0 -47 47 -47q16 0 32.5 5.5t24.5 11.5l9 6v-136q-71 -28 -129 -28q-49 0 -93.5 24t-62.5 66h-8q-127 -100 -276 -100z" />
    <glyph glyph-name="uni0431" unicode="&#x431;" horiz-adv-x="1161" 
d="M274 565q0 -109 18 -189.5t46 -126.5t70.5 -73.5t83 -36t92.5 -8.5q150 0 226.5 93.5t76.5 275.5q0 188 -76 288.5t-227 100.5q-83 0 -159 -40.5t-122 -98.5q-29 -67 -29 -185zM834 1487h186q-4 -36 -15 -67t-24.5 -54.5t-36.5 -43.5t-43 -33t-52 -25t-54.5 -18.5
t-60.5 -13.5t-60 -10t-62 -8q-39 -5 -79 -15.5t-86.5 -33.5t-82.5 -54.5t-61.5 -81.5t-28.5 -111h9q54 57 133 89.5t168 32.5q129 0 224.5 -40t152.5 -114t84.5 -170t27.5 -216q0 -117 -27.5 -210.5t-85 -163.5t-153 -108t-223.5 -38q-82 0 -148 13t-133 51t-112.5 101
t-74 170.5t-28.5 251.5q0 168 19.5 296t53.5 213.5t87.5 144t113 89.5t138.5 48q40 9 88 17.5t78 12.5t62 12t51 18t34 27t21 42z" />
    <glyph glyph-name="uni0432" unicode="&#x432;" horiz-adv-x="1103" 
d="M784 756q0 67 -43 100t-120 33h-287v-266h287q77 0 120 33t43 100zM805 551q93 -22 150 -83.5t57 -164.5q0 -303 -391 -303h-474v1040h474q82 0 143 -13t109 -44t73 -85.5t25 -133.5q0 -76 -47 -133.5t-119 -71.5v-8zM825 309q0 88 -49.5 125t-154.5 37h-287v-319h287
q90 0 147 36.5t57 120.5z" />
    <glyph glyph-name="uni0433" unicode="&#x433;" horiz-adv-x="843" 
d="M334 889v-889h-187v1040h684v-151h-497z" />
    <glyph glyph-name="uni0434" unicode="&#x434;" horiz-adv-x="1187" 
d="M0 152h143q63 97 99.5 260t36.5 442v186h735v-888h164v-422h-146l-41 270h-805l-41 -270h-145v422zM827 889h-360v-109q0 -401 -127 -628h487v737z" />
    <glyph glyph-name="uni0435" unicode="&#x435;" horiz-adv-x="1155" 
d="M592 909q-137 0 -219 -75t-99 -216h607q-6 141 -79 216t-210 75zM1067 469h-793q10 -160 102.5 -249t237.5 -89q200 0 283 170l143 -80q-115 -241 -426 -241q-130 0 -231 41t-165 114t-97 170.5t-33 214.5q0 118 29 214.5t88 170.5t157.5 115t229.5 41q130 0 224.5 -41.5
t148 -117t78 -170t24.5 -212.5v-51z" />
    <glyph glyph-name="uni0436" unicode="&#x436;" horiz-adv-x="1460" 
d="M637 0v475h-43l-389 -475h-205l455 553l-432 487h204l367 -419h43v419h186v-419h43l367 419h205l-432 -487l454 -553h-205l-389 475h-43v-475h-186z" />
    <glyph glyph-name="uni0437" unicode="&#x437;" horiz-adv-x="1005" 
d="M735 551q80 -29 131.5 -91.5t51.5 -158.5q0 -146 -105.5 -233.5t-320.5 -87.5q-150 0 -253.5 50.5t-172.5 182.5l133 82q37 -85 116 -124.5t177 -39.5q239 0 239 170q0 86 -55.5 128t-183.5 42h-170v152h182q198 0 198 151q0 135 -190 135q-201 0 -289 -172l-139 84
q32 64 76.5 110.5t86 70.5t93.5 38t89 17.5t83 3.5q72 0 131 -11.5t97 -29.5t67 -44.5t44 -51.5t24 -55t11.5 -51t2.5 -44q0 -80 -44.5 -134t-109.5 -81v-8z" />
    <glyph glyph-name="uni0438" unicode="&#x438;" horiz-adv-x="1210" 
d="M346 0h-199v1040h187v-800h8l522 800h199v-1040h-186v801h-9z" />
    <glyph glyph-name="uni0439" unicode="&#x439;" horiz-adv-x="1210" 
d="M346 0h-199v1040h187v-800h8l522 800h199v-1040h-186v801h-9zM604 1282q79 0 130 41.5t71 110.5l117 -52q-28 -95 -114.5 -154t-203.5 -59t-203 59t-114 154l116 52q20 -69 71 -110.5t130 -41.5z" />
    <glyph glyph-name="uni043A" unicode="&#x43a;" horiz-adv-x="1062" 
d="M850 0l-442 477h-74v-477h-187v1040h187v-422h74l417 422h215l-493 -493l516 -547h-213z" />
    <glyph glyph-name="uni043B" unicode="&#x43b;" horiz-adv-x="1142" 
d="M127 129q79 0 106 129.5t27 425.5v356h735v-1040h-186v889h-365v-203q0 -110 -4 -190.5t-14.5 -165.5t-31.5 -142t-53.5 -104.5t-82 -70.5t-115.5 -23q-58 0 -116 28v134q54 -23 100 -23z" />
    <glyph glyph-name="uni043C" unicode="&#x43c;" horiz-adv-x="1497" 
d="M1155 793l-332 -793h-149l-332 793h-8v-793h-187v1040h248l348 -829h11l348 829h248v-1040h-187v793h-8z" />
    <glyph glyph-name="uni043D" unicode="&#x43d;" horiz-adv-x="1150" 
d="M334 471v-471h-187v1040h187v-417h483v417h187v-1040h-187v471h-483z" />
    <glyph glyph-name="uni043E" unicode="&#x43e;" horiz-adv-x="1189" 
d="M915 520q0 184 -83 286.5t-236 102.5t-237.5 -102.5t-84.5 -286.5t84.5 -286.5t237.5 -102.5t236 102.5t83 286.5zM1102 520q0 -118 -29 -214.5t-88 -170.5t-158 -114.5t-231 -40.5q-133 0 -232.5 40.5t-159 115t-88 170.5t-28.5 214t28.5 214.5t88 170.5t159 115
t232.5 41q132 0 231 -41t158 -115t88 -170.5t29 -214.5z" />
    <glyph glyph-name="uni043F" unicode="&#x43f;" horiz-adv-x="1159" 
d="M334 889v-889h-187v1040h865v-1040h-187v889h-491z" />
    <glyph glyph-name="uni0440" unicode="&#x440;" horiz-adv-x="1183" 
d="M600 909q-79 0 -151.5 -46t-114.5 -115v-482q44 -59 116.5 -97t149.5 -38q152 0 230.5 101.5t78.5 287.5t-78.5 287.5t-230.5 101.5zM600 -20q-161 0 -258 94h-8v-484h-187v1450h138l41 -108h8q49 57 122 93t158 36q104 0 186 -27t137 -74.5t91 -116.5t52 -148.5
t16 -174.5q0 -118 -28.5 -214.5t-86.5 -170.5t-155 -114.5t-226 -40.5z" />
    <glyph glyph-name="uni0441" unicode="&#x441;" horiz-adv-x="1073" 
d="M590 909q-153 0 -234.5 -102t-81.5 -287t81.5 -287t234.5 -102q100 0 161 40.5t105 129.5l143 -80q-59 -124 -157 -182.5t-252 -58.5q-129 0 -227 40.5t-157.5 114.5t-88.5 170.5t-29 214.5t29 214.5t88.5 170.5t157.5 115t227 41q154 0 252 -59t157 -183l-143 -80
q-44 89 -105 129.5t-161 40.5z" />
    <glyph glyph-name="uni0442" unicode="&#x442;" horiz-adv-x="927" 
d="M371 889h-344v151h874v-151h-344v-889h-186v889z" />
    <glyph glyph-name="uni0443" unicode="&#x443;" horiz-adv-x="997" 
d="M442 0h-36l-392 1040h203l301 -823h17l262 823h200l-501 -1450h-197z" />
    <glyph glyph-name="uni0444" unicode="&#x444;" horiz-adv-x="1628" 
d="M721 178v680q-70 51 -170 51q-94 0 -156.5 -54t-89 -139t-26.5 -196t26.5 -196t89 -139t156.5 -54q41 0 92 13.5t78 33.5zM907 18v-428h-186v428h-8q-78 -38 -162 -38q-100 0 -179 28.5t-132 77t-87.5 118t-49.5 147.5t-15 169t15 169t49.5 147.5t87.5 118.5t132 77.5
t179 28.5q82 0 162 -39h8v412h186v-412h8q80 39 162 39q100 0 179 -28.5t132 -77.5t87.5 -118.5t49.5 -147.5t15 -169t-15 -169t-49.5 -147.5t-87.5 -118t-132 -77t-179 -28.5q-84 0 -162 38h-8zM907 858v-680q27 -20 78 -33.5t92 -13.5q138 0 205.5 108.5t67.5 280.5
t-67.5 280.5t-205.5 108.5q-100 0 -170 -51z" />
    <glyph glyph-name="uni0445" unicode="&#x445;" horiz-adv-x="995" 
d="M502 666l252 374h213l-357 -497l385 -543h-217l-276 418h-8l-277 -418h-217l385 543l-356 497h213l252 -374h8z" />
    <glyph glyph-name="uni0446" unicode="&#x446;" horiz-adv-x="1171" 
d="M334 152h477v888h186v-888h164v-422h-145l-41 270h-828v1040h187v-888z" />
    <glyph glyph-name="uni0447" unicode="&#x447;" horiz-adv-x="1021" 
d="M688 0v426q-98 -25 -199 -25q-76 0 -137 10.5t-102 27t-71 42.5t-46.5 52t-26 61.5t-12 64.5t-2.5 66v315h187v-311q0 -33 7 -59t27 -55t64.5 -45.5t111.5 -16.5q100 0 199 31v456h186v-1040h-186z" />
    <glyph glyph-name="uni0448" unicode="&#x448;" horiz-adv-x="1595" 
d="M334 152h371v888h186v-888h371v888h186v-1040h-1301v1040h187v-888z" />
    <glyph glyph-name="uni0449" unicode="&#x449;" horiz-adv-x="1642" 
d="M334 152h377v888h188v-888h381v888h188v-888h164v-422h-145l-41 270h-1299v1040h187v-888z" />
    <glyph glyph-name="uni044A" unicode="&#x44a;" horiz-adv-x="1142" 
d="M1096 330q0 -330 -410 -330h-422v889h-252v151h439v-381h235q410 0 410 -329zM696 508h-245v-356h245q27 0 52 3.5t55.5 14.5t53 29.5t37.5 52t15 78.5t-15 78.5t-37.5 52t-53 29.5t-55.5 14.5t-52 3.5z" />
    <glyph glyph-name="uni044B" unicode="&#x44b;" horiz-adv-x="1454" 
d="M1120 1040h187v-1040h-187v1040zM582 508h-248v-356h248q26 0 50.5 3.5t55 14.5t53 29.5t37.5 52t15 78.5t-15 78.5t-37.5 52t-53 29.5t-55 14.5t-50.5 3.5zM979 330q0 -330 -410 -330h-422v1040h187v-381h235q410 0 410 -329z" />
    <glyph glyph-name="uni044C" unicode="&#x44c;" horiz-adv-x="1026" 
d="M582 508h-248v-356h248q26 0 50.5 3.5t55 14.5t53 29.5t37.5 52t15 78.5t-15 78.5t-37.5 52t-53 29.5t-55 14.5t-50.5 3.5zM979 330q0 -330 -410 -330h-422v1040h187v-381h235q410 0 410 -329z" />
    <glyph glyph-name="uni044D" unicode="&#x44d;" horiz-adv-x="1075" 
d="M76 229l145 93q39 -91 118 -141t171 -50q275 0 291 340h-473v152h467q-15 143 -85 214.5t-200 71.5q-89 0 -163 -46.5t-111 -131.5l-142 84q108 246 416 246q129 0 223 -40.5t148.5 -115.5t80 -170t25.5 -215t-25.5 -215t-80 -169.5t-148.5 -115t-223 -40.5
q-152 0 -263 65.5t-171 183.5z" />
    <glyph glyph-name="uni044E" unicode="&#x44e;" horiz-adv-x="1576" 
d="M336 471v-471h-189v1040h189v-417h158q21 206 143.5 322t351.5 116q129 0 226.5 -41t156.5 -115t88 -170.5t29 -214.5t-29 -214.5t-88 -170t-156.5 -114.5t-226.5 -41q-125 0 -219.5 35.5t-154 102t-90.5 154.5t-36 199h-153zM1303 520q0 184 -81.5 286.5t-232.5 102.5
q-152 0 -233.5 -102t-81.5 -287t81.5 -287t233.5 -102q151 0 232.5 102.5t81.5 286.5z" />
    <glyph glyph-name="uni044F" unicode="&#x44f;" horiz-adv-x="1101" 
d="M768 399h-242l-237 -399h-213l258 426q-97 35 -154 110t-57 185q0 156 101.5 237.5t279.5 81.5h450v-1040h-186v399zM512 549h256v340h-256q-93 0 -148 -42.5t-55 -125.5q0 -85 55 -128.5t148 -43.5z" />
    <glyph glyph-name="uni0451" unicode="&#x451;" 
d="M561 436h-219v604h219q139 0 215 -75.5t76 -227.5q0 -142 -77.5 -221.5t-213.5 -79.5zM428 958v-440h133q40 0 73 10t62.5 33t46.5 68t17 108q0 69 -16.5 115.5t-47 68t-62 29.5t-73.5 8h-133zM1374 518v-82h-426v604h426v-82h-330v-159h287v-82h-287v-199h330zM1542 944
v-508h-86v604h152l153 -493h11l157 493h146v-604h-86v508h-9l-165 -508h-97l-168 508h-8zM2253 739q0 -110 55.5 -173.5t142.5 -63.5t143 63.5t56 173.5t-56 173t-143 63t-142.5 -63t-55.5 -173zM102 1262h2872v-1047h-2872v1047zM2904 285v907h-2734v-907h2734zM2740 739
q0 -150 -74 -233.5t-215 -83.5t-214.5 83.5t-73.5 233.5t73.5 233t214.5 83t215 -83t74 -233z" />
    <glyph glyph-name="uni0452" unicode="&#x452;" 
d="M561 436h-219v604h219q139 0 215 -75.5t76 -227.5q0 -142 -77.5 -221.5t-213.5 -79.5zM428 958v-440h133q40 0 73 10t62.5 33t46.5 68t17 108q0 69 -16.5 115.5t-47 68t-62 29.5t-73.5 8h-133zM1374 518v-82h-426v604h426v-82h-330v-159h287v-82h-287v-199h330zM1542 944
v-508h-86v604h152l153 -493h11l157 493h146v-604h-86v508h-9l-165 -508h-97l-168 508h-8zM2253 739q0 -110 55.5 -173.5t142.5 -63.5t143 63.5t56 173.5t-56 173t-143 63t-142.5 -63t-55.5 -173zM102 1262h2872v-1047h-2872v1047zM2904 285v907h-2734v-907h2734zM2740 739
q0 -150 -74 -233.5t-215 -83.5t-214.5 83.5t-73.5 233.5t73.5 233t214.5 83t215 -83t74 -233z" />
    <glyph glyph-name="uni0453" unicode="&#x453;" 
d="M561 436h-219v604h219q139 0 215 -75.5t76 -227.5q0 -142 -77.5 -221.5t-213.5 -79.5zM428 958v-440h133q40 0 73 10t62.5 33t46.5 68t17 108q0 69 -16.5 115.5t-47 68t-62 29.5t-73.5 8h-133zM1374 518v-82h-426v604h426v-82h-330v-159h287v-82h-287v-199h330zM1542 944
v-508h-86v604h152l153 -493h11l157 493h146v-604h-86v508h-9l-165 -508h-97l-168 508h-8zM2253 739q0 -110 55.5 -173.5t142.5 -63.5t143 63.5t56 173.5t-56 173t-143 63t-142.5 -63t-55.5 -173zM102 1262h2872v-1047h-2872v1047zM2904 285v907h-2734v-907h2734zM2740 739
q0 -150 -74 -233.5t-215 -83.5t-214.5 83.5t-73.5 233.5t73.5 233t214.5 83t215 -83t74 -233z" />
    <glyph glyph-name="uni0454" unicode="&#x454;" 
d="M561 436h-219v604h219q139 0 215 -75.5t76 -227.5q0 -142 -77.5 -221.5t-213.5 -79.5zM428 958v-440h133q40 0 73 10t62.5 33t46.5 68t17 108q0 69 -16.5 115.5t-47 68t-62 29.5t-73.5 8h-133zM1374 518v-82h-426v604h426v-82h-330v-159h287v-82h-287v-199h330zM1542 944
v-508h-86v604h152l153 -493h11l157 493h146v-604h-86v508h-9l-165 -508h-97l-168 508h-8zM2253 739q0 -110 55.5 -173.5t142.5 -63.5t143 63.5t56 173.5t-56 173t-143 63t-142.5 -63t-55.5 -173zM102 1262h2872v-1047h-2872v1047zM2904 285v907h-2734v-907h2734zM2740 739
q0 -150 -74 -233.5t-215 -83.5t-214.5 83.5t-73.5 233.5t73.5 233t214.5 83t215 -83t74 -233z" />
    <glyph glyph-name="uni0455" unicode="&#x455;" 
d="M561 436h-219v604h219q139 0 215 -75.5t76 -227.5q0 -142 -77.5 -221.5t-213.5 -79.5zM428 958v-440h133q40 0 73 10t62.5 33t46.5 68t17 108q0 69 -16.5 115.5t-47 68t-62 29.5t-73.5 8h-133zM1374 518v-82h-426v604h426v-82h-330v-159h287v-82h-287v-199h330zM1542 944
v-508h-86v604h152l153 -493h11l157 493h146v-604h-86v508h-9l-165 -508h-97l-168 508h-8zM2253 739q0 -110 55.5 -173.5t142.5 -63.5t143 63.5t56 173.5t-56 173t-143 63t-142.5 -63t-55.5 -173zM102 1262h2872v-1047h-2872v1047zM2904 285v907h-2734v-907h2734zM2740 739
q0 -150 -74 -233.5t-215 -83.5t-214.5 83.5t-73.5 233.5t73.5 233t214.5 83t215 -83t74 -233z" />
    <glyph glyph-name="uni0456" unicode="&#x456;" 
d="M561 436h-219v604h219q139 0 215 -75.5t76 -227.5q0 -142 -77.5 -221.5t-213.5 -79.5zM428 958v-440h133q40 0 73 10t62.5 33t46.5 68t17 108q0 69 -16.5 115.5t-47 68t-62 29.5t-73.5 8h-133zM1374 518v-82h-426v604h426v-82h-330v-159h287v-82h-287v-199h330zM1542 944
v-508h-86v604h152l153 -493h11l157 493h146v-604h-86v508h-9l-165 -508h-97l-168 508h-8zM2253 739q0 -110 55.5 -173.5t142.5 -63.5t143 63.5t56 173.5t-56 173t-143 63t-142.5 -63t-55.5 -173zM102 1262h2872v-1047h-2872v1047zM2904 285v907h-2734v-907h2734zM2740 739
q0 -150 -74 -233.5t-215 -83.5t-214.5 83.5t-73.5 233.5t73.5 233t214.5 83t215 -83t74 -233z" />
    <glyph glyph-name="uni0457" unicode="&#x457;" 
d="M561 436h-219v604h219q139 0 215 -75.5t76 -227.5q0 -142 -77.5 -221.5t-213.5 -79.5zM428 958v-440h133q40 0 73 10t62.5 33t46.5 68t17 108q0 69 -16.5 115.5t-47 68t-62 29.5t-73.5 8h-133zM1374 518v-82h-426v604h426v-82h-330v-159h287v-82h-287v-199h330zM1542 944
v-508h-86v604h152l153 -493h11l157 493h146v-604h-86v508h-9l-165 -508h-97l-168 508h-8zM2253 739q0 -110 55.5 -173.5t142.5 -63.5t143 63.5t56 173.5t-56 173t-143 63t-142.5 -63t-55.5 -173zM102 1262h2872v-1047h-2872v1047zM2904 285v907h-2734v-907h2734zM2740 739
q0 -150 -74 -233.5t-215 -83.5t-214.5 83.5t-73.5 233.5t73.5 233t214.5 83t215 -83t74 -233z" />
    <glyph glyph-name="uni0458" unicode="&#x458;" 
d="M561 436h-219v604h219q139 0 215 -75.5t76 -227.5q0 -142 -77.5 -221.5t-213.5 -79.5zM428 958v-440h133q40 0 73 10t62.5 33t46.5 68t17 108q0 69 -16.5 115.5t-47 68t-62 29.5t-73.5 8h-133zM1374 518v-82h-426v604h426v-82h-330v-159h287v-82h-287v-199h330zM1542 944
v-508h-86v604h152l153 -493h11l157 493h146v-604h-86v508h-9l-165 -508h-97l-168 508h-8zM2253 739q0 -110 55.5 -173.5t142.5 -63.5t143 63.5t56 173.5t-56 173t-143 63t-142.5 -63t-55.5 -173zM102 1262h2872v-1047h-2872v1047zM2904 285v907h-2734v-907h2734zM2740 739
q0 -150 -74 -233.5t-215 -83.5t-214.5 83.5t-73.5 233.5t73.5 233t214.5 83t215 -83t74 -233z" />
    <glyph glyph-name="uni0459" unicode="&#x459;" 
d="M561 436h-219v604h219q139 0 215 -75.5t76 -227.5q0 -142 -77.5 -221.5t-213.5 -79.5zM428 958v-440h133q40 0 73 10t62.5 33t46.5 68t17 108q0 69 -16.5 115.5t-47 68t-62 29.5t-73.5 8h-133zM1374 518v-82h-426v604h426v-82h-330v-159h287v-82h-287v-199h330zM1542 944
v-508h-86v604h152l153 -493h11l157 493h146v-604h-86v508h-9l-165 -508h-97l-168 508h-8zM2253 739q0 -110 55.5 -173.5t142.5 -63.5t143 63.5t56 173.5t-56 173t-143 63t-142.5 -63t-55.5 -173zM102 1262h2872v-1047h-2872v1047zM2904 285v907h-2734v-907h2734zM2740 739
q0 -150 -74 -233.5t-215 -83.5t-214.5 83.5t-73.5 233.5t73.5 233t214.5 83t215 -83t74 -233z" />
    <glyph glyph-name="uni045A" unicode="&#x45a;" 
d="M561 436h-219v604h219q139 0 215 -75.5t76 -227.5q0 -142 -77.5 -221.5t-213.5 -79.5zM428 958v-440h133q40 0 73 10t62.5 33t46.5 68t17 108q0 69 -16.5 115.5t-47 68t-62 29.5t-73.5 8h-133zM1374 518v-82h-426v604h426v-82h-330v-159h287v-82h-287v-199h330zM1542 944
v-508h-86v604h152l153 -493h11l157 493h146v-604h-86v508h-9l-165 -508h-97l-168 508h-8zM2253 739q0 -110 55.5 -173.5t142.5 -63.5t143 63.5t56 173.5t-56 173t-143 63t-142.5 -63t-55.5 -173zM102 1262h2872v-1047h-2872v1047zM2904 285v907h-2734v-907h2734zM2740 739
q0 -150 -74 -233.5t-215 -83.5t-214.5 83.5t-73.5 233.5t73.5 233t214.5 83t215 -83t74 -233z" />
    <glyph glyph-name="uni045B" unicode="&#x45b;" 
d="M561 436h-219v604h219q139 0 215 -75.5t76 -227.5q0 -142 -77.5 -221.5t-213.5 -79.5zM428 958v-440h133q40 0 73 10t62.5 33t46.5 68t17 108q0 69 -16.5 115.5t-47 68t-62 29.5t-73.5 8h-133zM1374 518v-82h-426v604h426v-82h-330v-159h287v-82h-287v-199h330zM1542 944
v-508h-86v604h152l153 -493h11l157 493h146v-604h-86v508h-9l-165 -508h-97l-168 508h-8zM2253 739q0 -110 55.5 -173.5t142.5 -63.5t143 63.5t56 173.5t-56 173t-143 63t-142.5 -63t-55.5 -173zM102 1262h2872v-1047h-2872v1047zM2904 285v907h-2734v-907h2734zM2740 739
q0 -150 -74 -233.5t-215 -83.5t-214.5 83.5t-73.5 233.5t73.5 233t214.5 83t215 -83t74 -233z" />
    <glyph glyph-name="uni045C" unicode="&#x45c;" 
d="M561 436h-219v604h219q139 0 215 -75.5t76 -227.5q0 -142 -77.5 -221.5t-213.5 -79.5zM428 958v-440h133q40 0 73 10t62.5 33t46.5 68t17 108q0 69 -16.5 115.5t-47 68t-62 29.5t-73.5 8h-133zM1374 518v-82h-426v604h426v-82h-330v-159h287v-82h-287v-199h330zM1542 944
v-508h-86v604h152l153 -493h11l157 493h146v-604h-86v508h-9l-165 -508h-97l-168 508h-8zM2253 739q0 -110 55.5 -173.5t142.5 -63.5t143 63.5t56 173.5t-56 173t-143 63t-142.5 -63t-55.5 -173zM102 1262h2872v-1047h-2872v1047zM2904 285v907h-2734v-907h2734zM2740 739
q0 -150 -74 -233.5t-215 -83.5t-214.5 83.5t-73.5 233.5t73.5 233t214.5 83t215 -83t74 -233z" />
    <glyph glyph-name="uni045E" unicode="&#x45e;" 
d="M561 436h-219v604h219q139 0 215 -75.5t76 -227.5q0 -142 -77.5 -221.5t-213.5 -79.5zM428 958v-440h133q40 0 73 10t62.5 33t46.5 68t17 108q0 69 -16.5 115.5t-47 68t-62 29.5t-73.5 8h-133zM1374 518v-82h-426v604h426v-82h-330v-159h287v-82h-287v-199h330zM1542 944
v-508h-86v604h152l153 -493h11l157 493h146v-604h-86v508h-9l-165 -508h-97l-168 508h-8zM2253 739q0 -110 55.5 -173.5t142.5 -63.5t143 63.5t56 173.5t-56 173t-143 63t-142.5 -63t-55.5 -173zM102 1262h2872v-1047h-2872v1047zM2904 285v907h-2734v-907h2734zM2740 739
q0 -150 -74 -233.5t-215 -83.5t-214.5 83.5t-73.5 233.5t73.5 233t214.5 83t215 -83t74 -233z" />
    <glyph glyph-name="uni045F" unicode="&#x45f;" 
d="M561 436h-219v604h219q139 0 215 -75.5t76 -227.5q0 -142 -77.5 -221.5t-213.5 -79.5zM428 958v-440h133q40 0 73 10t62.5 33t46.5 68t17 108q0 69 -16.5 115.5t-47 68t-62 29.5t-73.5 8h-133zM1374 518v-82h-426v604h426v-82h-330v-159h287v-82h-287v-199h330zM1542 944
v-508h-86v604h152l153 -493h11l157 493h146v-604h-86v508h-9l-165 -508h-97l-168 508h-8zM2253 739q0 -110 55.5 -173.5t142.5 -63.5t143 63.5t56 173.5t-56 173t-143 63t-142.5 -63t-55.5 -173zM102 1262h2872v-1047h-2872v1047zM2904 285v907h-2734v-907h2734zM2740 739
q0 -150 -74 -233.5t-215 -83.5t-214.5 83.5t-73.5 233.5t73.5 233t214.5 83t215 -83t74 -233z" />
    <glyph glyph-name="uni0490" unicode="&#x490;" 
d="M561 436h-219v604h219q139 0 215 -75.5t76 -227.5q0 -142 -77.5 -221.5t-213.5 -79.5zM428 958v-440h133q40 0 73 10t62.5 33t46.5 68t17 108q0 69 -16.5 115.5t-47 68t-62 29.5t-73.5 8h-133zM1374 518v-82h-426v604h426v-82h-330v-159h287v-82h-287v-199h330zM1542 944
v-508h-86v604h152l153 -493h11l157 493h146v-604h-86v508h-9l-165 -508h-97l-168 508h-8zM2253 739q0 -110 55.5 -173.5t142.5 -63.5t143 63.5t56 173.5t-56 173t-143 63t-142.5 -63t-55.5 -173zM102 1262h2872v-1047h-2872v1047zM2904 285v907h-2734v-907h2734zM2740 739
q0 -150 -74 -233.5t-215 -83.5t-214.5 83.5t-73.5 233.5t73.5 233t214.5 83t215 -83t74 -233z" />
    <glyph glyph-name="uni0491" unicode="&#x491;" 
d="M561 436h-219v604h219q139 0 215 -75.5t76 -227.5q0 -142 -77.5 -221.5t-213.5 -79.5zM428 958v-440h133q40 0 73 10t62.5 33t46.5 68t17 108q0 69 -16.5 115.5t-47 68t-62 29.5t-73.5 8h-133zM1374 518v-82h-426v604h426v-82h-330v-159h287v-82h-287v-199h330zM1542 944
v-508h-86v604h152l153 -493h11l157 493h146v-604h-86v508h-9l-165 -508h-97l-168 508h-8zM2253 739q0 -110 55.5 -173.5t142.5 -63.5t143 63.5t56 173.5t-56 173t-143 63t-142.5 -63t-55.5 -173zM102 1262h2872v-1047h-2872v1047zM2904 285v907h-2734v-907h2734zM2740 739
q0 -150 -74 -233.5t-215 -83.5t-214.5 83.5t-73.5 233.5t73.5 233t214.5 83t215 -83t74 -233z" />
    <glyph glyph-name="endash" unicode="&#x2013;" horiz-adv-x="1228" 
d="M102 694h1024v-149h-1024v149z" />
    <glyph glyph-name="emdash" unicode="&#x2014;" horiz-adv-x="1912" 
d="M102 694h1708v-149h-1708v149z" />
    <glyph glyph-name="quoteleft" unicode="&#x2018;" horiz-adv-x="614" 
d="M430 1071q0 -52 -36 -87.5t-87 -35.5q-53 0 -88 35t-35 88q0 24 11 53l143 330h72l-56 -272q34 -14 55 -43.5t21 -67.5z" />
    <glyph glyph-name="quoteright" unicode="&#x2019;" horiz-adv-x="614" 
d="M184 1331q0 52 36 87.5t87 35.5q53 0 88 -35t35 -88q0 -26 -10 -53l-144 -330h-71l55 273q-34 14 -55 43t-21 67z" />
    <glyph glyph-name="quotesinglbase" unicode="&#x201a;" horiz-adv-x="614" 
d="M184 98q0 52 36 87.5t87 35.5q53 0 88 -35.5t35 -87.5q0 -26 -10 -53l-144 -330h-71l55 273q-34 14 -55 43t-21 67z" />
    <glyph glyph-name="quotedblleft" unicode="&#x201c;" horiz-adv-x="886" 
d="M743 1071q0 -52 -35.5 -87.5t-86.5 -35.5q-53 0 -88 35t-35 88q0 26 10 53l143 330h72l-55 -272q34 -14 54.5 -43.5t20.5 -67.5zM389 1071q0 -52 -36 -87.5t-87 -35.5q-52 0 -87.5 35t-35.5 88q0 24 11 53l143 330h72l-56 -272q34 -14 55 -43.5t21 -67.5z" />
    <glyph glyph-name="quotedblright" unicode="&#x201d;" horiz-adv-x="886" 
d="M143 1331q0 52 36 87.5t87 35.5q52 0 87.5 -35t35.5 -88q0 -26 -10 -53l-143 -330h-72l55 273q-34 14 -55 43t-21 67zM498 1331q0 52 36 87.5t87 35.5q52 0 87 -35t35 -88q0 -26 -10 -53l-143 -330h-72l55 273q-34 14 -54.5 43t-20.5 67z" />
    <glyph glyph-name="quotedblbase" unicode="&#x201e;" horiz-adv-x="927" 
d="M518 98q0 52 36 87.5t87 35.5q53 0 88 -35.5t35 -87.5q0 -26 -10 -53l-144 -330h-71l55 273q-34 14 -55 43t-21 67zM164 98q0 52 36 87.5t87 35.5q53 0 88 -35.5t35 -87.5q0 -24 -11 -53l-143 -330h-72l56 273q-34 14 -55 43t-21 67z" />
    <glyph glyph-name="dagger" unicode="&#x2020;" 
d="M561 436h-219v604h219q139 0 215 -75.5t76 -227.5q0 -142 -77.5 -221.5t-213.5 -79.5zM428 958v-440h133q40 0 73 10t62.5 33t46.5 68t17 108q0 69 -16.5 115.5t-47 68t-62 29.5t-73.5 8h-133zM1374 518v-82h-426v604h426v-82h-330v-159h287v-82h-287v-199h330zM1542 944
v-508h-86v604h152l153 -493h11l157 493h146v-604h-86v508h-9l-165 -508h-97l-168 508h-8zM2253 739q0 -110 55.5 -173.5t142.5 -63.5t143 63.5t56 173.5t-56 173t-143 63t-142.5 -63t-55.5 -173zM102 1262h2872v-1047h-2872v1047zM2904 285v907h-2734v-907h2734zM2740 739
q0 -150 -74 -233.5t-215 -83.5t-214.5 83.5t-73.5 233.5t73.5 233t214.5 83t215 -83t74 -233z" />
    <glyph glyph-name="daggerdbl" unicode="&#x2021;" 
d="M561 436h-219v604h219q139 0 215 -75.5t76 -227.5q0 -142 -77.5 -221.5t-213.5 -79.5zM428 958v-440h133q40 0 73 10t62.5 33t46.5 68t17 108q0 69 -16.5 115.5t-47 68t-62 29.5t-73.5 8h-133zM1374 518v-82h-426v604h426v-82h-330v-159h287v-82h-287v-199h330zM1542 944
v-508h-86v604h152l153 -493h11l157 493h146v-604h-86v508h-9l-165 -508h-97l-168 508h-8zM2253 739q0 -110 55.5 -173.5t142.5 -63.5t143 63.5t56 173.5t-56 173t-143 63t-142.5 -63t-55.5 -173zM102 1262h2872v-1047h-2872v1047zM2904 285v907h-2734v-907h2734zM2740 739
q0 -150 -74 -233.5t-215 -83.5t-214.5 83.5t-73.5 233.5t73.5 233t214.5 83t215 -83t74 -233z" />
    </font>
</defs>
</svg>
